M48
;Layer_Color=6321
;FILE_FORMAT=2:5
INCH,LZ
;TYPE=PLATED
T1F00S00C0.01000
T2F00S00C0.01181
T4F00S00C0.03000
T5F00S00C0.03900
T6F00S00C0.03937
T7F00S00C0.05100
T8F00S00C0.13386
;TYPE=NON_PLATED
T9F00S00C0.02559
%
T01
X0036959Y0032658
X0038917Y0034193
X0047645Y0030445
X0050666Y0033299
X0061924Y0051977
X0079357Y0051949
Y0047049
Y0057249
Y0062149
X0079558Y0067249
X0079757Y0072249
Y0077249
X0072628Y009314
X0034258Y0084249
X0024454Y0084804
X0018096Y0084961
X0034926Y0063601
X0035098Y0053514
X0066299Y0011585
X0069321Y0014439
X0250669Y0038465
X0253907Y0040905
X0258917Y004128
X0256663Y0048361
X0253857Y0051749
X0253758Y0054849
X0268003Y0024684
X0291526Y0023541
X0288587Y0039585
X0285536Y0039162
X0309291Y0032146
X0311732Y0032126
X030094Y0058138
X0301491Y0067523
Y0070723
Y0073823
X0288637Y008616
X0285428Y0086111
X0282308Y008613
X0279109Y0086239
X0276068Y008616
X0272957Y0086049
X0269858Y0085949
X0213602Y0090905
X0313391Y0062723
X0327835Y0056486
X032375Y0029041
X032373Y00266
X0350758Y0032649
X0361526Y0033081
X0364331Y0032815
T02
X0052858Y0038199
X0067067Y0025738
X0079285Y00133
X0083327Y0013268
X0087313
X0091441Y00133
X0095348Y0013359
X0099827Y0013477
X0122539Y0013169
X0126581Y0013137
X0130567
X0134695Y0013169
X0138602Y0013228
X0143081Y0013347
X0147122Y0013314
X0151109
X0155236Y0013347
X0095913Y0035546
X0089413Y0035691
X0083127Y0035674
X008291Y0039909
X0073868Y0055344
X0071526Y0058937
X0061417Y006437
X0061998Y007373
X0055797Y0073701
X0050256Y0073593
X0049935Y0063288
X0043612Y0063238
X0038825Y0097232
X003411
X0028973Y0097153
Y0092035
X0028851Y0087633
X0159144Y0013406
X0163937Y0013307
X0167979Y0013275
X0171965
X0176093Y0013307
X018Y0013366
X0184518Y001313
X0188559Y0013098
X0192545
X0196673Y001313
X0200581Y0013189
X0204931Y0013258
X0208973Y0013226
X0212959
X0217087Y0013258
X0220994Y0013317
X0296132Y0014636
X0296024Y0021959
X0302933Y0021929
X0305935Y0047471
X0309449Y0048986
X0310581Y0052658
X0291565Y0047854
X0284631Y0053965
X0277568Y0053849
X0270357
X0270758Y0072049
X0278046Y0072036
X0284958Y0071949
X0264301Y0079409
X0264321Y0083819
X0245679Y0081565
X0239179Y008171
X0232894Y0081693
X0249957Y007674
X0309026Y007813
X0313366Y0081496
X0319734Y0081604
X0322921Y0099154
X0322744Y0106112
X032295Y0113455
X0330322Y0113681
X0338809Y0113256
X0345138Y0112923
X0351939Y0112736
X0358524Y0112539
X0364631Y0112572
X0371231
X0378431Y0112472
X0385431
X0391831
X0398431
X0406031Y0112372
X0413031
X0419931Y0112472
X0426531
X0433731Y0112372
X0440731
X0447131
X0453731
X0461331Y0112272
X0468331
X0466988Y0099459
X0460558Y0099449
Y0092449
X0460458Y0085249
Y0078649
X0460558Y0071749
Y0064749
X0460458Y0057149
Y0050549
Y0044149
Y0037149
X0460358Y0029949
Y0023349
X0462531Y000784
X0454931Y000794
X0448331
X0441931
X0434931
X0427731Y000804
X0421131
X0414231Y000794
X0407231
X0399631Y000804
X0393031
X0386631
X0379631
X0372431Y000814
X0365831
X0359203Y0007795
X0352921Y0007746
X03475Y0007933
X0341201Y0008278
X0341132Y0013543
X0341307Y0019203
X0323767Y0019685
X0319173Y0014656
X0313855Y0041051
X0318175Y004857
X0321856Y0052291
X0317575Y0055775
X033002Y0046024
X0333898Y0045915
X0337825Y0046028
X0341453Y0046956
X0341299Y0052441
X0341492Y0057576
X0348642Y0057736
X0341571Y0040992
X0373322Y0042498
X0373204Y0037105
X0373145Y00318
X0362835Y0026201
X0362923Y0020315
X0373381Y0048296
X037344Y0053748
X0373715Y0064182
X0373804Y0070156
Y0076731
X0373686Y0082853
X0401358Y0083849
X0401458Y0091049
Y0098049
X0414458Y0091749
X0414541Y0083227
Y0076827
Y0069827
X0415507Y0062813
X0415221Y0056071
X0415202Y0049703
X041528Y0042981
X0401294Y0043217
Y0049683
X0401358Y0055749
X0401441Y0062327
Y0068727
Y0075327
X0401258Y0021949
X0414558Y0022249
X033045Y0099075
X0473558Y0093149
X0473658Y0086249
Y0079249
X0473558Y0071649
Y0065049
Y0058649
Y0051649
X0473457Y0044449
Y0037849
X0473658Y0030649
Y0023649
X0476731Y000804
X0483331
X0490531Y000794
X0497531
X0503931
X0510531
X0518131Y000784
X0525131
X0532031Y000794
X0538631
X0545831Y000784
X0552831
X0559231
X0565831
X0531676Y0022991
X0531776Y0030191
Y0037191
Y0043591
X0531658Y0050949
Y0057949
Y0064349
X0518657Y0064049
X0518558Y0056449
Y0049849
X0518776Y0043291
X0518676Y0035691
Y0029091
Y0022691
X0518558Y0084549
X0518657Y0091749
Y0098749
X0525404Y0099016
X0531658Y0092449
X0531757Y0085549
X0530831Y0112372
X0537431
X0544631Y0112272
X0551631
X0558031
X0564631
X0523931
X0516931
X0509331Y0112372
X0502731
X0496331
X0489331
X0482131Y0112472
X0475531
X0469531Y000784
T04
X0126157Y0039649
X0136158
X0146158
X0156158
Y0079649
X0146158
X0136158
X0126157
X0166157
X0176157
X0186158
X0196158
Y0039649
X0186158
X0176157
X0166157
T05
X0112458Y0103349
X0130058
X0148557
X0166157
X0185357Y0103449
X0202958
T06
X0237052Y001678
X0247052
X0257052
X0267052
T07
X0107457Y0093849
X0135057
X0143558
X0171158
X0180358Y0093949
X0207958
T08
X0019602Y001186
Y0106348
X0408922Y0031868
X0524493Y0076219
X0578657Y0106348
Y001186
T09
X0024637Y0047259
Y0070094
M30
