G04*
G04 #@! TF.GenerationSoftware,Altium Limited,CircuitMaker,2.3.0 (2.3.0.3)*
G04*
G04 Layer_Color=13813960*
%FSLAX25Y25*%
%MOIN*%
G70*
G04*
G04 #@! TF.SameCoordinates,9D4FD783-725B-4E00-92F0-F451B6D08482*
G04*
G04*
G04 #@! TF.FilePolarity,Positive*
G04*
G01*
G75*
%ADD13C,0.01000*%
%ADD97C,0.02000*%
%ADD98C,0.03000*%
D13*
X215698Y111690D02*
X214698Y112690D01*
X214698Y114689D01*
X215698Y115689D01*
X219696Y115689D01*
X220696Y114689D01*
X220696Y112690D01*
X219696Y111690D01*
X217697Y111690D01*
X217697Y113689D01*
X214698Y109691D02*
X220696Y109691D01*
X220696Y106692D01*
X219696Y105692D01*
X218696Y105692D01*
X217697Y106692D01*
X217697Y109691D01*
X217697Y106692D01*
X216697Y105692D01*
X215698Y105692D01*
X214698Y106692D01*
X214698Y109691D01*
X220696Y103693D02*
X220696Y101693D01*
X220696Y102693D01*
X214698Y102693D01*
X215698Y103693D01*
D97*
X226457Y117776D02*
X336693Y117776D01*
X336693Y23287D02*
X336693Y117776D01*
X226457Y23287D02*
X336693Y23287D01*
X226457Y23287D02*
X226457Y117776D01*
D98*
X341575Y70531D02*
X359575Y70531D01*
X350575Y61532D02*
X350575Y79532D01*
X213575Y61532D02*
X213575Y79532D01*
M02*
