G04*
G04 #@! TF.GenerationSoftware,Altium Limited,CircuitMaker,2.3.0 (2.3.0.3)*
G04*
G04 Layer_Color=8150272*
%FSLAX25Y25*%
%MOIN*%
G70*
G04*
G04 #@! TF.SameCoordinates,9D4FD783-725B-4E00-92F0-F451B6D08482*
G04*
G04*
G04 #@! TF.FilePolarity,Negative*
G04*
G01*
G75*
%ADD87R,0.08674X0.08674*%
%ADD88C,0.08674*%
%ADD89C,0.06800*%
%ADD90C,0.14973*%
%ADD91C,0.00800*%
G04:AMPARAMS|DCode=92|XSize=47.37mil|YSize=94.61mil|CornerRadius=23.68mil|HoleSize=0mil|Usage=FLASHONLY|Rotation=270.000|XOffset=0mil|YOffset=0mil|HoleType=Round|Shape=RoundedRectangle|*
%AMROUNDEDRECTD92*
21,1,0.04737,0.04724,0,0,270.0*
21,1,0.00000,0.09461,0,0,270.0*
1,1,0.04737,-0.02362,0.00000*
1,1,0.04737,-0.02362,0.00000*
1,1,0.04737,0.02362,0.00000*
1,1,0.04737,0.02362,0.00000*
%
%ADD92ROUNDEDRECTD92*%
G04:AMPARAMS|DCode=93|XSize=47.37mil|YSize=86.74mil|CornerRadius=23.68mil|HoleSize=0mil|Usage=FLASHONLY|Rotation=270.000|XOffset=0mil|YOffset=0mil|HoleType=Round|Shape=RoundedRectangle|*
%AMROUNDEDRECTD93*
21,1,0.04737,0.03937,0,0,270.0*
21,1,0.00000,0.08674,0,0,270.0*
1,1,0.04737,-0.01968,0.00000*
1,1,0.04737,-0.01968,0.00000*
1,1,0.04737,0.01968,0.00000*
1,1,0.04737,0.01968,0.00000*
%
%ADD93ROUNDEDRECTD93*%
%ADD94C,0.06630*%
%ADD95C,0.07630*%
%ADD113R,0.20800X0.15800*%
D87*
X237052Y16780D02*
D03*
D88*
X247052Y16780D02*
D03*
X257052Y16780D02*
D03*
X267052Y16780D02*
D03*
D89*
X126157Y39649D02*
D03*
X136158Y39649D02*
D03*
X146158Y39649D02*
D03*
X156158Y39649D02*
D03*
X166157Y39649D02*
D03*
X176157Y39649D02*
D03*
X186158Y39649D02*
D03*
X196158Y39649D02*
D03*
X196158Y79649D02*
D03*
X186158Y79649D02*
D03*
X176157Y79649D02*
D03*
X166157Y79649D02*
D03*
X126157Y79649D02*
D03*
X136158Y79649D02*
D03*
X146158Y79649D02*
D03*
X156158Y79649D02*
D03*
D90*
X524493Y76219D02*
D03*
X408922Y31868D02*
D03*
X578657Y11860D02*
D03*
X578657Y106348D02*
D03*
X19602Y11860D02*
D03*
X19602Y106348D02*
D03*
D91*
X24637Y70094D02*
D03*
X24637Y47259D02*
D03*
D92*
X10858Y41649D02*
D03*
X10858Y75704D02*
D03*
D93*
X26605Y75704D02*
D03*
X26605Y41649D02*
D03*
D94*
X98028Y104176D02*
D03*
X115628Y104176D02*
D03*
X141756Y103763D02*
D03*
X159356Y103763D02*
D03*
X185357Y103449D02*
D03*
X202958Y103449D02*
D03*
D95*
X93028Y94676D02*
D03*
X120628Y94676D02*
D03*
X136756Y94263D02*
D03*
X164356Y94263D02*
D03*
X180358Y93949D02*
D03*
X207958Y93949D02*
D03*
D113*
X325575Y70531D02*
D03*
X237575Y70531D02*
D03*
M02*
