G04*
G04 #@! TF.GenerationSoftware,Altium Limited,CircuitMaker,2.3.0 (2.3.0.3)*
G04*
G04 Layer_Physical_Order=2*
G04 Layer_Color=11436288*
%FSLAX25Y25*%
%MOIN*%
G70*
G04*
G04 #@! TF.SameCoordinates,78E796E0-C901-4EEF-AC21-B33B4F4223E0*
G04*
G04*
G04 #@! TF.FilePolarity,Positive*
G04*
G01*
G75*
%ADD13C,0.01000*%
%ADD97C,0.02000*%
%ADD98C,0.03000*%
%ADD103C,0.01949*%
%ADD104R,0.07874X0.07874*%
%ADD105C,0.07874*%
%ADD106C,0.06000*%
%ADD107C,0.14173*%
G04:AMPARAMS|DCode=108|XSize=39.37mil|YSize=86.61mil|CornerRadius=19.68mil|HoleSize=0mil|Usage=FLASHONLY|Rotation=270.000|XOffset=0mil|YOffset=0mil|HoleType=Round|Shape=RoundedRectangle|*
%AMROUNDEDRECTD108*
21,1,0.03937,0.04724,0,0,270.0*
21,1,0.00000,0.08661,0,0,270.0*
1,1,0.03937,-0.02362,0.00000*
1,1,0.03937,-0.02362,0.00000*
1,1,0.03937,0.02362,0.00000*
1,1,0.03937,0.02362,0.00000*
%
%ADD108ROUNDEDRECTD108*%
G04:AMPARAMS|DCode=109|XSize=39.37mil|YSize=78.74mil|CornerRadius=19.68mil|HoleSize=0mil|Usage=FLASHONLY|Rotation=270.000|XOffset=0mil|YOffset=0mil|HoleType=Round|Shape=RoundedRectangle|*
%AMROUNDEDRECTD109*
21,1,0.03937,0.03937,0,0,270.0*
21,1,0.00000,0.07874,0,0,270.0*
1,1,0.03937,-0.01968,0.00000*
1,1,0.03937,-0.01968,0.00000*
1,1,0.03937,0.01968,0.00000*
1,1,0.03937,0.01968,0.00000*
%
%ADD109ROUNDEDRECTD109*%
%ADD110C,0.07000*%
%ADD111C,0.02362*%
%ADD112R,0.20000X0.15000*%
G36*
X590658Y49D02*
X158Y49D01*
X158Y118249D01*
X590658Y118249D01*
X590658Y49D01*
X590658Y49D02*
G37*
%LPC*%
G36*
X278228Y111579D02*
X121502Y111579D01*
X120916Y111462D01*
X120420Y111131D01*
X117185Y107896D01*
X117172Y107903D01*
X116155Y108176D01*
X115102Y108176D01*
X114084Y107903D01*
X113172Y107377D01*
X112427Y106632D01*
X111901Y105720D01*
X111628Y104703D01*
X111628Y103649D01*
X111901Y102632D01*
X112427Y101720D01*
X113172Y100975D01*
X114084Y100449D01*
X115102Y100176D01*
X116155Y100176D01*
X117172Y100449D01*
X118084Y100975D01*
X118829Y101720D01*
X119356Y102632D01*
X119628Y103649D01*
X119628Y104703D01*
X119356Y105720D01*
X119348Y105733D01*
X122135Y108520D01*
X157275Y108520D01*
X157550Y107339D01*
X156900Y106963D01*
X156156Y106219D01*
X155629Y105306D01*
X155356Y104289D01*
X155356Y103236D01*
X155629Y102219D01*
X156156Y101306D01*
X156900Y100562D01*
X157812Y100035D01*
X158830Y99763D01*
X159883Y99763D01*
X160900Y100035D01*
X161812Y100562D01*
X162557Y101306D01*
X163084Y102219D01*
X163356Y103236D01*
X163356Y104289D01*
X163084Y105306D01*
X163076Y105320D01*
X164259Y106502D01*
X198742Y106502D01*
X199419Y105321D01*
X199230Y104993D01*
X198958Y103976D01*
X198958Y102923D01*
X199230Y101905D01*
X199757Y100993D01*
X200501Y100248D01*
X201413Y99722D01*
X202431Y99449D01*
X203484Y99449D01*
X204501Y99722D01*
X205414Y100248D01*
X206158Y100993D01*
X206685Y101905D01*
X206689Y101920D01*
X220367Y101920D01*
X220819Y100829D01*
X212630Y92640D01*
X212484Y92579D01*
X211929Y92024D01*
X211868Y91878D01*
X208179Y88188D01*
X94622Y88188D01*
X88219Y94591D01*
X87557Y95033D01*
X86777Y95188D01*
X72557Y95188D01*
X71777Y95033D01*
X71116Y94591D01*
X70674Y93930D01*
X70518Y93149D01*
X70674Y92369D01*
X71116Y91707D01*
X71777Y91265D01*
X72194Y91182D01*
X72235Y91165D01*
X72321Y91062D01*
X72605Y90359D01*
X72633Y89929D01*
X66202Y83498D01*
X65870Y83002D01*
X65765Y82475D01*
X65324Y82181D01*
X64662Y81907D01*
X61239Y85331D01*
X60743Y85662D01*
X60158Y85779D01*
X35520Y85779D01*
X35376Y85923D01*
X34650Y86224D01*
X33865Y86224D01*
X33139Y85923D01*
X33005Y85789D01*
X31506Y85618D01*
X31101Y86022D01*
X30605Y86354D01*
X30020Y86470D01*
X25580Y86470D01*
X25573Y86478D01*
X24847Y86778D01*
X24061Y86778D01*
X23336Y86478D01*
X22780Y85922D01*
X21623Y86214D01*
X21383Y86374D01*
X20798Y86491D01*
X19359Y86491D01*
X19214Y86635D01*
X18489Y86936D01*
X17703Y86936D01*
X16978Y86635D01*
X16422Y86080D01*
X16122Y85354D01*
X16122Y84569D01*
X16422Y83843D01*
X16978Y83287D01*
X17703Y82987D01*
X18489Y82987D01*
X19214Y83287D01*
X20430Y83166D01*
X22348Y81248D01*
X22844Y80916D01*
X23429Y80800D01*
X28241Y80800D01*
X28406Y80833D01*
X28825Y80833D01*
X30922Y78736D01*
X30922Y62576D01*
X31039Y61991D01*
X31370Y61494D01*
X33569Y59295D01*
X33569Y54777D01*
X33425Y54632D01*
X33124Y53907D01*
X33124Y53121D01*
X33425Y52395D01*
X33980Y51840D01*
X34706Y51539D01*
X35491Y51539D01*
X36217Y51840D01*
X36772Y52395D01*
X37073Y53121D01*
X37073Y53907D01*
X36772Y54632D01*
X36628Y54777D01*
X36628Y59929D01*
X36511Y60514D01*
X36340Y60771D01*
X36044Y61927D01*
X36600Y62482D01*
X36900Y63208D01*
X36900Y63994D01*
X36600Y64719D01*
X36455Y64864D01*
X36455Y80035D01*
X36339Y80620D01*
X36007Y81116D01*
X35626Y81498D01*
X35616Y81613D01*
X36074Y82720D01*
X59524Y82720D01*
X63428Y78816D01*
X63428Y56749D01*
X63544Y56164D01*
X63876Y55668D01*
X64974Y54570D01*
X64522Y53479D01*
X63214Y53479D01*
X63042Y53651D01*
X62317Y53951D01*
X61531Y53951D01*
X60806Y53651D01*
X60634Y53479D01*
X59857Y53479D01*
X59272Y53362D01*
X58776Y53031D01*
X58444Y52535D01*
X58328Y51949D01*
X58444Y51364D01*
X58776Y50868D01*
X59272Y50536D01*
X59857Y50420D01*
X60689Y50420D01*
X60806Y50303D01*
X61531Y50002D01*
X62317Y50002D01*
X63042Y50303D01*
X63159Y50420D01*
X66296Y50420D01*
X75222Y41493D01*
X75718Y41162D01*
X76303Y41045D01*
X81312Y41045D01*
X81897Y41162D01*
X82393Y41493D01*
X96694Y55794D01*
X250570Y55794D01*
X251059Y54613D01*
X250302Y53856D01*
X249970Y53359D01*
X249854Y52774D01*
X249854Y40702D01*
X249588Y40437D01*
X249256Y39940D01*
X249232Y39820D01*
X248995Y39583D01*
X248695Y38857D01*
X248695Y38072D01*
X248995Y37346D01*
X249551Y36791D01*
X250277Y36490D01*
X251062Y36490D01*
X251788Y36791D01*
X252343Y37346D01*
X252644Y38072D01*
X253499Y38915D01*
X253735Y38931D01*
X254300Y38931D01*
X255026Y39232D01*
X255581Y39787D01*
X255852Y40440D01*
X256121Y40530D01*
X257063Y40597D01*
X257087Y40538D01*
X257243Y40161D01*
X257799Y39606D01*
X258525Y39305D01*
X259310Y39305D01*
X260036Y39606D01*
X260591Y40161D01*
X260892Y40887D01*
X260892Y41672D01*
X260667Y42215D01*
X260667Y55797D01*
X260551Y56382D01*
X260219Y56878D01*
X256692Y60405D01*
X256196Y60737D01*
X255611Y60853D01*
X209392Y60853D01*
X208940Y61944D01*
X225410Y78414D01*
X226591Y77925D01*
X226591Y71024D01*
X237083Y71024D01*
X237083Y79016D01*
X227682Y79016D01*
X227192Y80197D01*
X232315Y85320D01*
X267981Y85320D01*
X268184Y84831D01*
X268739Y84275D01*
X269465Y83975D01*
X270250Y83975D01*
X270976Y84275D01*
X271458Y84757D01*
X271839Y84375D01*
X272565Y84075D01*
X273350Y84075D01*
X274076Y84375D01*
X274568Y84867D01*
X274949Y84486D01*
X275675Y84185D01*
X276461Y84185D01*
X277186Y84486D01*
X277628Y84928D01*
X277991Y84565D01*
X278716Y84264D01*
X279502Y84264D01*
X280227Y84565D01*
X280654Y84992D01*
X281189Y84456D01*
X281915Y84156D01*
X282701Y84156D01*
X283426Y84456D01*
X283858Y84888D01*
X284310Y84437D01*
X285035Y84136D01*
X285821Y84136D01*
X286546Y84437D01*
X287057Y84947D01*
X287518Y84486D01*
X288244Y84185D01*
X289029Y84185D01*
X289755Y84486D01*
X290269Y85000D01*
X290325Y85044D01*
X291679Y85260D01*
X295118Y81821D01*
X295118Y65849D01*
X295273Y65069D01*
X295716Y64407D01*
X299015Y61107D01*
X299016Y61107D01*
X299350Y60884D01*
X299451Y60655D01*
X299552Y59815D01*
X299505Y59495D01*
X299266Y59257D01*
X298965Y58531D01*
X298965Y57745D01*
X299266Y57020D01*
X299410Y56875D01*
X299410Y53604D01*
X296856Y51050D01*
X296701Y50946D01*
X287506Y41751D01*
X287460Y41683D01*
X287041Y41242D01*
X285945Y41129D01*
X285929Y41136D01*
X285143Y41136D01*
X284418Y40836D01*
X283862Y40280D01*
X283562Y39555D01*
X283562Y39350D01*
X271558Y27346D01*
X268760Y26507D01*
X268396Y26658D01*
X267610Y26658D01*
X266885Y26358D01*
X266329Y25802D01*
X266029Y25076D01*
X266029Y24291D01*
X266329Y23565D01*
X266885Y23010D01*
X267155Y22898D01*
X266920Y21717D01*
X266402Y21717D01*
X265146Y21381D01*
X264021Y20730D01*
X263101Y19811D01*
X262699Y19114D01*
X262691Y19111D01*
X261413Y19111D01*
X261405Y19114D01*
X261003Y19811D01*
X260083Y20730D01*
X258958Y21381D01*
X257702Y21717D01*
X256402Y21717D01*
X255146Y21381D01*
X254021Y20730D01*
X253101Y19811D01*
X252451Y18686D01*
X252115Y17430D01*
X252115Y16130D01*
X252451Y14874D01*
X253101Y13748D01*
X254021Y12829D01*
X255146Y12179D01*
X256402Y11843D01*
X257702Y11843D01*
X258958Y12179D01*
X260083Y12829D01*
X261003Y13748D01*
X261405Y14446D01*
X261413Y14449D01*
X262691Y14449D01*
X262699Y14446D01*
X263101Y13748D01*
X264021Y12829D01*
X265146Y12179D01*
X266402Y11843D01*
X267702Y11843D01*
X268958Y12179D01*
X270083Y12829D01*
X271003Y13748D01*
X271653Y14874D01*
X271865Y15668D01*
X314659Y58462D01*
X314659Y58462D01*
X315101Y59124D01*
X315257Y59904D01*
X315257Y59904D01*
X315257Y62032D01*
X325951Y62032D01*
X325951Y57098D01*
X325860Y56879D01*
X325860Y56094D01*
X326161Y55368D01*
X326716Y54812D01*
X327187Y54617D01*
X327210Y54602D01*
X327236Y54597D01*
X327442Y54512D01*
X327664Y54512D01*
X327990Y54447D01*
X328770Y54602D01*
X329432Y55044D01*
X329874Y55706D01*
X330029Y56486D01*
X330029Y62032D01*
X336575Y62032D01*
X336575Y79031D01*
X314575Y79031D01*
X314575Y65649D01*
X313784Y64698D01*
X312999Y64698D01*
X312735Y64588D01*
X302652Y64588D01*
X302417Y65769D01*
X302610Y65849D01*
X303165Y66405D01*
X303398Y66968D01*
X307144Y70714D01*
X307476Y71210D01*
X307592Y71796D01*
X307592Y82215D01*
X307476Y82800D01*
X307144Y83296D01*
X279310Y111131D01*
X278814Y111462D01*
X278228Y111579D01*
X278228Y111579D02*
G37*
G36*
X248559Y79016D02*
X238067Y79016D01*
X238067Y71024D01*
X248559Y71024D01*
X248559Y79016D01*
X248559Y79016D02*
G37*
G36*
X25090Y72374D02*
X24184Y72374D01*
X23346Y72027D01*
X22704Y71385D01*
X22357Y70547D01*
X22357Y69641D01*
X22704Y68803D01*
X23346Y68162D01*
X24184Y67815D01*
X25090Y67815D01*
X25928Y68162D01*
X26570Y68803D01*
X26917Y69641D01*
X26917Y70547D01*
X26570Y71385D01*
X25928Y72027D01*
X25090Y72374D01*
X25090Y72374D02*
G37*
G36*
X248559Y70039D02*
X238067Y70039D01*
X238067Y62047D01*
X248559Y62047D01*
X248559Y70039D01*
X248559Y70039D02*
G37*
G36*
X237083Y70039D02*
X226591Y70039D01*
X226591Y62047D01*
X237083Y62047D01*
X237083Y70039D01*
X237083Y70039D02*
G37*
G36*
X25090Y49539D02*
X24184Y49539D01*
X23346Y49192D01*
X22704Y48551D01*
X22357Y47713D01*
X22357Y46806D01*
X22704Y45968D01*
X23346Y45327D01*
X24184Y44980D01*
X25090Y44980D01*
X25928Y45327D01*
X26570Y45968D01*
X26917Y46806D01*
X26917Y47713D01*
X26570Y48551D01*
X25928Y49192D01*
X25090Y49539D01*
X25090Y49539D02*
G37*
G36*
X196684Y43649D02*
X195631Y43649D01*
X194614Y43377D01*
X193701Y42850D01*
X192957Y42105D01*
X192430Y41193D01*
X192157Y40176D01*
X192157Y39123D01*
X192430Y38105D01*
X192957Y37193D01*
X193701Y36448D01*
X194614Y35922D01*
X195631Y35649D01*
X196684Y35649D01*
X197701Y35922D01*
X198614Y36448D01*
X199358Y37193D01*
X199885Y38105D01*
X200157Y39123D01*
X200157Y40176D01*
X199885Y41193D01*
X199358Y42105D01*
X198614Y42850D01*
X197701Y43377D01*
X196684Y43649D01*
X196684Y43649D02*
G37*
G36*
X186684Y43649D02*
X185631Y43649D01*
X184614Y43377D01*
X183701Y42850D01*
X182957Y42105D01*
X182430Y41193D01*
X182158Y40176D01*
X182158Y39123D01*
X182430Y38105D01*
X182957Y37193D01*
X183701Y36448D01*
X184614Y35922D01*
X185631Y35649D01*
X186684Y35649D01*
X187701Y35922D01*
X188613Y36448D01*
X189358Y37193D01*
X189885Y38105D01*
X190157Y39123D01*
X190157Y40176D01*
X189885Y41193D01*
X189358Y42105D01*
X188613Y42850D01*
X187701Y43377D01*
X186684Y43649D01*
X186684Y43649D02*
G37*
G36*
X176684Y43649D02*
X175631Y43649D01*
X174613Y43377D01*
X173701Y42850D01*
X172957Y42105D01*
X172430Y41193D01*
X172158Y40176D01*
X172158Y39123D01*
X172430Y38105D01*
X172957Y37193D01*
X173701Y36448D01*
X174613Y35922D01*
X175631Y35649D01*
X176684Y35649D01*
X177701Y35922D01*
X178613Y36448D01*
X179358Y37193D01*
X179885Y38105D01*
X180157Y39123D01*
X180157Y40176D01*
X179885Y41193D01*
X179358Y42105D01*
X178613Y42850D01*
X177701Y43377D01*
X176684Y43649D01*
X176684Y43649D02*
G37*
G36*
X166684Y43649D02*
X165631Y43649D01*
X164613Y43377D01*
X163701Y42850D01*
X162957Y42105D01*
X162430Y41193D01*
X162157Y40176D01*
X162157Y39123D01*
X162430Y38105D01*
X162957Y37193D01*
X163701Y36448D01*
X164613Y35922D01*
X165631Y35649D01*
X166684Y35649D01*
X167701Y35922D01*
X168614Y36448D01*
X169358Y37193D01*
X169885Y38105D01*
X170158Y39123D01*
X170158Y40176D01*
X169885Y41193D01*
X169358Y42105D01*
X168614Y42850D01*
X167701Y43377D01*
X166684Y43649D01*
X166684Y43649D02*
G37*
G36*
X156684Y43649D02*
X155631Y43649D01*
X154613Y43377D01*
X153701Y42850D01*
X152957Y42105D01*
X152430Y41193D01*
X152157Y40176D01*
X152157Y39123D01*
X152430Y38105D01*
X152957Y37193D01*
X153701Y36448D01*
X154613Y35922D01*
X155631Y35649D01*
X156684Y35649D01*
X157701Y35922D01*
X158614Y36448D01*
X159358Y37193D01*
X159885Y38105D01*
X160158Y39123D01*
X160158Y40176D01*
X159885Y41193D01*
X159358Y42105D01*
X158614Y42850D01*
X157701Y43377D01*
X156684Y43649D01*
X156684Y43649D02*
G37*
G36*
X146684Y43649D02*
X145631Y43649D01*
X144614Y43377D01*
X143701Y42850D01*
X142957Y42105D01*
X142430Y41193D01*
X142157Y40176D01*
X142157Y39123D01*
X142430Y38105D01*
X142957Y37193D01*
X143701Y36448D01*
X144614Y35922D01*
X145631Y35649D01*
X146684Y35649D01*
X147701Y35922D01*
X148614Y36448D01*
X149358Y37193D01*
X149885Y38105D01*
X150157Y39123D01*
X150157Y40176D01*
X149885Y41193D01*
X149358Y42105D01*
X148614Y42850D01*
X147701Y43377D01*
X146684Y43649D01*
X146684Y43649D02*
G37*
G36*
X136684Y43649D02*
X135631Y43649D01*
X134614Y43377D01*
X133701Y42850D01*
X132957Y42105D01*
X132430Y41193D01*
X132158Y40176D01*
X132158Y39123D01*
X132430Y38105D01*
X132957Y37193D01*
X133701Y36448D01*
X134614Y35922D01*
X135631Y35649D01*
X136684Y35649D01*
X137701Y35922D01*
X138613Y36448D01*
X139358Y37193D01*
X139885Y38105D01*
X140157Y39123D01*
X140157Y40176D01*
X139885Y41193D01*
X139358Y42105D01*
X138613Y42850D01*
X137701Y43377D01*
X136684Y43649D01*
X136684Y43649D02*
G37*
G36*
X126684Y43649D02*
X125631Y43649D01*
X124613Y43377D01*
X123701Y42850D01*
X122957Y42105D01*
X122430Y41193D01*
X122158Y40176D01*
X122158Y39123D01*
X122430Y38105D01*
X122957Y37193D01*
X123701Y36448D01*
X124613Y35922D01*
X125631Y35649D01*
X126684Y35649D01*
X127701Y35922D01*
X128613Y36448D01*
X129358Y37193D01*
X129885Y38105D01*
X130157Y39123D01*
X130157Y40176D01*
X129885Y41193D01*
X129358Y42105D01*
X128613Y42850D01*
X127701Y43377D01*
X126684Y43649D01*
X126684Y43649D02*
G37*
G36*
X38917Y36742D02*
X37942Y36548D01*
X37115Y35995D01*
X36562Y35168D01*
X36554Y35126D01*
X35983Y35012D01*
X35156Y34460D01*
X34604Y33633D01*
X34410Y32658D01*
X34604Y31682D01*
X34662Y31595D01*
X34662Y24679D01*
X34856Y23704D01*
X35408Y22877D01*
X55983Y2302D01*
X56810Y1749D01*
X57785Y1555D01*
X297611Y1555D01*
X298587Y1749D01*
X299413Y2302D01*
X313535Y16423D01*
X314087Y17250D01*
X314281Y18225D01*
X314281Y32126D01*
X315288Y33116D01*
X347676Y33116D01*
X347956Y32879D01*
X347571Y31831D01*
X347420Y31698D01*
X323750Y31698D01*
X322775Y31504D01*
X321948Y30952D01*
X321395Y30125D01*
X321201Y29149D01*
X321395Y28174D01*
X321635Y27814D01*
X321375Y27425D01*
X321181Y26449D01*
X321375Y25474D01*
X321928Y24647D01*
X322755Y24094D01*
X323730Y23900D01*
X356457Y23900D01*
X356816Y23971D01*
X357180Y24005D01*
X357300Y24068D01*
X357433Y24094D01*
X357737Y24297D01*
X358060Y24467D01*
X364367Y29566D01*
X364394Y29588D01*
X364394Y29588D01*
X364394Y29588D01*
X365933Y30833D01*
X366570Y31597D01*
X366865Y32547D01*
X366775Y33537D01*
X366313Y34418D01*
X365549Y35054D01*
X364599Y35350D01*
X363609Y35260D01*
X363041Y34962D01*
X362545Y35293D01*
X361570Y35487D01*
X360202Y35487D01*
X359226Y35293D01*
X358399Y34740D01*
X355357Y31698D01*
X353105Y31698D01*
X352732Y32256D01*
X352732Y33042D01*
X352431Y33768D01*
X351876Y34323D01*
X351484Y34485D01*
X350242Y35727D01*
X349746Y36059D01*
X349161Y36175D01*
X304919Y36175D01*
X304334Y36059D01*
X303838Y35727D01*
X293744Y25633D01*
X292644Y25215D01*
X291919Y25516D01*
X291133Y25516D01*
X290407Y25215D01*
X289852Y24660D01*
X289551Y23934D01*
X289551Y23148D01*
X289852Y22423D01*
X290407Y21867D01*
X291133Y21567D01*
X291919Y21567D01*
X292644Y21867D01*
X292777Y22000D01*
X293431Y21994D01*
X293438Y21996D01*
X293445Y21994D01*
X293797Y21994D01*
X294382Y22111D01*
X294878Y22442D01*
X305024Y32588D01*
X305680Y32560D01*
X306742Y32146D01*
X306742Y20800D01*
X295421Y9478D01*
X68655Y9478D01*
X68351Y9919D01*
X68053Y10659D01*
X68274Y11192D01*
X68274Y11465D01*
X68406Y11693D01*
X69261Y12354D01*
X69418Y12419D01*
X69647Y12465D01*
X69714Y12465D01*
X69776Y12490D01*
X70101Y12555D01*
X70377Y12740D01*
X70439Y12765D01*
X70487Y12813D01*
X70763Y12997D01*
X70947Y13273D01*
X70995Y13321D01*
X71020Y13383D01*
X71205Y13659D01*
X71270Y13984D01*
X71295Y14046D01*
X71295Y14113D01*
X71360Y14439D01*
X71295Y14765D01*
X71295Y14832D01*
X71270Y14894D01*
X71205Y15219D01*
X71020Y15495D01*
X70995Y15557D01*
X70947Y15605D01*
X70763Y15881D01*
X52421Y34222D01*
X52340Y34418D01*
X51785Y34973D01*
X51059Y35274D01*
X50274Y35274D01*
X49548Y34973D01*
X48993Y34418D01*
X48692Y33692D01*
X48692Y33419D01*
X48529Y33136D01*
X48405Y32955D01*
X47749Y32549D01*
X47548Y32465D01*
X47319Y32419D01*
X47252Y32419D01*
X47190Y32394D01*
X46865Y32329D01*
X46588Y32144D01*
X46527Y32119D01*
X46479Y32071D01*
X46203Y31887D01*
X46018Y31611D01*
X45971Y31563D01*
X45945Y31501D01*
X45761Y31225D01*
X45696Y30900D01*
X45671Y30838D01*
X45671Y30770D01*
X45606Y30445D01*
X45671Y30119D01*
X45671Y30052D01*
X45696Y29990D01*
X45761Y29664D01*
X45945Y29388D01*
X45971Y29327D01*
X46018Y29279D01*
X46203Y29003D01*
X64545Y10661D01*
X64546Y10659D01*
X64248Y9919D01*
X63943Y9478D01*
X60033Y9478D01*
X42307Y27205D01*
X42307Y33353D01*
X42112Y34328D01*
X41560Y35155D01*
X40720Y35995D01*
X39893Y36548D01*
X38917Y36742D01*
X38917Y36742D02*
G37*
G36*
X241989Y21717D02*
X232115Y21717D01*
X232115Y11843D01*
X241989Y11843D01*
X241989Y21717D01*
X241989Y21717D02*
G37*
%LPD*%
G36*
X75354Y57493D02*
X75354Y56224D01*
X75470Y55639D01*
X75802Y55143D01*
X77780Y53164D01*
X77684Y53068D01*
X77383Y52342D01*
X77383Y51556D01*
X77684Y50831D01*
X78095Y50420D01*
X78071Y49629D01*
X77948Y49157D01*
X77405Y48961D01*
X68813Y57553D01*
X68813Y62491D01*
X69904Y62943D01*
X75354Y57493D01*
X75354Y57493D02*
G37*
D13*
X163625Y108031D02*
X277493Y108031D01*
X159356Y103763D02*
X163625Y108031D01*
X301617Y67349D02*
X306063Y71796D01*
X301491Y67349D02*
X301617Y67349D01*
X121502Y110049D02*
X278228Y110049D01*
X115628Y104176D02*
X121502Y110049D01*
X77153Y47049D02*
X79357Y47049D01*
X67283Y56920D02*
X77153Y47049D01*
X67283Y56920D02*
X67283Y82416D01*
X76883Y56224D02*
X79357Y53750D01*
X79357Y51949D02*
X79357Y53750D01*
X76883Y56224D02*
X76883Y58127D01*
X69283Y65727D02*
X76883Y58127D01*
X69283Y65727D02*
X69283Y81588D01*
X79357Y57249D02*
X79357Y58566D01*
X71283Y66640D02*
X79357Y58566D01*
X71283Y66640D02*
X71283Y80759D01*
X293797Y23524D02*
X304919Y34646D01*
X293445Y23524D02*
X293797Y23524D01*
X291526Y23541D02*
X293445Y23524D01*
X304919Y34646D02*
X349161Y34646D01*
X50666Y33093D02*
X50666Y33299D01*
X66299Y11585D02*
X66299Y11791D01*
X255611Y59324D02*
X259138Y55797D01*
X259138Y41500D02*
X259138Y55797D01*
X258917Y41280D02*
X259138Y41500D01*
X59857Y51949D02*
X66929Y51949D01*
X254782Y57324D02*
X256332Y55774D01*
X256332Y48692D02*
X256663Y48361D01*
X256332Y48692D02*
X256332Y55774D01*
X250669Y38465D02*
X250669Y39355D01*
X251383Y40069D01*
X251383Y52774D01*
X252833Y54224D02*
X253758Y54224D01*
X251383Y52774D02*
X252833Y54224D01*
X253857Y40905D02*
X253857Y51749D01*
X34926Y63601D02*
X34926Y80035D01*
X30020Y84941D02*
X34926Y80035D01*
X24454Y84941D02*
X30020Y84941D01*
X64957Y56749D02*
X77132Y44575D01*
X64957Y56749D02*
X64957Y79449D01*
X77132Y44575D02*
X80483Y44575D01*
X268003Y24684D02*
X272366Y25992D01*
X285536Y39162D01*
X278228Y110049D02*
X306063Y82215D01*
X306063Y71796D02*
X306063Y82215D01*
X303966Y72352D02*
X303966Y81558D01*
X277493Y108031D02*
X303966Y81558D01*
X280104Y103449D02*
X301491Y82062D01*
X202958Y103449D02*
X280104Y103449D01*
X302337Y70723D02*
X303966Y72352D01*
X301491Y73849D02*
X301491Y82062D01*
X301491Y70723D02*
X302337Y70723D01*
X231682Y86849D02*
X268957Y86849D01*
X206226Y61393D02*
X231682Y86849D01*
X95613Y61393D02*
X206226Y61393D01*
X230562Y88849D02*
X270729Y88849D01*
X205106Y63393D02*
X230562Y88849D01*
X96442Y63393D02*
X205106Y63393D01*
X229471Y90849D02*
X272717Y90849D01*
X204015Y65393D02*
X229471Y90849D01*
X97270Y65393D02*
X204015Y65393D01*
X228656Y92849D02*
X273788Y92849D01*
X203200Y67393D02*
X228656Y92849D01*
X98770Y67393D02*
X203200Y67393D01*
X227733Y94849D02*
X274967Y94849D01*
X202277Y69393D02*
X227733Y94849D01*
X99598Y69393D02*
X202277Y69393D01*
X226682Y96849D02*
X276451Y96849D01*
X201226Y71393D02*
X226682Y96849D01*
X100713Y71393D02*
X201226Y71393D01*
X225828Y98849D02*
X277473Y98849D01*
X200372Y73393D02*
X225828Y98849D01*
X101542Y73393D02*
X200372Y73393D01*
X349161Y34646D02*
X350758Y33049D01*
X18096Y84961D02*
X20798Y84961D01*
X23429Y82329D01*
X28241Y82329D01*
X28274Y82362D01*
X29459Y82362D01*
X32452Y79369D01*
X32452Y62576D02*
X32452Y79369D01*
X32452Y62576D02*
X35098Y59929D01*
X35098Y53514D02*
X35098Y59929D01*
X288587Y39585D02*
X288587Y40670D01*
X297782Y49865D01*
X297833Y49865D02*
X300940Y52971D01*
X297782Y49865D02*
X297833Y49865D01*
X300940Y52971D02*
X300940Y58138D01*
X276068Y86160D02*
X276068Y87498D01*
X272717Y90849D02*
X276068Y87498D01*
X278857Y87779D02*
X279109Y86239D01*
X273788Y92849D02*
X278857Y87779D01*
X282057Y87759D02*
X282308Y86130D01*
X274967Y94849D02*
X282057Y87759D01*
X285258Y88043D02*
X285428Y86111D01*
X276451Y96849D02*
X285258Y88043D01*
X288472Y86263D02*
X288472Y87850D01*
X277473Y98849D02*
X288472Y87850D01*
X272857Y86349D02*
X272857Y86721D01*
X270729Y88849D02*
X272857Y86721D01*
X96060Y57324D02*
X254782Y57324D01*
X95232Y59324D02*
X255611Y59324D01*
X313217Y62549D02*
X313391Y62723D01*
X253758Y54224D02*
X253758Y54849D01*
X66929Y51949D02*
X76303Y42575D01*
X81312Y42575D01*
X96060Y57324D01*
X80483Y44575D02*
X95232Y59324D01*
X79757Y77249D02*
X95613Y61393D01*
X82232Y77603D02*
X96442Y63393D01*
X84232Y78432D02*
X97270Y65393D01*
X82388Y83775D02*
X98770Y67393D01*
X83217Y85775D02*
X99598Y69393D01*
X84332Y87775D02*
X100713Y71393D01*
X85160Y89775D02*
X101542Y73393D01*
X34258Y84249D02*
X60158Y84249D01*
X64957Y79449D01*
X69283Y81588D02*
X75470Y87775D01*
X67283Y82416D02*
X74642Y89775D01*
X85160Y89775D01*
X82232Y77603D02*
X82232Y78274D01*
X81560Y81775D02*
X84232Y79103D01*
X84232Y78432D02*
X84232Y79103D01*
X80782Y79724D02*
X82232Y78274D01*
X77955Y81775D02*
X81560Y81775D01*
X77127Y83775D02*
X82388Y83775D01*
X76298Y85775D02*
X83217Y85775D01*
X75283Y73224D02*
X79558Y68950D01*
X79558Y67249D02*
X79558Y68950D01*
X73283Y70024D02*
X79357Y63950D01*
X75283Y73224D02*
X75283Y79103D01*
X73283Y70024D02*
X73283Y79931D01*
X75470Y87775D02*
X84332Y87775D01*
X71283Y80759D02*
X76298Y85775D01*
X73283Y79931D02*
X77127Y83775D01*
X75283Y79103D02*
X77955Y81775D01*
X77283Y76224D02*
X77283Y78274D01*
X78733Y79724D02*
X80782Y79724D01*
X77283Y78274D02*
X78733Y79724D01*
X79357Y62149D02*
X79357Y63950D01*
X77283Y76224D02*
X79757Y73750D01*
X79757Y72249D02*
X79757Y73750D01*
X268957Y86849D02*
X269858Y85949D01*
D97*
X72557Y93149D02*
X86777Y93149D01*
X209023Y86149D02*
X224065Y101191D01*
X93777Y86149D02*
X209023Y86149D01*
X86777Y93149D02*
X93777Y86149D01*
X326392Y70157D02*
X327990Y68559D01*
X327990Y56486D02*
X327990Y68559D01*
X50666Y33093D02*
X69321Y14439D01*
X47645Y30445D02*
X66299Y11791D01*
X297158Y65849D02*
X297158Y82665D01*
X278632Y101191D02*
X297158Y82665D01*
X224065Y101191D02*
X278632Y101191D01*
X267052Y16780D02*
X270093Y16780D01*
X297158Y65849D02*
X300458Y62549D01*
X270093Y16780D02*
X313217Y59904D01*
X313217Y62549D01*
X300458Y62549D02*
X313217Y62549D01*
D98*
X360202Y32938D02*
X361570Y32938D01*
X323750Y29149D02*
X356413Y29149D01*
X356457Y26449D02*
X362764Y31549D01*
X309291Y19744D02*
X309291Y32146D01*
X323730Y26449D02*
X356457Y26449D01*
X36959Y32658D02*
X37211Y32405D01*
X296476Y6929D02*
X309291Y19744D01*
X58978Y6929D02*
X296476Y6929D01*
X39757Y26149D02*
X58978Y6929D01*
X297611Y4104D02*
X311732Y18225D01*
X57785Y4104D02*
X297611Y4104D01*
X37211Y24679D02*
X57785Y4104D01*
X38917Y34193D02*
X39757Y33353D01*
X39757Y26149D02*
X39757Y33353D01*
X37211Y24679D02*
X37211Y32405D01*
X356413Y29149D02*
X360202Y32938D01*
X362764Y31549D02*
X362791Y31570D01*
X364331Y32815D01*
X311732Y18225D02*
X311732Y32126D01*
D103*
X38917Y34193D02*
D03*
X36959Y32658D02*
D03*
X66299Y11585D02*
D03*
X69321Y14439D02*
D03*
X50666Y33299D02*
D03*
X47645Y30445D02*
D03*
X327835Y56486D02*
D03*
X258917Y41280D02*
D03*
X361526Y33081D02*
D03*
X34926Y63601D02*
D03*
X24454Y84804D02*
D03*
X350758Y32649D02*
D03*
X250669Y38465D02*
D03*
X253907Y40905D02*
D03*
X268003Y24684D02*
D03*
X323750Y29041D02*
D03*
X323730Y26600D02*
D03*
X291526Y23541D02*
D03*
X18096Y84961D02*
D03*
X35098Y53514D02*
D03*
X288587Y39585D02*
D03*
X213602Y90905D02*
D03*
X61924Y51977D02*
D03*
X300940Y58138D02*
D03*
X276068Y86160D02*
D03*
X285428Y86111D02*
D03*
X288637Y86160D02*
D03*
X279109Y86239D02*
D03*
X282308Y86130D02*
D03*
X272957Y86049D02*
D03*
X269858Y85949D02*
D03*
X79757Y77249D02*
D03*
X79558Y67249D02*
D03*
X79757Y72249D02*
D03*
X79357Y57249D02*
D03*
X79357Y62149D02*
D03*
X79357Y47049D02*
D03*
X79357Y51949D02*
D03*
X253758Y54849D02*
D03*
X253857Y51749D02*
D03*
X256663Y48361D02*
D03*
X309291Y32146D02*
D03*
X311732Y32126D02*
D03*
X364331Y32815D02*
D03*
X72628Y93140D02*
D03*
X313391Y62723D02*
D03*
X34258Y84249D02*
D03*
X301491Y67523D02*
D03*
X301491Y70723D02*
D03*
X301491Y73823D02*
D03*
X285536Y39162D02*
D03*
D104*
X237052Y16780D02*
D03*
D105*
X247052Y16780D02*
D03*
X257052Y16780D02*
D03*
X267052Y16780D02*
D03*
D106*
X126157Y39649D02*
D03*
X136158Y39649D02*
D03*
X146158Y39649D02*
D03*
X156158Y39649D02*
D03*
X166157Y39649D02*
D03*
X176157Y39649D02*
D03*
X186158Y39649D02*
D03*
X196158Y39649D02*
D03*
X196158Y79649D02*
D03*
X186158Y79649D02*
D03*
X176157Y79649D02*
D03*
X166157Y79649D02*
D03*
X126157Y79649D02*
D03*
X136158Y79649D02*
D03*
X146158Y79649D02*
D03*
X156158Y79649D02*
D03*
X98028Y104176D02*
D03*
X115628Y104176D02*
D03*
X141756Y103763D02*
D03*
X159356Y103763D02*
D03*
X185357Y103449D02*
D03*
X202958Y103449D02*
D03*
D107*
X524493Y76219D02*
D03*
X408922Y31868D02*
D03*
X578657Y11860D02*
D03*
X578657Y106348D02*
D03*
X19602Y11860D02*
D03*
X19602Y106348D02*
D03*
D108*
X10858Y41649D02*
D03*
X10858Y75704D02*
D03*
D109*
X26605Y75704D02*
D03*
X26605Y41649D02*
D03*
D110*
X93028Y94676D02*
D03*
X120628Y94676D02*
D03*
X136756Y94263D02*
D03*
X164356Y94263D02*
D03*
X180358Y93949D02*
D03*
X207958Y93949D02*
D03*
D111*
X71526Y58937D02*
D03*
X73868Y55344D02*
D03*
X348642Y57736D02*
D03*
X319734Y81604D02*
D03*
X61998Y73730D02*
D03*
X50256Y73593D02*
D03*
X79285Y13300D02*
D03*
X83327Y13268D02*
D03*
X87313Y13268D02*
D03*
X91441Y13300D02*
D03*
X95348Y13359D02*
D03*
X99827Y13477D02*
D03*
X49935Y63288D02*
D03*
X52858Y38199D02*
D03*
X83127Y35674D02*
D03*
X89413Y35691D02*
D03*
X95913Y35546D02*
D03*
X264301Y79409D02*
D03*
X264321Y83819D02*
D03*
X333898Y45915D02*
D03*
X337825Y46028D02*
D03*
X401258Y21949D02*
D03*
X386631Y8040D02*
D03*
X379631Y8040D02*
D03*
X341453Y46956D02*
D03*
X341299Y52441D02*
D03*
X341492Y57576D02*
D03*
X204931Y13258D02*
D03*
X208973Y13226D02*
D03*
X212959Y13226D02*
D03*
X217087Y13258D02*
D03*
X220994Y13317D02*
D03*
X184518Y13130D02*
D03*
X188559Y13098D02*
D03*
X192545Y13098D02*
D03*
X196673Y13130D02*
D03*
X200581Y13189D02*
D03*
X163937Y13307D02*
D03*
X167979Y13275D02*
D03*
X171965Y13275D02*
D03*
X176093Y13307D02*
D03*
X180000Y13366D02*
D03*
X143081Y13347D02*
D03*
X147122Y13314D02*
D03*
X151109Y13314D02*
D03*
X155236Y13347D02*
D03*
X159144Y13406D02*
D03*
X138602Y13228D02*
D03*
X134695Y13169D02*
D03*
X130567Y13137D02*
D03*
X126581Y13137D02*
D03*
X122539Y13169D02*
D03*
X28851Y87633D02*
D03*
X28973Y97153D02*
D03*
X345138Y112923D02*
D03*
X338809Y113256D02*
D03*
X358524Y112539D02*
D03*
X351939Y112736D02*
D03*
X362923Y20315D02*
D03*
X362835Y26201D02*
D03*
X401441Y62327D02*
D03*
X401441Y75327D02*
D03*
X401441Y68727D02*
D03*
X414541Y83227D02*
D03*
X414541Y69827D02*
D03*
X414541Y76827D02*
D03*
X518676Y22691D02*
D03*
X518776Y43291D02*
D03*
X518676Y35691D02*
D03*
X518676Y29091D02*
D03*
X531776Y43591D02*
D03*
X531776Y30191D02*
D03*
X531776Y37191D02*
D03*
X531676Y22991D02*
D03*
X530831Y112372D02*
D03*
X475531Y112472D02*
D03*
X413031Y112372D02*
D03*
X364631Y112572D02*
D03*
X502731Y112372D02*
D03*
X516931Y112272D02*
D03*
X461331Y112272D02*
D03*
X398431Y112472D02*
D03*
X406031Y112372D02*
D03*
X291565Y47854D02*
D03*
X322921Y99154D02*
D03*
X322950Y113455D02*
D03*
X317575Y55775D02*
D03*
X321856Y52291D02*
D03*
X318175Y48570D02*
D03*
X313855Y41051D02*
D03*
X330020Y46024D02*
D03*
X341571Y40992D02*
D03*
X82910Y39909D02*
D03*
X249957Y76740D02*
D03*
X245679Y81565D02*
D03*
X239179Y81710D02*
D03*
X232894Y81693D02*
D03*
X309026Y78130D02*
D03*
X38825Y97232D02*
D03*
X28973Y92035D02*
D03*
X34110Y97232D02*
D03*
X55797Y73701D02*
D03*
X323767Y19685D02*
D03*
X319173Y14656D02*
D03*
X302933Y21929D02*
D03*
X296024Y21959D02*
D03*
X296132Y14636D02*
D03*
X359203Y7795D02*
D03*
X352921Y7746D02*
D03*
X347500Y7933D02*
D03*
X341307Y19203D02*
D03*
X330322Y113681D02*
D03*
X330450Y99075D02*
D03*
X322744Y106112D02*
D03*
X313366Y81496D02*
D03*
X310581Y52658D02*
D03*
X309449Y48986D02*
D03*
X278046Y72036D02*
D03*
X67067Y25738D02*
D03*
X61417Y64370D02*
D03*
X43612Y63238D02*
D03*
X305935Y47471D02*
D03*
X415507Y62813D02*
D03*
X415280Y42981D02*
D03*
X401294Y43217D02*
D03*
X401294Y49683D02*
D03*
X341132Y13543D02*
D03*
X341201Y8278D02*
D03*
X373322Y42498D02*
D03*
X373145Y31800D02*
D03*
X373204Y37105D02*
D03*
X373381Y48296D02*
D03*
X373440Y53748D02*
D03*
X373715Y64182D02*
D03*
X373804Y70156D02*
D03*
X373804Y76731D02*
D03*
X373686Y82853D02*
D03*
X270758Y72049D02*
D03*
X284958Y71949D02*
D03*
X270357Y53849D02*
D03*
X277568Y53849D02*
D03*
X284631Y53965D02*
D03*
X531658Y57949D02*
D03*
X531658Y50949D02*
D03*
X531757Y85549D02*
D03*
X531658Y64349D02*
D03*
X525404Y99016D02*
D03*
X531658Y92449D02*
D03*
X518558Y84549D02*
D03*
X518657Y98749D02*
D03*
X518657Y91749D02*
D03*
X518558Y49849D02*
D03*
X518558Y56449D02*
D03*
X518657Y64049D02*
D03*
X415202Y49703D02*
D03*
X415221Y56071D02*
D03*
X414458Y91749D02*
D03*
X401358Y83849D02*
D03*
X401458Y98049D02*
D03*
X401458Y91049D02*
D03*
X414558Y22249D02*
D03*
X401358Y55749D02*
D03*
X460358Y23349D02*
D03*
X460358Y29949D02*
D03*
X460458Y44149D02*
D03*
X460458Y37149D02*
D03*
X460558Y64749D02*
D03*
X460558Y71749D02*
D03*
X460458Y57149D02*
D03*
X460458Y50549D02*
D03*
X473658Y30649D02*
D03*
X473658Y23649D02*
D03*
X460558Y92449D02*
D03*
X460558Y99449D02*
D03*
X460458Y85249D02*
D03*
X460458Y78649D02*
D03*
X473558Y93149D02*
D03*
X466988Y99459D02*
D03*
X473558Y65049D02*
D03*
X473558Y71649D02*
D03*
X473658Y86249D02*
D03*
X473658Y79249D02*
D03*
X473558Y51649D02*
D03*
X473558Y58649D02*
D03*
X473457Y44449D02*
D03*
X473457Y37849D02*
D03*
X365831Y8140D02*
D03*
X372431Y8140D02*
D03*
X407231Y7940D02*
D03*
X414231Y7940D02*
D03*
X399631Y8040D02*
D03*
X393031Y8040D02*
D03*
X448331Y7940D02*
D03*
X454931Y7940D02*
D03*
X469531Y7840D02*
D03*
X462531Y7840D02*
D03*
X434931Y7940D02*
D03*
X441931Y7940D02*
D03*
X427731Y8040D02*
D03*
X421131Y8040D02*
D03*
X532031Y7940D02*
D03*
X538631Y7940D02*
D03*
X552831Y7840D02*
D03*
X545831Y7840D02*
D03*
X565831Y7840D02*
D03*
X559231Y7840D02*
D03*
X503931Y7940D02*
D03*
X510531Y7940D02*
D03*
X525131Y7840D02*
D03*
X518131Y7840D02*
D03*
X490531Y7940D02*
D03*
X497531Y7940D02*
D03*
X483331Y8040D02*
D03*
X476731Y8040D02*
D03*
X482131Y112472D02*
D03*
X496331Y112372D02*
D03*
X489331Y112372D02*
D03*
X523931Y112272D02*
D03*
X509331Y112372D02*
D03*
X558031Y112272D02*
D03*
X564631Y112272D02*
D03*
X544631Y112272D02*
D03*
X551631Y112272D02*
D03*
X537431Y112372D02*
D03*
X419931Y112472D02*
D03*
X426531Y112472D02*
D03*
X440731Y112372D02*
D03*
X433731Y112372D02*
D03*
X468331Y112272D02*
D03*
X453731Y112372D02*
D03*
X447131Y112372D02*
D03*
X391831Y112472D02*
D03*
X378431Y112472D02*
D03*
X385431Y112472D02*
D03*
X371231Y112572D02*
D03*
D112*
X325575Y70531D02*
D03*
X237575Y70531D02*
D03*
M02*
