G04*
G04 #@! TF.GenerationSoftware,Altium Limited,CircuitMaker,2.3.0 (2.3.0.3)*
G04*
G04 Layer_Color=7318015*
%FSLAX24Y24*%
%MOIN*%
G70*
G04*
G04 #@! TF.SameCoordinates,AA7B8D70-0D3E-4CF3-8BE1-7DC49EC747D3*
G04*
G04*
G04 #@! TF.FilePolarity,Positive*
G04*
G01*
G75*
%ADD11C,0.0039*%
%ADD13C,0.0100*%
%ADD14C,0.0050*%
%ADD15C,0.0079*%
%ADD16C,0.0059*%
%ADD18C,0.0472*%
%ADD19C,0.0020*%
%ADD20C,0.0433*%
%ADD21R,0.0220X0.0220*%
%ADD22R,0.0283X0.0299*%
%ADD23O,0.0236X0.0669*%
%ADD24R,0.0256X0.0236*%
%ADD25O,0.0236X0.0768*%
%ADD26R,0.0236X0.0276*%
%ADD27R,0.0492X0.0118*%
%ADD28R,0.0197X0.0177*%
%ADD29R,0.0492X0.0610*%
%ADD30R,0.0492X0.0197*%
%ADD31O,0.0768X0.0236*%
%ADD32R,0.0236X0.0276*%
%ADD33R,0.0197X0.0236*%
%ADD34R,0.0236X0.0197*%
%ADD35O,0.0866X0.0236*%
%ADD36R,0.0984X0.0787*%
%ADD37R,0.0394X0.0394*%
%ADD38R,0.0709X0.0650*%
%ADD39R,0.0217X0.0197*%
%ADD40R,0.0256X0.0256*%
%ADD41R,0.0177X0.0177*%
%ADD42R,0.0610X0.0354*%
%ADD43R,0.0374X0.0354*%
%ADD44R,0.0669X0.0512*%
%ADD45R,0.0650X0.0709*%
%ADD46R,0.0299X0.0283*%
%ADD47R,0.2953X0.0866*%
%ADD48P,0.0600X4X270.0*%
%ADD49R,0.0600X0.0600*%
%ADD50P,0.0600X4X360.0*%
%ADD51R,0.0600X0.0600*%
%ADD52C,0.0098*%
G04:AMPARAMS|DCode=53|XSize=23.6mil|YSize=29.5mil|CornerRadius=4.7mil|HoleSize=0mil|Usage=FLASHONLY|Rotation=90.000|XOffset=0mil|YOffset=0mil|HoleType=Round|Shape=RoundedRectangle|*
%AMROUNDEDRECTD53*
21,1,0.0236,0.0201,0,0,90.0*
21,1,0.0142,0.0295,0,0,90.0*
1,1,0.0094,0.0100,0.0071*
1,1,0.0094,0.0100,-0.0071*
1,1,0.0094,-0.0100,-0.0071*
1,1,0.0094,-0.0100,0.0071*
%
%ADD53ROUNDEDRECTD53*%
%ADD54R,0.0500X0.0500*%
%ADD55R,0.0551X0.0394*%
%ADD56R,0.0492X0.0236*%
G36*
X28840Y7335D02*
Y5213D01*
X26722D01*
X26711Y5203D01*
X26700Y5213D01*
Y7335D01*
X28843Y7338D01*
X28840Y7335D01*
D02*
G37*
G36*
X36190Y4471D02*
X34601D01*
Y5228D01*
X36190D01*
Y4471D01*
D02*
G37*
D11*
X4197Y3888D02*
X7544D01*
Y542D02*
Y3888D01*
X4197Y542D02*
X7544D01*
X4197D02*
Y3888D01*
X34911Y4383D02*
G03*
X34911Y4383I-197J0D01*
G01*
X28980Y5249D02*
G03*
X28980Y5249I-197J0D01*
G01*
X22981Y4244D02*
G03*
X22981Y4244I-197J0D01*
G01*
X9686Y7586D02*
G03*
X9686Y7586I-197J0D01*
G01*
X4434Y7248D02*
X4651D01*
X4434Y7661D02*
X4651D01*
X4434Y7248D02*
Y7661D01*
X4651Y7248D02*
Y7661D01*
X36329Y4029D02*
Y5608D01*
X34360Y4029D02*
Y5608D01*
X36329D01*
X34360Y4029D02*
X36329D01*
X19736Y6027D02*
Y6243D01*
X20150Y6027D02*
Y6243D01*
X19736D02*
X20150D01*
X19736Y6027D02*
X20150D01*
X5747Y5628D02*
Y6199D01*
X6613Y5628D02*
Y6199D01*
X5747D02*
X6613D01*
X5747Y5628D02*
X6613D01*
X14065Y2633D02*
Y3499D01*
X14596Y2633D02*
Y3499D01*
X14065D02*
X14596D01*
X14065Y2633D02*
X14596D01*
X27237Y1147D02*
Y2210D01*
X23174D02*
X27237D01*
X23174Y1147D02*
Y2210D01*
Y1147D02*
X27237D01*
X29137Y4894D02*
Y7650D01*
X26381Y4894D02*
Y7650D01*
Y4894D02*
X29137D01*
X26381Y7650D02*
X29137D01*
X1367Y7947D02*
X1780D01*
X1367Y8163D02*
X1780D01*
Y7947D02*
Y8163D01*
X1367Y7947D02*
Y8163D01*
X2469Y8163D02*
X2882D01*
X2469Y7947D02*
X2882D01*
X2469D02*
Y8163D01*
X2882Y7947D02*
Y8163D01*
X19759Y5027D02*
X20172D01*
X19759Y5243D02*
X20172D01*
Y5027D02*
Y5243D01*
X19759Y5027D02*
Y5243D01*
X20219Y4012D02*
X20632D01*
X20219Y4228D02*
X20632D01*
Y4012D02*
Y4228D01*
X20219Y4012D02*
Y4228D01*
X18264Y2781D02*
Y3194D01*
X18047Y2781D02*
Y3194D01*
X18264D01*
X18047Y2781D02*
X18264D01*
X16125Y2794D02*
Y3208D01*
X15908Y2794D02*
Y3208D01*
X16125D01*
X15908Y2794D02*
X16125D01*
X13390Y2772D02*
Y3185D01*
X13173Y2772D02*
Y3185D01*
X13390D01*
X13173Y2772D02*
X13390D01*
X11246Y2739D02*
Y3153D01*
X11029Y2739D02*
Y3153D01*
X11246D01*
X11029Y2739D02*
X11246D01*
X18952Y2630D02*
X19483D01*
X18952Y3496D02*
X19483D01*
Y2630D02*
Y3496D01*
X18952Y2630D02*
Y3496D01*
X16828Y2627D02*
X17359D01*
X16828Y3493D02*
X17359D01*
Y2627D02*
Y3493D01*
X16828Y2627D02*
Y3493D01*
X11963Y2629D02*
X12494D01*
X11963Y3495D02*
X12494D01*
Y2629D02*
Y3495D01*
X11963Y2629D02*
Y3495D01*
X11697Y5353D02*
X12111D01*
X11697Y5137D02*
X12111D01*
X11697D02*
Y5353D01*
X12111Y5137D02*
Y5353D01*
X11702Y4829D02*
X12116D01*
X11702Y4612D02*
X12116D01*
X11702D02*
Y4829D01*
X12116Y4612D02*
Y4829D01*
X21563Y7827D02*
X23138D01*
X21563Y3890D02*
X23138D01*
X21563D02*
Y7827D01*
X23138Y3890D02*
Y7827D01*
X9134Y4004D02*
X10709D01*
X9134Y7941D02*
X10709D01*
Y4004D02*
Y7941D01*
X9134Y4004D02*
Y7941D01*
X29492Y2718D02*
Y3131D01*
X29709Y2718D02*
Y3131D01*
X29492Y2718D02*
X29709D01*
X29492Y3131D02*
X29709D01*
X30104Y3289D02*
X30497D01*
X30104Y2580D02*
X30497D01*
Y3289D01*
X30104Y2580D02*
Y3289D01*
X31767Y2352D02*
X31984D01*
X31767Y1938D02*
X31984D01*
Y2352D01*
X31767Y1938D02*
Y2352D01*
X30821Y1456D02*
Y2794D01*
X31530Y1456D02*
Y2794D01*
X30821Y1456D02*
X31530D01*
X30821Y2794D02*
X31530D01*
X33612Y1857D02*
Y2093D01*
X33179Y1857D02*
Y2093D01*
Y1857D02*
X33612D01*
X33179Y2093D02*
X33612D01*
X36767Y2452D02*
X37200D01*
X36767Y2688D02*
X37200D01*
Y2452D02*
Y2688D01*
X36767Y2452D02*
Y2688D01*
X33437Y2388D02*
X33654D01*
X33437Y2802D02*
X33654D01*
X33437Y2388D02*
Y2802D01*
X33654Y2388D02*
Y2802D01*
X33909Y2737D02*
Y2953D01*
X34322Y2737D02*
Y2953D01*
X33909D02*
X34322D01*
X33909Y2737D02*
X34322D01*
X34545Y1311D02*
X35195D01*
X34545Y2591D02*
X35195D01*
X34545Y1311D02*
Y2591D01*
X35195Y1311D02*
Y2591D01*
X35467Y2687D02*
X35684D01*
X35467Y3101D02*
X35684D01*
X35467Y2687D02*
Y3101D01*
X35684Y2687D02*
Y3101D01*
X32866Y10969D02*
X34205D01*
X32866Y10261D02*
X34205D01*
X32866D02*
Y10969D01*
X34205Y10261D02*
Y10969D01*
X36784Y5712D02*
X37218D01*
X36784Y5948D02*
X37218D01*
Y5712D02*
Y5948D01*
X36784Y5712D02*
Y5948D01*
X36739Y8617D02*
X37172D01*
X36739Y8853D02*
X37172D01*
Y8617D02*
Y8853D01*
X36739Y8617D02*
Y8853D01*
X42654Y8652D02*
X43088D01*
X42654Y8888D02*
X43088D01*
Y8652D02*
Y8888D01*
X42654Y8652D02*
Y8888D01*
X42632Y2426D02*
X43065D01*
X42632Y2662D02*
X43065D01*
Y2426D02*
Y2662D01*
X42632Y2426D02*
Y2662D01*
X42637Y5557D02*
Y5793D01*
X43070Y5557D02*
Y5793D01*
X42637D02*
X43070D01*
X42637Y5557D02*
X43070D01*
X48474Y5642D02*
X48907D01*
X48474Y5878D02*
X48907D01*
Y5642D02*
Y5878D01*
X48474Y5642D02*
Y5878D01*
X48512Y8837D02*
X48945D01*
X48512Y9073D02*
X48945D01*
Y8837D02*
Y9073D01*
X48512Y8837D02*
Y9073D01*
X48389Y2457D02*
X48822D01*
X48389Y2693D02*
X48822D01*
Y2457D02*
Y2693D01*
X48389Y2457D02*
Y2693D01*
X54779Y2567D02*
Y2803D01*
X55212Y2567D02*
Y2803D01*
X54779D02*
X55212D01*
X54779Y2567D02*
X55212D01*
X54737Y5697D02*
Y5933D01*
X55170Y5697D02*
Y5933D01*
X54737D02*
X55170D01*
X54737Y5697D02*
X55170D01*
X54677Y8847D02*
X55110D01*
X54677Y9083D02*
X55110D01*
Y8847D02*
Y9083D01*
X54677Y8847D02*
Y9083D01*
X34106Y9815D02*
Y10032D01*
X33692Y9815D02*
Y10032D01*
Y9815D02*
X34106D01*
X33692Y10032D02*
X34106D01*
X25957Y9192D02*
X26174D01*
X25957Y8778D02*
X26174D01*
Y9192D01*
X25957Y8778D02*
Y9192D01*
X12138Y6605D02*
Y6822D01*
X11725Y6605D02*
Y6822D01*
Y6605D02*
X12138D01*
X11725Y6822D02*
X12138D01*
X12147Y7105D02*
Y7322D01*
X11734Y7105D02*
Y7322D01*
Y7105D02*
X12147D01*
X11734Y7322D02*
X12147D01*
X12125Y5607D02*
Y5823D01*
X11711Y5607D02*
Y5823D01*
Y5607D02*
X12125D01*
X11711Y5823D02*
X12125D01*
X12127Y6094D02*
Y6311D01*
X11714Y6094D02*
Y6311D01*
Y6094D02*
X12127D01*
X11714Y6311D02*
X12127D01*
X12063Y7625D02*
Y7842D01*
X11649Y7625D02*
Y7842D01*
Y7625D02*
X12063D01*
X11649Y7842D02*
X12063D01*
X30759Y5086D02*
Y5417D01*
X30153Y5086D02*
Y5417D01*
Y5086D02*
X30759D01*
X30153Y5417D02*
X30759D01*
X19749Y6517D02*
Y6733D01*
X20162Y6517D02*
Y6733D01*
X19749D02*
X20162D01*
X19749Y6517D02*
X20162D01*
X19747Y5557D02*
Y5773D01*
X20160Y5557D02*
Y5773D01*
X19747D02*
X20160D01*
X19747Y5557D02*
X20160D01*
X5904Y5057D02*
Y5293D01*
X5471Y5057D02*
Y5293D01*
Y5057D02*
X5904D01*
X5471Y5293D02*
X5904D01*
X3777Y8831D02*
X3994D01*
X3777Y9245D02*
X3994D01*
X3777Y8831D02*
Y9245D01*
X3994Y8831D02*
Y9245D01*
X30562Y6361D02*
X30976D01*
X30562Y6144D02*
X30976D01*
X30562D02*
Y6361D01*
X30976Y6144D02*
Y6361D01*
X3778Y8058D02*
Y8472D01*
X3994Y8058D02*
Y8472D01*
X3778Y8058D02*
X3994D01*
X3778Y8472D02*
X3994D01*
X19761Y7040D02*
Y7257D01*
X20174Y7040D02*
Y7257D01*
X19761D02*
X20174D01*
X19761Y7040D02*
X20174D01*
X30747Y6696D02*
Y7109D01*
X30531Y6696D02*
Y7109D01*
X30747D01*
X30531Y6696D02*
X30747D01*
X6542Y7820D02*
Y8233D01*
X6326Y7820D02*
Y8233D01*
X6542D01*
X6326Y7820D02*
X6542D01*
X3287Y8828D02*
X3504D01*
X3287Y9242D02*
X3504D01*
X3287Y8828D02*
Y9242D01*
X3504Y8828D02*
Y9242D01*
X31122Y6784D02*
X31516D01*
X31122Y7492D02*
X31516D01*
X31122Y6784D02*
Y7492D01*
X31516Y6784D02*
Y7492D01*
X19779Y4642D02*
Y4858D01*
X20192Y4642D02*
Y4858D01*
X19779D02*
X20192D01*
X19779Y4642D02*
X20192D01*
X25634Y8779D02*
Y9193D01*
X25417Y8779D02*
Y9193D01*
X25634D01*
X25417Y8779D02*
X25634D01*
X30561Y5694D02*
X30975D01*
X30561Y5911D02*
X30975D01*
Y5694D02*
Y5911D01*
X30561Y5694D02*
Y5911D01*
X4569Y4090D02*
X5632D01*
X4569Y4760D02*
X5632D01*
Y4090D02*
Y4760D01*
X4569Y4090D02*
Y4760D01*
X4542Y7346D02*
Y7563D01*
X4434Y7455D02*
X4651D01*
X35147Y4818D02*
X35541D01*
X35344Y4621D02*
Y5015D01*
X19835Y6135D02*
X20051D01*
X19943Y6027D02*
Y6243D01*
X5983Y5913D02*
X6377D01*
X6180Y5717D02*
Y6110D01*
X14134Y3066D02*
X14528D01*
X14331Y2869D02*
Y3263D01*
X23154Y1127D02*
X27249D01*
Y2229D01*
X23154D02*
X27249D01*
X23154Y1127D02*
Y2229D01*
X27562Y6272D02*
X27956D01*
X27759Y6075D02*
Y6469D01*
X1573Y7947D02*
Y8163D01*
X1465Y8055D02*
X1681D01*
X2676Y7947D02*
Y8163D01*
X2567Y8055D02*
X2784D01*
X19965Y5027D02*
Y5243D01*
X19857Y5135D02*
X20074D01*
X20426Y4012D02*
Y4228D01*
X20317Y4120D02*
X20534D01*
X18047Y2987D02*
X18264D01*
X18155Y2879D02*
Y3095D01*
X15908Y3001D02*
X16125D01*
X16017Y2893D02*
Y3109D01*
X13173Y2978D02*
X13390D01*
X13281Y2870D02*
Y3087D01*
X11029Y2946D02*
X11246D01*
X11138Y2838D02*
Y3054D01*
X19218Y2866D02*
Y3260D01*
X19021Y3063D02*
X19414D01*
X17093Y2863D02*
Y3257D01*
X16897Y3060D02*
X17290D01*
X12228Y2865D02*
Y3259D01*
X12032Y3062D02*
X12425D01*
X11904Y5137D02*
Y5353D01*
X11796Y5245D02*
X12012D01*
X11909Y4612D02*
Y4829D01*
X11801Y4720D02*
X12017D01*
X22351Y5661D02*
Y6055D01*
X22154Y5858D02*
X22548D01*
X20874Y7925D02*
X23827D01*
X20874Y3791D02*
X23827D01*
X20874D02*
Y7925D01*
X23827Y3791D02*
Y7925D01*
X9922Y5775D02*
Y6169D01*
X9725Y5972D02*
X10119D01*
X8445Y3905D02*
X11398D01*
X8445Y8039D02*
X11398D01*
Y3905D02*
Y8039D01*
X8445Y3905D02*
Y8039D01*
X29492Y2925D02*
X29709D01*
X29600Y2816D02*
Y3033D01*
X30300Y2738D02*
Y3131D01*
X30104Y2935D02*
X30497D01*
X31876Y2037D02*
Y2253D01*
X31767Y2145D02*
X31984D01*
X30979Y2125D02*
X31373D01*
X31176Y1928D02*
Y2322D01*
X33278Y1975D02*
X33514D01*
X33396Y1857D02*
Y2093D01*
X36983Y2452D02*
Y2688D01*
X36865Y2570D02*
X37101D01*
X33546Y2487D02*
Y2703D01*
X33437Y2595D02*
X33654D01*
X34007Y2845D02*
X34224D01*
X34116Y2737D02*
Y2953D01*
X34870Y1754D02*
Y2148D01*
X34673Y1951D02*
X35067D01*
X35576Y2786D02*
Y3002D01*
X35467Y2894D02*
X35684D01*
X33189Y4745D02*
X33583D01*
X33386Y4548D02*
Y4942D01*
X33536Y10418D02*
Y10812D01*
X33339Y10615D02*
X33733D01*
X37001Y5712D02*
Y5948D01*
X36883Y5830D02*
X37119D01*
X36956Y8617D02*
Y8853D01*
X36838Y8735D02*
X37074D01*
X42871Y8652D02*
Y8888D01*
X42753Y8770D02*
X42989D01*
X42849Y2426D02*
Y2662D01*
X42731Y2544D02*
X42967D01*
X42735Y5675D02*
X42972D01*
X42853Y5557D02*
Y5793D01*
X48690Y5642D02*
Y5878D01*
X48572Y5760D02*
X48809D01*
X48728Y8837D02*
Y9073D01*
X48610Y8955D02*
X48846D01*
X48606Y2457D02*
Y2693D01*
X48488Y2575D02*
X48724D01*
X54878Y2685D02*
X55114D01*
X54996Y2567D02*
Y2803D01*
X54835Y5815D02*
X55072D01*
X54953Y5697D02*
Y5933D01*
X54893Y8847D02*
Y9083D01*
X54775Y8965D02*
X55012D01*
X33791Y9923D02*
X34007D01*
X33899Y9815D02*
Y10032D01*
X34509Y7905D02*
X34903D01*
X34706Y7708D02*
Y8102D01*
X26066Y8877D02*
Y9093D01*
X25957Y8985D02*
X26174D01*
X11823Y6713D02*
X12040D01*
X11932Y6605D02*
Y6822D01*
X11832Y7213D02*
X12049D01*
X11940Y7105D02*
Y7322D01*
X11810Y5715D02*
X12026D01*
X11918Y5607D02*
Y5823D01*
X11812Y6203D02*
X12029D01*
X11921Y6094D02*
Y6311D01*
X11748Y7734D02*
X11964D01*
X11856Y7625D02*
Y7842D01*
X30259Y5252D02*
X30653D01*
X30456Y5055D02*
Y5448D01*
X19847Y6625D02*
X20063D01*
X19955Y6517D02*
Y6733D01*
X19845Y5665D02*
X20062D01*
X19953Y5557D02*
Y5773D01*
X5570Y5175D02*
X5806D01*
X5688Y5057D02*
Y5293D01*
X3886Y8930D02*
Y9146D01*
X3777Y9038D02*
X3994D01*
X30769Y6144D02*
Y6361D01*
X30661Y6252D02*
X30877D01*
X3778Y8265D02*
X3994D01*
X3886Y8157D02*
Y8373D01*
X19859Y7149D02*
X20076D01*
X19968Y7040D02*
Y7257D01*
X30531Y6902D02*
X30747D01*
X30639Y6794D02*
Y7011D01*
X6326Y8027D02*
X6542D01*
X6434Y7918D02*
Y8135D01*
X3396Y8927D02*
Y9143D01*
X3287Y9035D02*
X3504D01*
X31319Y6941D02*
Y7335D01*
X31122Y7138D02*
X31516D01*
X19877Y4750D02*
X20094D01*
X19985Y4642D02*
Y4858D01*
X25417Y8986D02*
X25634D01*
X25526Y8878D02*
Y9094D01*
X30768Y5694D02*
Y5911D01*
X30660Y5802D02*
X30876D01*
X5100Y4228D02*
Y4622D01*
X4904Y4425D02*
X5297D01*
D13*
X22646Y2329D02*
X33669D01*
X22646D02*
Y11778D01*
X33669Y2329D02*
Y11778D01*
X22646D02*
X33669D01*
D14*
X33131Y6330D02*
Y9480D01*
X36281Y6330D02*
Y9480D01*
X33131Y6330D02*
X36281D01*
X33131Y9480D02*
X36281D01*
X33033Y6192D02*
X36379D01*
X33033Y9618D02*
X36379D01*
X33033Y6192D02*
Y9618D01*
X36379Y6192D02*
Y9618D01*
D15*
X32772Y3695D02*
X34000D01*
Y5795D01*
X32772D02*
X34000D01*
X32772Y3695D02*
Y5795D01*
D16*
X30576Y2385D02*
Y3485D01*
X30025Y2385D02*
X30576D01*
X30025D02*
Y3485D01*
X30576D01*
X31044Y6588D02*
Y7688D01*
X31595D01*
Y6588D02*
Y7688D01*
X31044Y6588D02*
X31595D01*
D18*
X59066Y5D02*
Y11825D01*
X16Y5D02*
X59066D01*
X16Y11825D02*
X59066D01*
X16Y5D02*
Y11825D01*
D19*
X4306Y7022D02*
X4779D01*
X4306Y7888D02*
X4779D01*
X4306Y7022D02*
Y7888D01*
X4779Y7022D02*
Y7888D01*
X36388Y3480D02*
Y6157D01*
X34301Y3480D02*
Y6157D01*
X36388D01*
X34301Y3480D02*
X36388D01*
X19648Y5977D02*
Y6292D01*
X20238Y5977D02*
Y6292D01*
X19648D02*
X20238D01*
X19648Y5977D02*
X20238D01*
X5334Y5402D02*
Y6425D01*
X7027Y5402D02*
Y6425D01*
X5334D02*
X7027D01*
X5334Y5402D02*
X7027D01*
X13465Y2436D02*
Y3696D01*
X15197Y2436D02*
Y3696D01*
X13465D02*
X15197D01*
X13465Y2436D02*
X15197D01*
X30003Y4028D02*
Y8516D01*
X25515Y4028D02*
Y8516D01*
Y4028D02*
X30003D01*
X25515Y8516D02*
X30003D01*
X1160Y7838D02*
X1987D01*
X1160Y8271D02*
X1987D01*
Y7838D02*
Y8271D01*
X1160Y7838D02*
Y8271D01*
X2262Y8271D02*
X3089D01*
X2262Y7838D02*
X3089D01*
X2262D02*
Y8271D01*
X3089Y7838D02*
Y8271D01*
X19623Y4958D02*
X20307D01*
X19623Y5312D02*
X20307D01*
Y4958D02*
Y5312D01*
X19623Y4958D02*
Y5312D01*
X20084Y3943D02*
X20768D01*
X20084Y4297D02*
X20768D01*
Y3943D02*
Y4297D01*
X20084Y3943D02*
Y4297D01*
X18333Y2645D02*
Y3329D01*
X17978Y2645D02*
Y3329D01*
X18333D01*
X17978Y2645D02*
X18333D01*
X16194Y2659D02*
Y3343D01*
X15840Y2659D02*
Y3343D01*
X16194D01*
X15840Y2659D02*
X16194D01*
X13459Y2637D02*
Y3320D01*
X13104Y2637D02*
Y3320D01*
X13459D01*
X13104Y2637D02*
X13459D01*
X11315Y2604D02*
Y3288D01*
X10961Y2604D02*
Y3288D01*
X11315D01*
X10961Y2604D02*
X11315D01*
X18351Y2433D02*
X20084D01*
X18351Y3693D02*
X20084D01*
Y2433D02*
Y3693D01*
X18351Y2433D02*
Y3693D01*
X16227Y2430D02*
X17960D01*
X16227Y3690D02*
X17960D01*
Y2430D02*
Y3690D01*
X16227Y2430D02*
Y3690D01*
X11362Y2432D02*
X13094D01*
X11362Y3692D02*
X13094D01*
Y2432D02*
Y3692D01*
X11362Y2432D02*
Y3692D01*
X11562Y5422D02*
X12246D01*
X11562Y5068D02*
X12246D01*
X11562D02*
Y5422D01*
X12246Y5068D02*
Y5422D01*
X11567Y4897D02*
X12251D01*
X11567Y4543D02*
X12251D01*
X11567D02*
Y4897D01*
X12251Y4543D02*
Y4897D01*
X31201Y4113D02*
X31595D01*
X31398Y3916D02*
Y4310D01*
X32776Y3444D02*
Y4782D01*
X30020D02*
X32776D01*
X30020Y3444D02*
Y4782D01*
Y3444D02*
X32776D01*
X29364Y2492D02*
Y3358D01*
X29837Y2492D02*
Y3358D01*
X29364Y2492D02*
X29837D01*
X29364Y3358D02*
X29837D01*
X29887Y3604D02*
X30714D01*
X29887Y2265D02*
X30714D01*
Y3604D01*
X29887Y2265D02*
Y3604D01*
X31640Y2578D02*
X32112D01*
X31640Y1712D02*
X32112D01*
Y2578D01*
X31640Y1712D02*
Y2578D01*
X30723Y1219D02*
Y3030D01*
X31628Y1219D02*
Y3030D01*
X30723Y1219D02*
X31628D01*
X30723Y3030D02*
X31628D01*
X33750Y1798D02*
Y2152D01*
X33041Y1798D02*
Y2152D01*
Y1798D02*
X33750D01*
X33041Y2152D02*
X33750D01*
X36688Y2412D02*
X37279D01*
X36688Y2727D02*
X37279D01*
Y2412D02*
Y2727D01*
X36688Y2412D02*
Y2727D01*
X33329Y2182D02*
X33762D01*
X33329Y3008D02*
X33762D01*
X33329Y2182D02*
Y3008D01*
X33762Y2182D02*
Y3008D01*
X33820Y2687D02*
Y3002D01*
X34411Y2687D02*
Y3002D01*
X33820D02*
X34411D01*
X33820Y2687D02*
X34411D01*
X34496Y1203D02*
X35244D01*
X34496Y2699D02*
X35244D01*
X34496Y1203D02*
Y2699D01*
X35244Y1203D02*
Y2699D01*
X35340Y2461D02*
X35812D01*
X35340Y3327D02*
X35812D01*
X35340Y2461D02*
Y3327D01*
X35812Y2461D02*
Y3327D01*
X32630Y11068D02*
X34441D01*
X32630Y10162D02*
X34441D01*
X32630D02*
Y11068D01*
X34441Y10162D02*
Y11068D01*
X36706Y5672D02*
X37296D01*
X36706Y5987D02*
X37296D01*
Y5672D02*
Y5987D01*
X36706Y5672D02*
Y5987D01*
X36660Y8577D02*
X37251D01*
X36660Y8892D02*
X37251D01*
Y8577D02*
Y8892D01*
X36660Y8577D02*
Y8892D01*
X42576Y8612D02*
X43166D01*
X42576Y8927D02*
X43166D01*
Y8612D02*
Y8927D01*
X42576Y8612D02*
Y8927D01*
X42553Y2387D02*
X43144D01*
X42553Y2702D02*
X43144D01*
Y2387D02*
Y2702D01*
X42553Y2387D02*
Y2702D01*
X42558Y5517D02*
Y5832D01*
X43149Y5517D02*
Y5832D01*
X42558D02*
X43149D01*
X42558Y5517D02*
X43149D01*
X48395Y5602D02*
X48986D01*
X48395Y5917D02*
X48986D01*
Y5602D02*
Y5917D01*
X48395Y5602D02*
Y5917D01*
X48433Y8797D02*
X49023D01*
X48433Y9112D02*
X49023D01*
Y8797D02*
Y9112D01*
X48433Y8797D02*
Y9112D01*
X48310Y2417D02*
X48901D01*
X48310Y2732D02*
X48901D01*
Y2417D02*
Y2732D01*
X48310Y2417D02*
Y2732D01*
X54700Y2527D02*
Y2842D01*
X55291Y2527D02*
Y2842D01*
X54700D02*
X55291D01*
X54700Y2527D02*
X55291D01*
X54658Y5657D02*
Y5972D01*
X55249Y5657D02*
Y5972D01*
X54658D02*
X55249D01*
X54658Y5657D02*
X55249D01*
X54598Y8807D02*
X55189D01*
X54598Y9122D02*
X55189D01*
Y8807D02*
Y9122D01*
X54598Y8807D02*
Y9122D01*
X34332Y9687D02*
Y10160D01*
X33466Y9687D02*
Y10160D01*
Y9687D02*
X34332D01*
X33466Y10160D02*
X34332D01*
X25830Y9418D02*
X26302D01*
X25830Y8552D02*
X26302D01*
Y9418D01*
X25830Y8552D02*
Y9418D01*
X12227Y6556D02*
Y6871D01*
X11636Y6556D02*
Y6871D01*
Y6556D02*
X12227D01*
X11636Y6871D02*
X12227D01*
X12236Y7056D02*
Y7371D01*
X11645Y7056D02*
Y7371D01*
Y7056D02*
X12236D01*
X11645Y7371D02*
X12236D01*
X12213Y5557D02*
Y5872D01*
X11623Y5557D02*
Y5872D01*
Y5557D02*
X12213D01*
X11623Y5872D02*
X12213D01*
X12216Y6045D02*
Y6360D01*
X11625Y6045D02*
Y6360D01*
Y6045D02*
X12216D01*
X11625Y6360D02*
X12216D01*
X12151Y7576D02*
Y7891D01*
X11561Y7576D02*
Y7891D01*
Y7576D02*
X12151D01*
X11561Y7891D02*
X12151D01*
X30860Y4986D02*
Y5517D01*
X30052Y4986D02*
Y5517D01*
Y4986D02*
X30860D01*
X30052Y5517D02*
X30860D01*
X19660Y6467D02*
Y6782D01*
X20250Y6467D02*
Y6782D01*
X19660D02*
X20250D01*
X19660Y6467D02*
X20250D01*
X19658Y5507D02*
Y5822D01*
X20249Y5507D02*
Y5822D01*
X19658D02*
X20249D01*
X19658Y5507D02*
X20249D01*
X6042Y4998D02*
Y5352D01*
X5333Y4998D02*
Y5352D01*
Y4998D02*
X6042D01*
X5333Y5352D02*
X6042D01*
X3669Y8625D02*
X4102D01*
X3669Y9451D02*
X4102D01*
X3669Y8625D02*
Y9451D01*
X4102Y8625D02*
Y9451D01*
X30427Y6429D02*
X31111D01*
X30427Y6075D02*
X31111D01*
X30427D02*
Y6429D01*
X31111Y6075D02*
Y6429D01*
X3709Y7923D02*
Y8607D01*
X4063Y7923D02*
Y8607D01*
X3709Y7923D02*
X4063D01*
X3709Y8607D02*
X4063D01*
X19672Y6991D02*
Y7306D01*
X20263Y6991D02*
Y7306D01*
X19672D02*
X20263D01*
X19672Y6991D02*
X20263D01*
X30875Y6469D02*
Y7335D01*
X30403Y6469D02*
Y7335D01*
X30875D01*
X30403Y6469D02*
X30875D01*
X6670Y7594D02*
Y8460D01*
X6198Y7594D02*
Y8460D01*
X6670D01*
X6198Y7594D02*
X6670D01*
X3160Y8602D02*
X3632D01*
X3160Y9468D02*
X3632D01*
X3160Y8602D02*
Y9468D01*
X3632Y8602D02*
Y9468D01*
X30906Y6469D02*
X31733D01*
X30906Y7807D02*
X31733D01*
X30906Y6469D02*
Y7807D01*
X31733Y6469D02*
Y7807D01*
X19690Y4593D02*
Y4907D01*
X20281Y4593D02*
Y4907D01*
X19690D02*
X20281D01*
X19690Y4593D02*
X20281D01*
X25762Y8553D02*
Y9419D01*
X25290Y8553D02*
Y9419D01*
X25762D01*
X25290Y8553D02*
X25762D01*
X30335Y5566D02*
X31201D01*
X30335Y6039D02*
X31201D01*
Y5566D02*
Y6039D01*
X30335Y5566D02*
Y6039D01*
X4156Y3952D02*
X6045D01*
X4156Y4897D02*
X6045D01*
Y3952D02*
Y4897D01*
X4156Y3952D02*
Y4897D01*
X1902Y5868D02*
X2099D01*
X2001Y5769D02*
Y5966D01*
D20*
X56523Y4517D02*
G03*
X56523Y4517I-197J0D01*
G01*
X38830Y7661D02*
G03*
X38830Y7661I-197J0D01*
G01*
X11374Y1309D02*
G03*
X11374Y1309I-197J0D01*
G01*
D21*
X34316Y2385D02*
D03*
X33916D02*
D03*
D22*
X4542Y7266D02*
D03*
Y7644D02*
D03*
X29600Y2736D02*
D03*
Y3114D02*
D03*
X31876Y2334D02*
D03*
Y1956D02*
D03*
X35576Y2705D02*
D03*
Y3083D02*
D03*
X26066Y9174D02*
D03*
Y8796D02*
D03*
X30639Y7091D02*
D03*
Y6713D02*
D03*
X6434Y8216D02*
D03*
Y7838D02*
D03*
X3396Y8815D02*
D03*
Y9255D02*
D03*
X25526Y9175D02*
D03*
Y8797D02*
D03*
D23*
X36094Y5783D02*
D03*
X35594D02*
D03*
X35094D02*
D03*
X34594D02*
D03*
X36094Y3854D02*
D03*
X35594D02*
D03*
X35094D02*
D03*
X34594D02*
D03*
D24*
X33228Y1975D02*
D03*
X33563D02*
D03*
X5855Y5175D02*
D03*
X5520D02*
D03*
D25*
X27602Y4609D02*
D03*
X28861Y7936D02*
D03*
X28547D02*
D03*
X28232D02*
D03*
X27917D02*
D03*
X27602D02*
D03*
X27287D02*
D03*
X26972D02*
D03*
X26657D02*
D03*
Y4609D02*
D03*
X26972D02*
D03*
X27287D02*
D03*
X27917D02*
D03*
X28232D02*
D03*
X28547D02*
D03*
X28861D02*
D03*
D26*
X2479Y8055D02*
D03*
X1770D02*
D03*
D27*
X2966Y6360D02*
D03*
Y6163D02*
D03*
Y6557D02*
D03*
Y5179D02*
D03*
Y5572D02*
D03*
Y5376D02*
D03*
Y5769D02*
D03*
Y5966D02*
D03*
D28*
X19795Y6135D02*
D03*
X20091D02*
D03*
X12079Y6713D02*
D03*
X11784D02*
D03*
X12088Y7213D02*
D03*
X11793D02*
D03*
X12066Y5715D02*
D03*
X11770D02*
D03*
X12068Y6203D02*
D03*
X11773D02*
D03*
X12003Y7734D02*
D03*
X11708D02*
D03*
X19808Y6625D02*
D03*
X20103D02*
D03*
X19806Y5665D02*
D03*
X20101D02*
D03*
X19820Y7149D02*
D03*
X20115D02*
D03*
X19838Y4750D02*
D03*
X20133D02*
D03*
D29*
X5777Y5913D02*
D03*
X6584D02*
D03*
D30*
X13907Y3322D02*
D03*
Y2810D02*
D03*
X14754Y3066D02*
D03*
X19641Y3063D02*
D03*
X18794Y2807D02*
D03*
Y3319D02*
D03*
X17517Y3060D02*
D03*
X16670Y2804D02*
D03*
Y3316D02*
D03*
X12652Y3062D02*
D03*
X11805Y2806D02*
D03*
Y3318D02*
D03*
D31*
X29423Y5170D02*
D03*
Y5485D02*
D03*
Y5800D02*
D03*
Y6115D02*
D03*
Y6430D02*
D03*
Y6745D02*
D03*
Y7060D02*
D03*
Y7375D02*
D03*
X26096D02*
D03*
Y7060D02*
D03*
Y6745D02*
D03*
Y6430D02*
D03*
Y6115D02*
D03*
Y5800D02*
D03*
Y5485D02*
D03*
Y5170D02*
D03*
D32*
X1376Y8055D02*
D03*
X2873D02*
D03*
D33*
X19790Y5135D02*
D03*
X20140D02*
D03*
X20250Y4120D02*
D03*
X20601D02*
D03*
X12079Y5245D02*
D03*
X11729D02*
D03*
X12084Y4720D02*
D03*
X11734D02*
D03*
X30944Y6252D02*
D03*
X30594D02*
D03*
D34*
X18156Y2812D02*
D03*
Y3162D02*
D03*
X16017Y2826D02*
D03*
Y3176D02*
D03*
X13282Y2803D02*
D03*
Y3154D02*
D03*
X11138Y2771D02*
D03*
Y3121D02*
D03*
X3886Y8440D02*
D03*
Y8090D02*
D03*
D35*
X21406Y7608D02*
D03*
Y7108D02*
D03*
Y6608D02*
D03*
Y6108D02*
D03*
Y5608D02*
D03*
Y5108D02*
D03*
Y4608D02*
D03*
Y4108D02*
D03*
X23296Y7608D02*
D03*
Y7108D02*
D03*
Y6608D02*
D03*
Y6108D02*
D03*
Y5608D02*
D03*
Y5108D02*
D03*
Y4608D02*
D03*
Y4108D02*
D03*
X10867Y4222D02*
D03*
Y4722D02*
D03*
Y5222D02*
D03*
Y5722D02*
D03*
Y6222D02*
D03*
Y6722D02*
D03*
Y7222D02*
D03*
Y7722D02*
D03*
X8977Y4222D02*
D03*
Y4722D02*
D03*
Y5222D02*
D03*
Y5722D02*
D03*
Y6222D02*
D03*
Y6722D02*
D03*
Y7222D02*
D03*
Y7722D02*
D03*
D36*
X30611Y4113D02*
D03*
X32186D02*
D03*
D37*
X30300Y3210D02*
D03*
Y2659D02*
D03*
X31319Y6862D02*
D03*
Y7413D02*
D03*
D38*
X31176Y1643D02*
D03*
Y2607D02*
D03*
D39*
X37131Y2570D02*
D03*
X36836D02*
D03*
X37149Y5830D02*
D03*
X36853D02*
D03*
X37103Y8735D02*
D03*
X36808D02*
D03*
X43019Y8770D02*
D03*
X42723D02*
D03*
X42996Y2544D02*
D03*
X42701D02*
D03*
X42706Y5675D02*
D03*
X43001D02*
D03*
X48838Y5760D02*
D03*
X48543D02*
D03*
X48876Y8955D02*
D03*
X48580D02*
D03*
X48753Y2575D02*
D03*
X48458D02*
D03*
X54848Y2685D02*
D03*
X55143D02*
D03*
X54806Y5815D02*
D03*
X55101D02*
D03*
X55041Y8965D02*
D03*
X54746D02*
D03*
D40*
X33546Y2398D02*
D03*
Y2792D02*
D03*
X3886Y8841D02*
D03*
Y9235D02*
D03*
D41*
X33958Y2845D02*
D03*
X34273D02*
D03*
D42*
X34870Y1429D02*
D03*
Y2472D02*
D03*
D43*
X37934Y3160D02*
D03*
X39017D02*
D03*
X37934Y2570D02*
D03*
X39017D02*
D03*
X38987Y9330D02*
D03*
X37904D02*
D03*
Y8740D02*
D03*
X38987D02*
D03*
X44928Y3135D02*
D03*
X43846D02*
D03*
Y2544D02*
D03*
X44928D02*
D03*
X44867Y5670D02*
D03*
X43784D02*
D03*
X44867Y6260D02*
D03*
X43784D02*
D03*
X44867Y9360D02*
D03*
X43784D02*
D03*
Y8770D02*
D03*
X44867D02*
D03*
X39037Y6420D02*
D03*
Y5830D02*
D03*
X37954D02*
D03*
Y6420D02*
D03*
X55594Y9540D02*
D03*
X56677D02*
D03*
X55594Y8950D02*
D03*
X56677D02*
D03*
X50708Y3155D02*
D03*
X49626D02*
D03*
Y2564D02*
D03*
X50708D02*
D03*
X56797Y3270D02*
D03*
X55714D02*
D03*
Y2680D02*
D03*
X56797D02*
D03*
X50727Y6320D02*
D03*
Y5730D02*
D03*
X49644D02*
D03*
Y6320D02*
D03*
X50747Y9520D02*
D03*
X49664D02*
D03*
Y8930D02*
D03*
X50747D02*
D03*
X56797Y6410D02*
D03*
Y5820D02*
D03*
X55714D02*
D03*
Y6410D02*
D03*
D44*
X33386Y5445D02*
D03*
Y4045D02*
D03*
D45*
X33053Y10615D02*
D03*
X34018D02*
D03*
D46*
X34088Y9923D02*
D03*
X33710D02*
D03*
X30957Y5802D02*
D03*
X30579D02*
D03*
D47*
X34706Y6724D02*
D03*
Y9086D02*
D03*
D48*
X4758Y803D02*
D03*
X4459Y1103D02*
D03*
X6982Y3627D02*
D03*
X7282Y3327D02*
D03*
D49*
X4459Y803D02*
D03*
X7282Y3627D02*
D03*
D50*
Y1103D02*
D03*
X6982Y803D02*
D03*
X4459Y3327D02*
D03*
X4758Y3627D02*
D03*
D51*
X7282Y803D02*
D03*
X4459Y3627D02*
D03*
D52*
X30653Y5171D02*
D03*
X30259D02*
D03*
X30653Y5332D02*
D03*
X30259D02*
D03*
D53*
X4336Y5435D02*
D03*
X5065Y5691D02*
D03*
Y5179D02*
D03*
D54*
X5750Y4425D02*
D03*
X4450D02*
D03*
D55*
X5815Y7850D02*
D03*
Y8598D02*
D03*
X4949Y8224D02*
D03*
D56*
X2966Y6813D02*
D03*
Y4923D02*
D03*
Y4608D02*
D03*
Y7128D02*
D03*
M02*
