G04*
G04 #@! TF.GenerationSoftware,Altium Limited,CircuitMaker,2.3.0 (2.3.0.3)*
G04*
G04 Layer_Color=16764230*
%FSLAX24Y24*%
%MOIN*%
G70*
G04*
G04 #@! TF.SameCoordinates,BA9B3302-63F0-48E8-8009-FCAE1684F3EC*
G04*
G04*
G04 #@! TF.FilePolarity,Positive*
G04*
G01*
G75*
%ADD11C,0.0039*%
%ADD13C,0.0100*%
%ADD14C,0.0050*%
%ADD15C,0.0079*%
%ADD16C,0.0059*%
%ADD18C,0.0472*%
%ADD19C,0.0020*%
D11*
X4197Y3888D02*
X7544D01*
Y542D02*
Y3888D01*
X4197Y542D02*
X7544D01*
X4197D02*
Y3888D01*
X26015Y640D02*
G03*
X26015Y640I-295J0D01*
G01*
X33251Y2925D02*
G03*
X33251Y2925I-295J0D01*
G01*
X5818Y9449D02*
G03*
X5818Y9449I-295J0D01*
G01*
X6859Y9444D02*
G03*
X6859Y9444I-295J0D01*
G01*
X4780Y9454D02*
G03*
X4780Y9454I-295J0D01*
G01*
X28144Y2582D02*
G03*
X28144Y2582I-295J0D01*
G01*
X28494Y3332D02*
G03*
X28494Y3332I-295J0D01*
G01*
X32941Y1465D02*
G03*
X32941Y1465I-295J0D01*
G01*
X23988Y649D02*
G03*
X23988Y649I-295J0D01*
G01*
X4542Y7346D02*
Y7563D01*
X4434Y7455D02*
X4651D01*
X35147Y4818D02*
X35541D01*
X35344Y4621D02*
Y5015D01*
X19835Y6135D02*
X20051D01*
X19943Y6027D02*
Y6243D01*
X5983Y5913D02*
X6377D01*
X6180Y5717D02*
Y6110D01*
X14134Y3066D02*
X14528D01*
X14331Y2869D02*
Y3263D01*
X23154Y1127D02*
X27249D01*
Y2229D01*
X23154D02*
X27249D01*
X23154Y1127D02*
Y2229D01*
X27562Y6272D02*
X27956D01*
X27759Y6075D02*
Y6469D01*
X1573Y7947D02*
Y8163D01*
X1465Y8055D02*
X1681D01*
X2676Y7947D02*
Y8163D01*
X2567Y8055D02*
X2784D01*
X19965Y5027D02*
Y5243D01*
X19857Y5135D02*
X20074D01*
X20426Y4012D02*
Y4228D01*
X20317Y4120D02*
X20534D01*
X18047Y2987D02*
X18264D01*
X18155Y2879D02*
Y3095D01*
X15908Y3001D02*
X16125D01*
X16017Y2893D02*
Y3109D01*
X13173Y2978D02*
X13390D01*
X13281Y2870D02*
Y3087D01*
X11029Y2946D02*
X11246D01*
X11138Y2838D02*
Y3054D01*
X19218Y2866D02*
Y3260D01*
X19021Y3063D02*
X19414D01*
X17093Y2863D02*
Y3257D01*
X16897Y3060D02*
X17290D01*
X12228Y2865D02*
Y3259D01*
X12032Y3062D02*
X12425D01*
X11904Y5137D02*
Y5353D01*
X11796Y5245D02*
X12012D01*
X11909Y4612D02*
Y4829D01*
X11801Y4720D02*
X12017D01*
X22351Y5661D02*
Y6055D01*
X22154Y5858D02*
X22548D01*
X20874Y7925D02*
X23827D01*
X20874Y3791D02*
X23827D01*
X20874D02*
Y7925D01*
X23827Y3791D02*
Y7925D01*
X9922Y5775D02*
Y6169D01*
X9725Y5972D02*
X10119D01*
X8445Y3905D02*
X11398D01*
X8445Y8039D02*
X11398D01*
Y3905D02*
Y8039D01*
X8445Y3905D02*
Y8039D01*
X29492Y2925D02*
X29709D01*
X29600Y2816D02*
Y3033D01*
X30300Y2738D02*
Y3131D01*
X30104Y2935D02*
X30497D01*
X31876Y2037D02*
Y2253D01*
X31767Y2145D02*
X31984D01*
X30979Y2125D02*
X31373D01*
X31176Y1928D02*
Y2322D01*
X33278Y1975D02*
X33514D01*
X33396Y1857D02*
Y2093D01*
X36983Y2452D02*
Y2688D01*
X36865Y2570D02*
X37101D01*
X33546Y2487D02*
Y2703D01*
X33437Y2595D02*
X33654D01*
X34007Y2845D02*
X34224D01*
X34116Y2737D02*
Y2953D01*
X34870Y1754D02*
Y2148D01*
X34673Y1951D02*
X35067D01*
X35576Y2786D02*
Y3002D01*
X35467Y2894D02*
X35684D01*
X33189Y4745D02*
X33583D01*
X33386Y4548D02*
Y4942D01*
X33536Y10418D02*
Y10812D01*
X33339Y10615D02*
X33733D01*
X37001Y5712D02*
Y5948D01*
X36883Y5830D02*
X37119D01*
X36956Y8617D02*
Y8853D01*
X36838Y8735D02*
X37074D01*
X42871Y8652D02*
Y8888D01*
X42753Y8770D02*
X42989D01*
X42849Y2426D02*
Y2662D01*
X42731Y2544D02*
X42967D01*
X42735Y5675D02*
X42972D01*
X42853Y5557D02*
Y5793D01*
X48690Y5642D02*
Y5878D01*
X48572Y5760D02*
X48809D01*
X48728Y8837D02*
Y9073D01*
X48610Y8955D02*
X48846D01*
X48606Y2457D02*
Y2693D01*
X48488Y2575D02*
X48724D01*
X54878Y2685D02*
X55114D01*
X54996Y2567D02*
Y2803D01*
X54835Y5815D02*
X55072D01*
X54953Y5697D02*
Y5933D01*
X54893Y8847D02*
Y9083D01*
X54775Y8965D02*
X55012D01*
X33791Y9923D02*
X34007D01*
X33899Y9815D02*
Y10032D01*
X34509Y7905D02*
X34903D01*
X34706Y7708D02*
Y8102D01*
X26066Y8877D02*
Y9093D01*
X25957Y8985D02*
X26174D01*
X11823Y6713D02*
X12040D01*
X11932Y6605D02*
Y6822D01*
X11832Y7213D02*
X12049D01*
X11940Y7105D02*
Y7322D01*
X11810Y5715D02*
X12026D01*
X11918Y5607D02*
Y5823D01*
X11812Y6203D02*
X12029D01*
X11921Y6094D02*
Y6311D01*
X11748Y7734D02*
X11964D01*
X11856Y7625D02*
Y7842D01*
X30259Y5252D02*
X30653D01*
X30456Y5055D02*
Y5448D01*
X19847Y6625D02*
X20063D01*
X19955Y6517D02*
Y6733D01*
X19845Y5665D02*
X20062D01*
X19953Y5557D02*
Y5773D01*
X5570Y5175D02*
X5806D01*
X5688Y5057D02*
Y5293D01*
X3886Y8930D02*
Y9146D01*
X3777Y9038D02*
X3994D01*
X30769Y6144D02*
Y6361D01*
X30661Y6252D02*
X30877D01*
X3778Y8265D02*
X3994D01*
X3886Y8157D02*
Y8373D01*
X19859Y7149D02*
X20076D01*
X19968Y7040D02*
Y7257D01*
X30531Y6902D02*
X30747D01*
X30639Y6794D02*
Y7011D01*
X6326Y8027D02*
X6542D01*
X6434Y7918D02*
Y8135D01*
X3396Y8927D02*
Y9143D01*
X3287Y9035D02*
X3504D01*
X31319Y6941D02*
Y7335D01*
X31122Y7138D02*
X31516D01*
X19877Y4750D02*
X20094D01*
X19985Y4642D02*
Y4858D01*
X25417Y8986D02*
X25634D01*
X25526Y8878D02*
Y9094D01*
X30768Y5694D02*
Y5911D01*
X30660Y5802D02*
X30876D01*
X5100Y4228D02*
Y4622D01*
X4904Y4425D02*
X5297D01*
D13*
X22887Y11584D02*
X33911D01*
Y2135D02*
Y11584D01*
X22887Y2135D02*
X33911D01*
X22887D02*
Y11584D01*
D14*
X33033Y6192D02*
X36379D01*
X33033Y9618D02*
X36379D01*
X33033Y6192D02*
Y9618D01*
X36379Y6192D02*
Y9618D01*
D15*
X32772Y3695D02*
X34000D01*
Y5795D01*
X32772D02*
X34000D01*
X32772Y3695D02*
Y5795D01*
D16*
X30576Y2385D02*
Y3485D01*
X30025Y2385D02*
X30576D01*
X30025D02*
Y3485D01*
X30576D01*
X31044Y6588D02*
Y7688D01*
X31595D01*
Y6588D02*
Y7688D01*
X31044Y6588D02*
X31595D01*
X32811Y3839D02*
X33961D01*
Y5650D01*
X32811D02*
X33961D01*
X32811Y3839D02*
Y5650D01*
D18*
X16Y5D02*
Y11825D01*
X59066D01*
Y5D02*
Y11825D01*
X16Y5D02*
X59066D01*
X16D02*
Y11825D01*
X59066D01*
Y5D02*
Y11825D01*
X16Y5D02*
X59066D01*
D19*
X4306Y7022D02*
X4779D01*
X4306Y7888D02*
X4779D01*
X4306Y7022D02*
Y7888D01*
X4779Y7022D02*
Y7888D01*
X36388Y3480D02*
Y6157D01*
X34301Y3480D02*
Y6157D01*
X36388D01*
X34301Y3480D02*
X36388D01*
X19648Y5977D02*
Y6292D01*
X20238Y5977D02*
Y6292D01*
X19648D02*
X20238D01*
X19648Y5977D02*
X20238D01*
X5334Y5402D02*
Y6425D01*
X7027Y5402D02*
Y6425D01*
X5334D02*
X7027D01*
X5334Y5402D02*
X7027D01*
X13465Y2436D02*
Y3696D01*
X15197Y2436D02*
Y3696D01*
X13465D02*
X15197D01*
X13465Y2436D02*
X15197D01*
X30003Y4028D02*
Y8516D01*
X25515Y4028D02*
Y8516D01*
Y4028D02*
X30003D01*
X25515Y8516D02*
X30003D01*
X1160Y7838D02*
X1987D01*
X1160Y8271D02*
X1987D01*
Y7838D02*
Y8271D01*
X1160Y7838D02*
Y8271D01*
X2262Y8271D02*
X3089D01*
X2262Y7838D02*
X3089D01*
X2262D02*
Y8271D01*
X3089Y7838D02*
Y8271D01*
X19623Y4958D02*
X20307D01*
X19623Y5312D02*
X20307D01*
Y4958D02*
Y5312D01*
X19623Y4958D02*
Y5312D01*
X20084Y3943D02*
X20768D01*
X20084Y4297D02*
X20768D01*
Y3943D02*
Y4297D01*
X20084Y3943D02*
Y4297D01*
X18333Y2645D02*
Y3329D01*
X17978Y2645D02*
Y3329D01*
X18333D01*
X17978Y2645D02*
X18333D01*
X16194Y2659D02*
Y3343D01*
X15840Y2659D02*
Y3343D01*
X16194D01*
X15840Y2659D02*
X16194D01*
X13459Y2637D02*
Y3320D01*
X13104Y2637D02*
Y3320D01*
X13459D01*
X13104Y2637D02*
X13459D01*
X11315Y2604D02*
Y3288D01*
X10961Y2604D02*
Y3288D01*
X11315D01*
X10961Y2604D02*
X11315D01*
X18351Y2433D02*
X20084D01*
X18351Y3693D02*
X20084D01*
Y2433D02*
Y3693D01*
X18351Y2433D02*
Y3693D01*
X16227Y2430D02*
X17960D01*
X16227Y3690D02*
X17960D01*
Y2430D02*
Y3690D01*
X16227Y2430D02*
Y3690D01*
X11362Y2432D02*
X13094D01*
X11362Y3692D02*
X13094D01*
Y2432D02*
Y3692D01*
X11362Y2432D02*
Y3692D01*
X11562Y5422D02*
X12246D01*
X11562Y5068D02*
X12246D01*
X11562D02*
Y5422D01*
X12246Y5068D02*
Y5422D01*
X11567Y4897D02*
X12251D01*
X11567Y4543D02*
X12251D01*
X11567D02*
Y4897D01*
X12251Y4543D02*
Y4897D01*
X31201Y4113D02*
X31595D01*
X31398Y3916D02*
Y4310D01*
X32776Y3444D02*
Y4782D01*
X30020D02*
X32776D01*
X30020Y3444D02*
Y4782D01*
Y3444D02*
X32776D01*
X29364Y2492D02*
Y3358D01*
X29837Y2492D02*
Y3358D01*
X29364Y2492D02*
X29837D01*
X29364Y3358D02*
X29837D01*
X29887Y3604D02*
X30714D01*
X29887Y2265D02*
X30714D01*
Y3604D01*
X29887Y2265D02*
Y3604D01*
X31640Y2578D02*
X32112D01*
X31640Y1712D02*
X32112D01*
Y2578D01*
X31640Y1712D02*
Y2578D01*
X30723Y1219D02*
Y3030D01*
X31628Y1219D02*
Y3030D01*
X30723Y1219D02*
X31628D01*
X30723Y3030D02*
X31628D01*
X33750Y1798D02*
Y2152D01*
X33041Y1798D02*
Y2152D01*
Y1798D02*
X33750D01*
X33041Y2152D02*
X33750D01*
X36688Y2412D02*
X37279D01*
X36688Y2727D02*
X37279D01*
Y2412D02*
Y2727D01*
X36688Y2412D02*
Y2727D01*
X33329Y2182D02*
X33762D01*
X33329Y3008D02*
X33762D01*
X33329Y2182D02*
Y3008D01*
X33762Y2182D02*
Y3008D01*
X33820Y2687D02*
Y3002D01*
X34411Y2687D02*
Y3002D01*
X33820D02*
X34411D01*
X33820Y2687D02*
X34411D01*
X34496Y1203D02*
X35244D01*
X34496Y2699D02*
X35244D01*
X34496Y1203D02*
Y2699D01*
X35244Y1203D02*
Y2699D01*
X35340Y2461D02*
X35812D01*
X35340Y3327D02*
X35812D01*
X35340Y2461D02*
Y3327D01*
X35812Y2461D02*
Y3327D01*
X32630Y11068D02*
X34441D01*
X32630Y10162D02*
X34441D01*
X32630D02*
Y11068D01*
X34441Y10162D02*
Y11068D01*
X36706Y5672D02*
X37296D01*
X36706Y5987D02*
X37296D01*
Y5672D02*
Y5987D01*
X36706Y5672D02*
Y5987D01*
X36660Y8577D02*
X37251D01*
X36660Y8892D02*
X37251D01*
Y8577D02*
Y8892D01*
X36660Y8577D02*
Y8892D01*
X42576Y8612D02*
X43166D01*
X42576Y8927D02*
X43166D01*
Y8612D02*
Y8927D01*
X42576Y8612D02*
Y8927D01*
X42553Y2387D02*
X43144D01*
X42553Y2702D02*
X43144D01*
Y2387D02*
Y2702D01*
X42553Y2387D02*
Y2702D01*
X42558Y5517D02*
Y5832D01*
X43149Y5517D02*
Y5832D01*
X42558D02*
X43149D01*
X42558Y5517D02*
X43149D01*
X48395Y5602D02*
X48986D01*
X48395Y5917D02*
X48986D01*
Y5602D02*
Y5917D01*
X48395Y5602D02*
Y5917D01*
X48433Y8797D02*
X49023D01*
X48433Y9112D02*
X49023D01*
Y8797D02*
Y9112D01*
X48433Y8797D02*
Y9112D01*
X48310Y2417D02*
X48901D01*
X48310Y2732D02*
X48901D01*
Y2417D02*
Y2732D01*
X48310Y2417D02*
Y2732D01*
X54700Y2527D02*
Y2842D01*
X55291Y2527D02*
Y2842D01*
X54700D02*
X55291D01*
X54700Y2527D02*
X55291D01*
X54658Y5657D02*
Y5972D01*
X55249Y5657D02*
Y5972D01*
X54658D02*
X55249D01*
X54658Y5657D02*
X55249D01*
X54598Y8807D02*
X55189D01*
X54598Y9122D02*
X55189D01*
Y8807D02*
Y9122D01*
X54598Y8807D02*
Y9122D01*
X34332Y9687D02*
Y10160D01*
X33466Y9687D02*
Y10160D01*
Y9687D02*
X34332D01*
X33466Y10160D02*
X34332D01*
X25830Y9418D02*
X26302D01*
X25830Y8552D02*
X26302D01*
Y9418D01*
X25830Y8552D02*
Y9418D01*
X12227Y6556D02*
Y6871D01*
X11636Y6556D02*
Y6871D01*
Y6556D02*
X12227D01*
X11636Y6871D02*
X12227D01*
X12236Y7056D02*
Y7371D01*
X11645Y7056D02*
Y7371D01*
Y7056D02*
X12236D01*
X11645Y7371D02*
X12236D01*
X12213Y5557D02*
Y5872D01*
X11623Y5557D02*
Y5872D01*
Y5557D02*
X12213D01*
X11623Y5872D02*
X12213D01*
X12216Y6045D02*
Y6360D01*
X11625Y6045D02*
Y6360D01*
Y6045D02*
X12216D01*
X11625Y6360D02*
X12216D01*
X12151Y7576D02*
Y7891D01*
X11561Y7576D02*
Y7891D01*
Y7576D02*
X12151D01*
X11561Y7891D02*
X12151D01*
X30860Y4986D02*
Y5517D01*
X30052Y4986D02*
Y5517D01*
Y4986D02*
X30860D01*
X30052Y5517D02*
X30860D01*
X19660Y6467D02*
Y6782D01*
X20250Y6467D02*
Y6782D01*
X19660D02*
X20250D01*
X19660Y6467D02*
X20250D01*
X19658Y5507D02*
Y5822D01*
X20249Y5507D02*
Y5822D01*
X19658D02*
X20249D01*
X19658Y5507D02*
X20249D01*
X6042Y4998D02*
Y5352D01*
X5333Y4998D02*
Y5352D01*
Y4998D02*
X6042D01*
X5333Y5352D02*
X6042D01*
X3669Y8625D02*
X4102D01*
X3669Y9451D02*
X4102D01*
X3669Y8625D02*
Y9451D01*
X4102Y8625D02*
Y9451D01*
X30427Y6429D02*
X31111D01*
X30427Y6075D02*
X31111D01*
X30427D02*
Y6429D01*
X31111Y6075D02*
Y6429D01*
X3709Y7923D02*
Y8607D01*
X4063Y7923D02*
Y8607D01*
X3709Y7923D02*
X4063D01*
X3709Y8607D02*
X4063D01*
X19672Y6991D02*
Y7306D01*
X20263Y6991D02*
Y7306D01*
X19672D02*
X20263D01*
X19672Y6991D02*
X20263D01*
X30875Y6469D02*
Y7335D01*
X30403Y6469D02*
Y7335D01*
X30875D01*
X30403Y6469D02*
X30875D01*
X6670Y7594D02*
Y8460D01*
X6198Y7594D02*
Y8460D01*
X6670D01*
X6198Y7594D02*
X6670D01*
X3160Y8602D02*
X3632D01*
X3160Y9468D02*
X3632D01*
X3160Y8602D02*
Y9468D01*
X3632Y8602D02*
Y9468D01*
X30906Y6469D02*
X31733D01*
X30906Y7807D02*
X31733D01*
X30906Y6469D02*
Y7807D01*
X31733Y6469D02*
Y7807D01*
X19690Y4593D02*
Y4907D01*
X20281Y4593D02*
Y4907D01*
X19690D02*
X20281D01*
X19690Y4593D02*
X20281D01*
X25762Y8553D02*
Y9419D01*
X25290Y8553D02*
Y9419D01*
X25762D01*
X25290Y8553D02*
X25762D01*
X30335Y5566D02*
X31201D01*
X30335Y6039D02*
X31201D01*
Y5566D02*
Y6039D01*
X30335Y5566D02*
Y6039D01*
X4156Y3952D02*
X6045D01*
X4156Y4897D02*
X6045D01*
Y3952D02*
Y4897D01*
X4156Y3952D02*
Y4897D01*
X1902Y5868D02*
X2099D01*
X2001Y5769D02*
Y5966D01*
M02*
