M48
;Layer_Color=6321
;FILE_FORMAT=2:5
INCH,TZ
;TYPE=PLATED
T1F00S00C0.01000
T2F00S00C0.01181
T4F00S00C0.03000
T5F00S00C0.03900
T6F00S00C0.03937
T7F00S00C0.05100
T8F00S00C0.13386
;TYPE=NON_PLATED
T9F00S00C0.02559
%
T01
X36959Y32658
X38917Y34193
X47645Y30445
X50666Y33299
X61924Y51977
X79357Y51949
X79357Y47049
X79357Y57249
X79357Y62149
X79558Y67249
X79757Y72249
X79757Y77249
X72628Y93140
X34258Y84249
X24454Y84804
X18096Y84961
X34926Y63601
X35098Y53514
X66299Y11585
X69321Y14439
X250669Y38465
X253907Y40905
X258917Y41280
X256663Y48361
X253857Y51749
X253758Y54849
X268003Y24684
X291526Y23541
X288587Y39585
X285536Y39162
X309291Y32146
X311732Y32126
X300940Y58138
X301491Y67523
X301491Y70723
X301491Y73823
X288637Y86160
X285428Y86111
X282308Y86130
X279109Y86239
X276068Y86160
X272957Y86049
X269858Y85949
X213602Y90905
X313391Y62723
X327835Y56486
X323750Y29041
X323730Y26600
X350758Y32649
X361526Y33081
X364331Y32815
T02
X52858Y38199
X67067Y25738
X79285Y13300
X83327Y13268
X87313Y13268
X91441Y13300
X95348Y13359
X99827Y13477
X122539Y13169
X126581Y13137
X130567Y13137
X134695Y13169
X138602Y13228
X143081Y13347
X147122Y13314
X151109Y13314
X155236Y13347
X95913Y35546
X89413Y35691
X83127Y35674
X82910Y39909
X73868Y55344
X71526Y58937
X61417Y64370
X61998Y73730
X55797Y73701
X50256Y73593
X49935Y63288
X43612Y63238
X38825Y97232
X34110Y97232
X28973Y97153
X28973Y92035
X28851Y87633
X159144Y13406
X163937Y13307
X167979Y13275
X171965Y13275
X176093Y13307
X180000Y13366
X184518Y13130
X188559Y13098
X192545Y13098
X196673Y13130
X200581Y13189
X204931Y13258
X208973Y13226
X212959Y13226
X217087Y13258
X220994Y13317
X296132Y14636
X296024Y21959
X302933Y21929
X305935Y47471
X309449Y48986
X310581Y52658
X291565Y47854
X284631Y53965
X277568Y53849
X270357Y53849
X270758Y72049
X278046Y72036
X284958Y71949
X264301Y79409
X264321Y83819
X245679Y81565
X239179Y81710
X232894Y81693
X249957Y76740
X309026Y78130
X313366Y81496
X319734Y81604
X322921Y99154
X322744Y106112
X322950Y113455
X330322Y113681
X338809Y113256
X345138Y112923
X351939Y112736
X358524Y112539
X364631Y112572
X371231Y112572
X378431Y112472
X385431Y112472
X391831Y112472
X398431Y112472
X406031Y112372
X413031Y112372
X419931Y112472
X426531Y112472
X433731Y112372
X440731Y112372
X447131Y112372
X453731Y112372
X461331Y112272
X468331Y112272
X466988Y99459
X460558Y99449
X460558Y92449
X460458Y85249
X460458Y78649
X460558Y71749
X460558Y64749
X460458Y57149
X460458Y50549
X460458Y44149
X460458Y37149
X460358Y29949
X460358Y23349
X462531Y7840
X454931Y7940
X448331Y7940
X441931Y7940
X434931Y7940
X427731Y8040
X421131Y8040
X414231Y7940
X407231Y7940
X399631Y8040
X393031Y8040
X386631Y8040
X379631Y8040
X372431Y8140
X365831Y8140
X359203Y7795
X352921Y7746
X347500Y7933
X341201Y8278
X341132Y13543
X341307Y19203
X323767Y19685
X319173Y14656
X313855Y41051
X318175Y48570
X321856Y52291
X317575Y55775
X330020Y46024
X333898Y45915
X337825Y46028
X341453Y46956
X341299Y52441
X341492Y57576
X348642Y57736
X341571Y40992
X373322Y42498
X373204Y37105
X373145Y31800
X362835Y26201
X362923Y20315
X373381Y48296
X373440Y53748
X373715Y64182
X373804Y70156
X373804Y76731
X373686Y82853
X401358Y83849
X401458Y91049
X401458Y98049
X414458Y91749
X414541Y83227
X414541Y76827
X414541Y69827
X415507Y62813
X415221Y56071
X415202Y49703
X415280Y42981
X401294Y43217
X401294Y49683
X401358Y55749
X401441Y62327
X401441Y68727
X401441Y75327
X401258Y21949
X414558Y22249
X330450Y99075
X473558Y93149
X473658Y86249
X473658Y79249
X473558Y71649
X473558Y65049
X473558Y58649
X473558Y51649
X473457Y44449
X473457Y37849
X473658Y30649
X473658Y23649
X476731Y8040
X483331Y8040
X490531Y7940
X497531Y7940
X503931Y7940
X510531Y7940
X518131Y7840
X525131Y7840
X532031Y7940
X538631Y7940
X545831Y7840
X552831Y7840
X559231Y7840
X565831Y7840
X531676Y22991
X531776Y30191
X531776Y37191
X531776Y43591
X531658Y50949
X531658Y57949
X531658Y64349
X518657Y64049
X518558Y56449
X518558Y49849
X518776Y43291
X518676Y35691
X518676Y29091
X518676Y22691
X518558Y84549
X518657Y91749
X518657Y98749
X525404Y99016
X531658Y92449
X531757Y85549
X530831Y112372
X537431Y112372
X544631Y112272
X551631Y112272
X558031Y112272
X564631Y112272
X523931Y112272
X516931Y112272
X509331Y112372
X502731Y112372
X496331Y112372
X489331Y112372
X482131Y112472
X475531Y112472
X469531Y7840
T04
X126157Y39649
X136158Y39649
X146158Y39649
X156158Y39649
X156158Y79649
X146158Y79649
X136158Y79649
X126157Y79649
X166157Y79649
X176157Y79649
X186158Y79649
X196158Y79649
X196158Y39649
X186158Y39649
X176157Y39649
X166157Y39649
T05
X112458Y103349
X130058Y103349
X148557Y103349
X166157Y103349
X185357Y103449
X202958Y103449
T06
X237052Y16780
X247052Y16780
X257052Y16780
X267052Y16780
T07
X107457Y93849
X135057Y93849
X143558Y93849
X171158Y93849
X180358Y93949
X207958Y93949
T08
X19602Y11860
X19602Y106348
X408922Y31868
X524493Y76219
X578657Y106348
X578657Y11860
T09
X24637Y47259
X24637Y70094
M30
