G04*
G04 #@! TF.GenerationSoftware,Altium Limited,CircuitMaker,2.3.0 (2.3.0.3)*
G04*
G04 Layer_Color=13813960*
%FSLAX25Y25*%
%MOIN*%
G70*
G04*
G04 #@! TF.SameCoordinates,90B3883F-12C0-4788-AEBF-A64E1D99C10B*
G04*
G04*
G04 #@! TF.FilePolarity,Positive*
G04*
G01*
G75*
%ADD13C,0.01000*%
%ADD97C,0.02000*%
%ADD98C,0.03000*%
D13*
X204126Y113783D02*
X203127Y114783D01*
X203127Y116782D01*
X204126Y117781D01*
X208125Y117781D01*
X209125Y116782D01*
X209125Y114783D01*
X208125Y113783D01*
X206126Y113783D01*
X206126Y115782D01*
X203127Y111783D02*
X209125Y111783D01*
X209125Y108784D01*
X208125Y107785D01*
X207125Y107785D01*
X206126Y108784D01*
X206126Y111783D01*
X206126Y108784D01*
X205126Y107785D01*
X204126Y107785D01*
X203127Y108784D01*
X203127Y111783D01*
X209125Y105785D02*
X209125Y103786D01*
X209125Y104786D01*
X203127Y104786D01*
X204126Y105785D01*
D97*
X226457Y117776D02*
X336693Y117776D01*
X336693Y23287D02*
X336693Y117776D01*
X226457Y23287D02*
X336693Y23287D01*
X226457Y23287D02*
X226457Y117776D01*
D98*
X341575Y70531D02*
X359575Y70531D01*
X350575Y61532D02*
X350575Y79532D01*
X213575Y61532D02*
X213575Y79532D01*
M02*
