G04*
G04 #@! TF.GenerationSoftware,Altium Limited,CircuitMaker,2.3.0 (2.3.0.3)*
G04*
G04 Layer_Physical_Order=1*
G04 Layer_Color=25308*
%FSLAX24Y24*%
%MOIN*%
G70*
G04*
G04 #@! TF.SameCoordinates,62DF6C69-0E12-47AE-8EFD-CE483A3DE62D*
G04*
G04*
G04 #@! TF.FilePolarity,Positive*
G04*
G01*
G75*
%ADD10C,0.0039*%
%ADD11C,0.0059*%
%ADD12C,0.0020*%
%ADD13C,0.0100*%
%ADD14C,0.0079*%
%ADD15C,0.0050*%
%ADD16C,0.0433*%
%ADD17R,0.0220X0.0220*%
%ADD18R,0.0283X0.0299*%
%ADD19O,0.0236X0.0669*%
%ADD20R,0.0256X0.0236*%
%ADD21O,0.0236X0.0768*%
%ADD22R,0.0236X0.0276*%
%ADD23R,0.0492X0.0118*%
%ADD24R,0.0197X0.0177*%
%ADD25R,0.0492X0.0610*%
%ADD26R,0.0492X0.0197*%
%ADD27O,0.0768X0.0236*%
%ADD28R,0.0236X0.0276*%
%ADD29R,0.0197X0.0236*%
%ADD30R,0.0236X0.0197*%
%ADD31O,0.0866X0.0236*%
%ADD32R,0.0984X0.0787*%
%ADD33R,0.0394X0.0394*%
%ADD34R,0.0709X0.0650*%
%ADD35R,0.0217X0.0197*%
%ADD36R,0.0256X0.0256*%
%ADD37R,0.0177X0.0177*%
%ADD38R,0.0610X0.0354*%
%ADD39R,0.0374X0.0354*%
%ADD40R,0.0669X0.0512*%
%ADD41R,0.0650X0.0709*%
%ADD42R,0.0299X0.0283*%
%ADD43R,0.2953X0.0866*%
%ADD44P,0.0600X4X270.0*%
%ADD45R,0.0600X0.0600*%
%ADD46P,0.0600X4X360.0*%
%ADD47R,0.0600X0.0600*%
%ADD48C,0.0098*%
G04:AMPARAMS|DCode=49|XSize=23.6mil|YSize=29.5mil|CornerRadius=4.7mil|HoleSize=0mil|Usage=FLASHONLY|Rotation=90.000|XOffset=0mil|YOffset=0mil|HoleType=Round|Shape=RoundedRectangle|*
%AMROUNDEDRECTD49*
21,1,0.0236,0.0201,0,0,90.0*
21,1,0.0142,0.0295,0,0,90.0*
1,1,0.0094,0.0100,0.0071*
1,1,0.0094,0.0100,-0.0071*
1,1,0.0094,-0.0100,-0.0071*
1,1,0.0094,-0.0100,0.0071*
%
%ADD49ROUNDEDRECTD49*%
%ADD50R,0.0500X0.0500*%
%ADD51R,0.0551X0.0394*%
%ADD52R,0.0492X0.0236*%
%ADD94C,0.0472*%
%ADD95C,0.0200*%
%ADD96C,0.0300*%
%ADD97C,0.0236*%
%ADD98C,0.0600*%
%ADD99C,0.0394*%
%ADD100C,0.0246*%
%ADD101C,0.0276*%
%ADD102C,0.0195*%
%ADD103R,0.0787X0.0787*%
%ADD104C,0.0787*%
%ADD105C,0.0600*%
%ADD106C,0.1417*%
G04:AMPARAMS|DCode=107|XSize=39.4mil|YSize=86.6mil|CornerRadius=19.7mil|HoleSize=0mil|Usage=FLASHONLY|Rotation=270.000|XOffset=0mil|YOffset=0mil|HoleType=Round|Shape=RoundedRectangle|*
%AMROUNDEDRECTD107*
21,1,0.0394,0.0472,0,0,270.0*
21,1,0.0000,0.0866,0,0,270.0*
1,1,0.0394,-0.0236,0.0000*
1,1,0.0394,-0.0236,0.0000*
1,1,0.0394,0.0236,0.0000*
1,1,0.0394,0.0236,0.0000*
%
%ADD107ROUNDEDRECTD107*%
G04:AMPARAMS|DCode=108|XSize=39.4mil|YSize=78.7mil|CornerRadius=19.7mil|HoleSize=0mil|Usage=FLASHONLY|Rotation=270.000|XOffset=0mil|YOffset=0mil|HoleType=Round|Shape=RoundedRectangle|*
%AMROUNDEDRECTD108*
21,1,0.0394,0.0394,0,0,270.0*
21,1,0.0000,0.0787,0,0,270.0*
1,1,0.0394,-0.0197,0.0000*
1,1,0.0394,-0.0197,0.0000*
1,1,0.0394,0.0197,0.0000*
1,1,0.0394,0.0197,0.0000*
%
%ADD108ROUNDEDRECTD108*%
%ADD109C,0.0700*%
%ADD110C,0.0236*%
G36*
X59066Y5D02*
X16D01*
Y11825D01*
X59066D01*
Y5D01*
D02*
G37*
%LPC*%
G36*
X33593Y11069D02*
X33477Y11068D01*
Y11068D01*
X33477Y11068D01*
X33384D01*
Y10245D01*
X33561Y10069D01*
X33822D01*
Y9781D01*
X33462D01*
Y9683D01*
X33370Y9619D01*
X33129D01*
Y9578D01*
X33051Y9481D01*
X32902D01*
X32863Y9473D01*
X32830Y9451D01*
X32807Y9418D01*
X32800Y9379D01*
Y5866D01*
X32783Y5853D01*
X32751Y5846D01*
X32744D01*
X32738Y5843D01*
X32705Y5837D01*
X32678Y5819D01*
X32672Y5816D01*
X32667Y5811D01*
X32639Y5793D01*
X32621Y5765D01*
X32616Y5760D01*
X32614Y5754D01*
X32595Y5727D01*
X32589Y5694D01*
X32586Y5688D01*
Y5681D01*
X32580Y5649D01*
Y5167D01*
X32048Y4635D01*
X32029Y4607D01*
X31593D01*
Y3619D01*
X32778D01*
Y4607D01*
X32750D01*
X32705Y4716D01*
X32928Y4939D01*
X32972Y5005D01*
X32977Y5031D01*
X33097Y5082D01*
X33706Y5080D01*
X33733Y5080D01*
X33733Y5080D01*
X33733Y5080D01*
X33820Y5089D01*
X33835Y5182D01*
X33835Y5182D01*
X33835Y5182D01*
Y5880D01*
X34146Y6191D01*
X34320D01*
X34385Y6092D01*
X34386Y6084D01*
X35203D01*
Y5491D01*
X35175Y5468D01*
X34466Y5475D01*
X34425Y5429D01*
X34426Y5428D01*
X34423Y5426D01*
X34401Y5393D01*
X34393Y5354D01*
Y4320D01*
X34401Y4281D01*
X34423Y4248D01*
X34424Y4247D01*
X34437Y4227D01*
X34389Y4155D01*
X34372Y4070D01*
Y3637D01*
X34389Y3552D01*
X34408Y3523D01*
X34242Y3358D01*
X33912D01*
X33854Y3346D01*
X33804Y3313D01*
X33511Y3020D01*
X33318D01*
X33240Y3106D01*
X33225Y3131D01*
X33162Y3194D01*
X33086Y3238D01*
X33000Y3261D01*
X32911D01*
X32826Y3238D01*
X32749Y3194D01*
X32634Y3246D01*
Y3355D01*
X32631Y3374D01*
X32627Y3393D01*
X32627Y3393D01*
X32627Y3394D01*
X32616Y3410D01*
X32605Y3426D01*
X32605Y3426D01*
X32605Y3427D01*
X32588Y3437D01*
X32572Y3448D01*
X32572Y3448D01*
X32571Y3449D01*
X32553Y3453D01*
X32534Y3457D01*
X30776Y3475D01*
X30775Y3475D01*
X30775Y3475D01*
X30756Y3471D01*
X30739Y3468D01*
X30716Y3491D01*
X30696Y3515D01*
X30744Y3619D01*
X31203D01*
Y4417D01*
X31535Y4749D01*
X31579Y4815D01*
X31594Y4893D01*
X31594Y4893D01*
Y6221D01*
X31579Y6299D01*
X31535Y6365D01*
X31523Y6377D01*
Y6565D01*
X31616D01*
Y7159D01*
X31614D01*
Y7364D01*
X31319D01*
X31024D01*
Y7159D01*
X31022D01*
Y6917D01*
X30881D01*
Y6963D01*
X30879D01*
Y7042D01*
X30639D01*
Y7091D01*
X30590D01*
Y7339D01*
X30456D01*
X30398Y7341D01*
X30342Y7434D01*
X30317Y7494D01*
X30261Y7550D01*
X30188Y7580D01*
X30110D01*
X30037Y7550D01*
X30023Y7535D01*
X29841D01*
X29773Y7580D01*
X29688Y7597D01*
X29190D01*
X29127Y7640D01*
X29084Y7703D01*
Y8201D01*
X29067Y8287D01*
X29019Y8359D01*
X29014Y8362D01*
Y8488D01*
X29031Y8504D01*
X29061Y8577D01*
Y8655D01*
X29031Y8728D01*
X28976Y8783D01*
X28903Y8813D01*
X28824D01*
X28752Y8783D01*
X28701Y8732D01*
X28655Y8778D01*
X28582Y8809D01*
X28504D01*
X28431Y8778D01*
X28388Y8735D01*
X28343Y8780D01*
X28270Y8810D01*
X28192D01*
X28119Y8780D01*
X28076Y8738D01*
X28023Y8791D01*
X27950Y8821D01*
X27872D01*
X27799Y8791D01*
X27755Y8747D01*
X27719Y8783D01*
X27646Y8813D01*
X27568D01*
X27495Y8783D01*
X27446Y8734D01*
X27408Y8772D01*
X27335Y8802D01*
X27256D01*
X27184Y8772D01*
X27136Y8724D01*
X27098Y8762D01*
X27025Y8792D01*
X26946D01*
X26874Y8762D01*
X26818Y8707D01*
X26788Y8634D01*
Y8556D01*
X26811Y8501D01*
X26766Y8437D01*
X26762Y8434D01*
X26749Y8428D01*
X26736Y7571D01*
X26992Y7335D01*
X28843Y7338D01*
X28840Y7335D01*
Y5534D01*
X28867Y5446D01*
X28959Y4954D01*
X29176Y4939D01*
X29188Y4948D01*
X29322D01*
Y3917D01*
X29332Y3869D01*
X29231Y3803D01*
X29056Y3977D01*
Y3998D01*
X29026Y4070D01*
X29018Y4187D01*
X29036Y4215D01*
X28770Y4237D01*
X28770Y4968D01*
X28535Y5213D01*
X26722D01*
X26711Y5203D01*
X26700Y5213D01*
Y7099D01*
X26698Y7096D01*
X26558Y7516D01*
X26331Y7664D01*
X26330Y7667D01*
X26270Y7699D01*
Y8546D01*
X26307D01*
Y9046D01*
X26306D01*
Y9125D01*
X26066D01*
Y9174D01*
X26017D01*
Y9422D01*
X25826D01*
Y9422D01*
X25766Y9423D01*
Y9423D01*
X25708Y9423D01*
X25575D01*
Y9175D01*
X25477D01*
Y9423D01*
X25286D01*
Y9334D01*
X25167Y9271D01*
X25156Y9279D01*
X25078Y9294D01*
X21360D01*
X21328Y9288D01*
X21321D01*
X21315Y9285D01*
X21282Y9279D01*
X21255Y9261D01*
X21248Y9258D01*
X21244Y9253D01*
X21216Y9235D01*
X21198Y9207D01*
X21193Y9202D01*
X21190Y9196D01*
X21172Y9169D01*
X21165Y9136D01*
X21163Y9130D01*
Y9123D01*
X21156Y9091D01*
X21163Y9058D01*
Y9051D01*
X21165Y9045D01*
X21172Y9013D01*
X21190Y8985D01*
X21193Y8979D01*
X21198Y8974D01*
X21216Y8946D01*
X21244Y8928D01*
X21248Y8923D01*
X21255Y8921D01*
X21282Y8902D01*
X21315Y8896D01*
X21321Y8893D01*
X21328D01*
X21360Y8887D01*
X24993D01*
X25227Y8653D01*
X25284Y8615D01*
Y8547D01*
X25767D01*
X25862Y8490D01*
Y7597D01*
X25830D01*
X25745Y7580D01*
X25673Y7532D01*
X25625Y7460D01*
X25608Y7375D01*
X25513Y7260D01*
X23772D01*
X23768Y7265D01*
X23726Y7293D01*
X23719Y7317D01*
X23719Y7400D01*
X23726Y7425D01*
X23767Y7452D01*
X23788Y7483D01*
X22804D01*
X22825Y7452D01*
X22866Y7425D01*
X22872Y7400D01*
X22872Y7317D01*
X22866Y7293D01*
X22824Y7265D01*
X22775Y7193D01*
X22758Y7108D01*
X22775Y7023D01*
X22824Y6951D01*
X22864Y6924D01*
X22870Y6903D01*
Y6813D01*
X22864Y6792D01*
X22824Y6765D01*
X22775Y6693D01*
X22758Y6608D01*
X22775Y6523D01*
X22824Y6451D01*
X22864Y6424D01*
X22870Y6403D01*
Y6313D01*
X22864Y6292D01*
X22824Y6265D01*
X22775Y6193D01*
X22758Y6108D01*
X22775Y6023D01*
X22824Y5951D01*
X22864Y5924D01*
X22870Y5903D01*
Y5813D01*
X22864Y5792D01*
X22824Y5765D01*
X22775Y5693D01*
X22758Y5608D01*
X22775Y5523D01*
X22824Y5451D01*
X22864Y5424D01*
X22870Y5403D01*
Y5313D01*
X22864Y5292D01*
X22824Y5265D01*
X22775Y5193D01*
X22758Y5108D01*
X22775Y5023D01*
X22824Y4951D01*
X22864Y4924D01*
X22870Y4903D01*
Y4813D01*
X22864Y4792D01*
X22824Y4765D01*
X22775Y4693D01*
X22758Y4608D01*
X22775Y4523D01*
X22824Y4451D01*
X22864Y4424D01*
X22870Y4403D01*
Y4313D01*
X22864Y4292D01*
X22824Y4265D01*
X22775Y4193D01*
X22758Y4108D01*
X22775Y4023D01*
X22824Y3951D01*
X22896Y3903D01*
X22981Y3886D01*
X23611D01*
X23696Y3903D01*
X23768Y3951D01*
X23789Y3982D01*
X24196D01*
X24254Y3994D01*
X24304Y4027D01*
X24536Y4258D01*
X25125D01*
X25198Y4140D01*
X25193Y4130D01*
X25108Y4045D01*
X25084Y4044D01*
X25028D01*
X24955Y4014D01*
X24900Y3958D01*
X24869Y3886D01*
Y3807D01*
X24900Y3735D01*
X24914Y3720D01*
Y3103D01*
X23983Y2172D01*
X23212D01*
Y1184D01*
X23552D01*
Y957D01*
X23486Y918D01*
X23423Y856D01*
X23379Y779D01*
X23356Y694D01*
Y605D01*
X23379Y520D01*
X23423Y443D01*
X23486Y380D01*
X23563Y336D01*
X23648Y313D01*
X23737D01*
X23822Y336D01*
X23899Y380D01*
X23961Y443D01*
X24006Y520D01*
X24029Y605D01*
Y694D01*
X24006Y779D01*
X23961Y856D01*
X23899Y918D01*
X23858Y942D01*
Y1184D01*
X24199D01*
Y1955D01*
X25121Y2878D01*
X25239Y2829D01*
X25240Y1990D01*
X25246Y1961D01*
X25252Y1932D01*
X25252Y1931D01*
X25252Y1931D01*
X25268Y1908D01*
X25245Y1869D01*
X25212Y1743D01*
Y1613D01*
X25245Y1487D01*
X25310Y1375D01*
X25402Y1283D01*
X25515Y1218D01*
X25567Y1204D01*
Y940D01*
X25514Y909D01*
X25451Y846D01*
X25407Y769D01*
X25384Y684D01*
Y595D01*
X25407Y510D01*
X25451Y433D01*
X25514Y371D01*
X25590Y326D01*
X25676Y303D01*
X25764D01*
X25850Y326D01*
X25926Y371D01*
X25989Y433D01*
X26033Y510D01*
X26056Y595D01*
Y684D01*
X26033Y769D01*
X25989Y846D01*
X25926Y909D01*
X25873Y940D01*
Y1212D01*
X25896Y1218D01*
X26008Y1283D01*
X26100Y1375D01*
X26140Y1445D01*
X26141Y1445D01*
X26269D01*
X26270Y1445D01*
X26310Y1375D01*
X26402Y1283D01*
X26515Y1218D01*
X26640Y1184D01*
X26770D01*
X26896Y1218D01*
X27008Y1283D01*
X27100Y1375D01*
X27165Y1487D01*
X27199Y1613D01*
Y1743D01*
X27165Y1869D01*
X27100Y1981D01*
X27008Y2073D01*
X26896Y2138D01*
X26862Y2147D01*
X26843Y2263D01*
X26846Y2274D01*
X26912Y2301D01*
X26968Y2357D01*
X26998Y2429D01*
Y2508D01*
X26968Y2580D01*
X26912Y2636D01*
X26840Y2666D01*
X26819D01*
X26045Y3440D01*
Y4002D01*
X26059Y4016D01*
X26192Y4028D01*
X26331Y3888D01*
X26381Y3855D01*
X26439Y3843D01*
X27162D01*
X27221Y3855D01*
X27270Y3888D01*
X27331Y3948D01*
X27449Y3900D01*
Y3313D01*
X27288Y3152D01*
X27254Y3102D01*
X27243Y3044D01*
Y2395D01*
X27254Y2336D01*
X27288Y2287D01*
X28515Y1060D01*
X28564Y1027D01*
X28623Y1015D01*
X32349D01*
X32407Y1027D01*
X32457Y1060D01*
X32542Y1145D01*
X32601Y1129D01*
X32690D01*
X32776Y1152D01*
X32852Y1196D01*
X32915Y1258D01*
X32959Y1335D01*
X32982Y1421D01*
Y1509D01*
X32966Y1569D01*
X33154Y1757D01*
X33791D01*
Y2176D01*
X34106D01*
Y2175D01*
X34473D01*
X34676Y1972D01*
X34709Y1950D01*
X34748Y1942D01*
X35128D01*
X35248Y1823D01*
X35241Y1807D01*
X35241Y1121D01*
X35250Y1116D01*
X35291Y1058D01*
X35299Y1046D01*
X35313Y1025D01*
X35346Y1003D01*
X35385Y995D01*
X35922D01*
X35947Y992D01*
X56367D01*
X56471Y1006D01*
X56568Y1046D01*
X56652Y1110D01*
X56716Y1194D01*
X56756Y1291D01*
X56767Y1373D01*
X57587Y2193D01*
X57635Y2255D01*
X57665Y2327D01*
X57675Y2405D01*
Y2895D01*
Y6015D01*
Y9145D01*
X57665Y9222D01*
X57635Y9295D01*
X57587Y9357D01*
X57182Y9762D01*
X57120Y9809D01*
X57048Y9839D01*
X56970Y9850D01*
X56893Y9839D01*
X56840Y9817D01*
X56390D01*
Y9345D01*
X56390Y9263D01*
X56390D01*
Y9227D01*
X56390D01*
Y8672D01*
X56964D01*
Y8672D01*
X57076Y8658D01*
Y6687D01*
X56510D01*
Y6215D01*
X56510Y6133D01*
X56510D01*
Y6097D01*
X56510D01*
Y5542D01*
X57076D01*
Y3547D01*
X56510D01*
Y3075D01*
X56510Y2993D01*
X56510D01*
Y2957D01*
X56510D01*
Y2402D01*
X56796D01*
X56841Y2293D01*
X56347Y1799D01*
X51538D01*
X51507Y1873D01*
X51501Y1917D01*
X51545Y1975D01*
X51557Y2005D01*
X51575Y2047D01*
X51585Y2125D01*
Y2755D01*
Y5935D01*
Y9145D01*
X51575Y9222D01*
X51545Y9295D01*
X51497Y9357D01*
X51435Y9404D01*
X51363Y9434D01*
X51356Y9435D01*
X51091Y9700D01*
X51034Y9738D01*
Y9797D01*
X50460D01*
Y9325D01*
X50460Y9243D01*
X50460D01*
Y9207D01*
X50460D01*
Y8652D01*
X50986D01*
Y6597D01*
X50440D01*
Y6125D01*
X50440Y6043D01*
X50440D01*
Y6007D01*
X50440D01*
Y5452D01*
X50986D01*
Y3432D01*
X50421D01*
Y2960D01*
X50421Y2878D01*
X50421D01*
Y2842D01*
X50421D01*
Y2287D01*
X50858D01*
X50906Y2169D01*
X50537Y1799D01*
X45638D01*
X45592Y1908D01*
X45707Y2023D01*
X45755Y2085D01*
X45785Y2157D01*
X45795Y2235D01*
Y2735D01*
Y5845D01*
Y8945D01*
X45785Y9022D01*
X45755Y9095D01*
X45707Y9157D01*
X45645Y9204D01*
X45573Y9234D01*
X45566Y9235D01*
X45261Y9540D01*
X45178Y9596D01*
X45154Y9600D01*
Y9637D01*
X44580D01*
Y9165D01*
X44580Y9083D01*
X44580D01*
Y9047D01*
X44580D01*
Y8492D01*
X45154D01*
X45196Y8392D01*
Y6638D01*
X45154Y6537D01*
X44580D01*
Y6065D01*
X44580Y5983D01*
X44580D01*
Y5947D01*
X44580D01*
Y5392D01*
X45154D01*
X45196Y5292D01*
Y3412D01*
X44641D01*
Y2940D01*
X44641Y2858D01*
X44641D01*
Y2822D01*
X44641D01*
Y2267D01*
X44950D01*
X44995Y2158D01*
X44637Y1799D01*
X39688D01*
X39643Y1908D01*
X39857Y2123D01*
X39905Y2185D01*
X39935Y2257D01*
X39945Y2335D01*
Y2745D01*
Y5975D01*
Y8885D01*
X39935Y8962D01*
X39905Y9035D01*
X39857Y9097D01*
X39795Y9144D01*
X39723Y9174D01*
X39716Y9175D01*
X39381Y9510D01*
X39298Y9566D01*
X39274Y9570D01*
Y9607D01*
X38700D01*
Y9135D01*
X38700Y9053D01*
X38700D01*
Y9017D01*
X38700D01*
Y8462D01*
X39274D01*
X39346Y8374D01*
Y6806D01*
X39324Y6697D01*
X38750D01*
Y6225D01*
X38750Y6143D01*
X38750D01*
Y6107D01*
X38750D01*
Y5552D01*
X39324D01*
X39346Y5444D01*
Y3538D01*
X39304Y3437D01*
X38730D01*
Y2965D01*
X38730Y2883D01*
X38730D01*
Y2847D01*
X38730D01*
Y2292D01*
X39026D01*
X39071Y2183D01*
X38687Y1799D01*
X36160D01*
Y2451D01*
X36152Y2490D01*
X36130Y2523D01*
X36097Y2545D01*
X36058Y2553D01*
X35816D01*
Y2656D01*
X35576D01*
Y2754D01*
X35816D01*
Y2833D01*
X35817D01*
Y2943D01*
X35832Y2956D01*
X35936Y2996D01*
X35937Y2994D01*
X35976Y2987D01*
X36601D01*
X36612Y2978D01*
Y2575D01*
X36627Y2497D01*
X36627Y2497D01*
Y2371D01*
X36815D01*
X36816Y2371D01*
X36817Y2371D01*
X37103D01*
X37131Y2366D01*
X37647D01*
Y2292D01*
X38221D01*
Y2765D01*
X38221Y2847D01*
X38221Y2965D01*
Y3437D01*
X37647D01*
Y2965D01*
X37647Y2883D01*
X37627Y2774D01*
X37131D01*
X37020Y2843D01*
Y5582D01*
X37138Y5628D01*
X37149Y5626D01*
X37667D01*
Y5552D01*
X38241D01*
Y6025D01*
X38241Y6107D01*
X38241Y6225D01*
Y6697D01*
X37667D01*
Y6225D01*
X37667Y6143D01*
X37647Y6034D01*
X37149D01*
X37036Y6102D01*
Y8474D01*
X37138Y8536D01*
X37617D01*
Y8462D01*
X38191D01*
Y8935D01*
X38191Y9017D01*
X38191Y9135D01*
Y9607D01*
X37617D01*
Y9135D01*
X37617Y9053D01*
X37597Y8944D01*
X37138D01*
X37051Y9040D01*
Y9792D01*
X37170Y9922D01*
X37180Y9937D01*
X37190Y9952D01*
X37190Y9954D01*
X37191Y9956D01*
X37194Y9974D01*
X37197Y9991D01*
Y10221D01*
X40919D01*
X41756Y9384D01*
Y6325D01*
Y3177D01*
X41767Y3100D01*
X41796Y3028D01*
X41844Y2966D01*
X41906Y2918D01*
X41978Y2888D01*
X42056Y2878D01*
X42065Y2879D01*
X42493Y2452D01*
Y2346D01*
X42663D01*
X42688Y2341D01*
X42713Y2346D01*
X42969D01*
X42996Y2340D01*
X43559D01*
Y2267D01*
X44133D01*
Y2740D01*
X44133Y2822D01*
X44133Y2940D01*
Y3412D01*
X43559D01*
Y2940D01*
X43559Y2858D01*
X43538Y2748D01*
X42996D01*
X42969Y2743D01*
X42779D01*
X42354Y3168D01*
X42355Y3177D01*
Y5467D01*
X42473Y5530D01*
X42497Y5514D01*
Y5476D01*
X42678D01*
X42706Y5471D01*
X42733Y5476D01*
X42965D01*
X43019Y5466D01*
X43497D01*
Y5392D01*
X44071D01*
Y5865D01*
X44071Y5947D01*
X44071Y6065D01*
Y6537D01*
X43497D01*
Y6065D01*
X43497Y5983D01*
X43477Y5874D01*
X43019D01*
X43018Y5873D01*
X42796D01*
X42355Y6314D01*
Y8597D01*
X42473Y8656D01*
X42515Y8625D01*
Y8571D01*
X42705D01*
X42706Y8571D01*
X42707Y8571D01*
X42991D01*
X43019Y8566D01*
X43497D01*
Y8492D01*
X44071D01*
Y8965D01*
X44071Y9047D01*
X44071Y9165D01*
Y9637D01*
X43497D01*
Y9165D01*
X43497Y9083D01*
X43477Y8974D01*
X43019D01*
X42991Y8968D01*
X42801D01*
X42366Y9403D01*
X42405Y9453D01*
X42445Y9550D01*
X42459Y9655D01*
X42445Y9759D01*
X42405Y9857D01*
X42341Y9940D01*
X42169Y10112D01*
X42214Y10221D01*
X47269D01*
X47596Y9894D01*
Y9607D01*
Y6337D01*
Y3015D01*
X47607Y2937D01*
X47636Y2865D01*
X47684Y2803D01*
X47746Y2756D01*
X47818Y2726D01*
X47896Y2716D01*
X47905Y2717D01*
X48192Y2431D01*
X48250Y2392D01*
X48250Y2376D01*
X48336Y2371D01*
X48363Y2376D01*
X48368Y2377D01*
X48705D01*
X48706Y2376D01*
X48784Y2360D01*
X49339D01*
Y2287D01*
X49913D01*
Y2760D01*
X49913Y2842D01*
X49913Y2960D01*
Y3432D01*
X49339D01*
Y2960D01*
X49339Y2878D01*
X49318Y2768D01*
X48962D01*
Y2773D01*
X48426D01*
X48194Y3005D01*
X48195Y3015D01*
Y5486D01*
X48313Y5569D01*
X48335Y5561D01*
D01*
X48397Y5545D01*
X48430Y5537D01*
X48442Y5534D01*
X48508Y5521D01*
X48586Y5537D01*
X48623Y5561D01*
X48740D01*
X48770Y5541D01*
X48848Y5526D01*
X49357D01*
Y5452D01*
X49931D01*
Y5925D01*
X49931Y6007D01*
X49931Y6125D01*
Y6597D01*
X49357D01*
Y6125D01*
X49357Y6043D01*
X49337Y5934D01*
X49046D01*
Y5958D01*
X48563D01*
X48195Y6326D01*
Y8823D01*
X48310Y8874D01*
X48372Y8824D01*
Y8756D01*
X48470D01*
X48500Y8737D01*
X48578Y8721D01*
X48656Y8737D01*
X48686Y8756D01*
X48800D01*
X48823Y8741D01*
X48901Y8726D01*
X49377D01*
Y8652D01*
X49951D01*
Y9125D01*
X49951Y9207D01*
X49951Y9325D01*
Y9797D01*
X49377D01*
Y9325D01*
X49377Y9243D01*
X49357Y9134D01*
X49084D01*
Y9153D01*
X48638D01*
X48195Y9596D01*
Y9898D01*
X48245Y9963D01*
X48285Y10060D01*
X48299Y10165D01*
X48349Y10221D01*
X52919D01*
X53356Y9784D01*
Y9432D01*
Y6965D01*
Y3128D01*
X53367Y3050D01*
X53396Y2978D01*
X53444Y2916D01*
X53887Y2473D01*
X53949Y2426D01*
X54021Y2396D01*
X54099Y2386D01*
X54176Y2396D01*
X54248Y2426D01*
X54310Y2473D01*
X54316Y2481D01*
X54848D01*
X54876Y2486D01*
X55139D01*
X55142Y2486D01*
X55427Y2481D01*
Y2402D01*
X56001D01*
Y2875D01*
X56001Y2957D01*
X56001Y3075D01*
Y3547D01*
X55427D01*
Y3075D01*
X55427Y3007D01*
X55407Y2936D01*
X55359Y2890D01*
X55149Y2894D01*
X55093Y2883D01*
X54876D01*
X54848Y2889D01*
X54316D01*
X54310Y2897D01*
X53955Y3252D01*
Y6223D01*
X54064Y6268D01*
X54597Y5735D01*
Y5616D01*
X54778D01*
X54806Y5611D01*
X54833Y5616D01*
X55097D01*
X55101Y5616D01*
X55427D01*
Y5542D01*
X56001D01*
Y6015D01*
X56001Y6097D01*
X56001Y6215D01*
Y6687D01*
X55427D01*
Y6215D01*
X55427Y6133D01*
X55407Y6024D01*
X55101D01*
X55050Y6013D01*
X54896D01*
X53955Y6954D01*
Y8645D01*
X54073Y8720D01*
X54123Y8710D01*
X54220Y8729D01*
X54268Y8761D01*
X54746D01*
X54773Y8766D01*
X55013D01*
X55041Y8761D01*
X55307D01*
Y8672D01*
X55881D01*
Y9145D01*
X55881Y9227D01*
X55881Y9345D01*
Y9817D01*
X55307D01*
Y9345D01*
X55307Y9263D01*
X55250Y9169D01*
X55041D01*
X55013Y9163D01*
X54773D01*
X54746Y9169D01*
X54279D01*
X53955Y9493D01*
Y9788D01*
X54005Y9853D01*
X54045Y9951D01*
X54059Y10055D01*
X54045Y10159D01*
X54005Y10257D01*
X53941Y10340D01*
X53371Y10910D01*
X53287Y10974D01*
X53190Y11015D01*
X53086Y11028D01*
X53086Y11028D01*
X47436D01*
X47436Y11028D01*
X47436Y11028D01*
X41086D01*
X41086Y11028D01*
X41086Y11028D01*
X34443D01*
Y11069D01*
X33594D01*
X33593Y11069D01*
D02*
G37*
G36*
X20348Y10745D02*
X20243D01*
X20141Y10718D01*
X20050Y10665D01*
X19976Y10591D01*
X19923Y10499D01*
X19896Y10398D01*
Y10292D01*
X19923Y10191D01*
X19976Y10099D01*
X20050Y10025D01*
X20141Y9972D01*
X20243Y9945D01*
X20348D01*
X20450Y9972D01*
X20541Y10025D01*
X20616Y10099D01*
X20668Y10191D01*
X20696Y10292D01*
Y10398D01*
X20668Y10499D01*
X20616Y10591D01*
X20541Y10665D01*
X20450Y10718D01*
X20348Y10745D01*
D02*
G37*
G36*
X16668Y10735D02*
X16563D01*
X16461Y10708D01*
X16370Y10655D01*
X16296Y10581D01*
X16243Y10489D01*
X16216Y10388D01*
Y10282D01*
X16243Y10181D01*
X16296Y10089D01*
X16370Y10015D01*
X16461Y9962D01*
X16563Y9935D01*
X16668D01*
X16770Y9962D01*
X16861Y10015D01*
X16936Y10089D01*
X16988Y10181D01*
X17016Y10282D01*
Y10388D01*
X16988Y10489D01*
X16936Y10581D01*
X16861Y10655D01*
X16770Y10708D01*
X16668Y10735D01*
D02*
G37*
G36*
X13058D02*
X12953D01*
X12851Y10708D01*
X12760Y10655D01*
X12686Y10581D01*
X12633Y10489D01*
X12606Y10388D01*
Y10282D01*
X12633Y10181D01*
X12686Y10089D01*
X12760Y10015D01*
X12851Y9962D01*
X12953Y9935D01*
X13058D01*
X13160Y9962D01*
X13251Y10015D01*
X13326Y10089D01*
X13378Y10181D01*
X13406Y10282D01*
Y10388D01*
X13378Y10489D01*
X13326Y10581D01*
X13251Y10655D01*
X13160Y10708D01*
X13058Y10735D01*
D02*
G37*
G36*
X5572Y9782D02*
Y9498D01*
X5856D01*
X5834Y9578D01*
X5790Y9654D01*
X5728Y9717D01*
X5652Y9761D01*
X5572Y9782D01*
D02*
G37*
G36*
X5473D02*
X5393Y9761D01*
X5317Y9717D01*
X5255Y9654D01*
X5211Y9578D01*
X5189Y9498D01*
X5473D01*
Y9782D01*
D02*
G37*
G36*
X4529Y9790D02*
X4440D01*
X4354Y9767D01*
X4278Y9723D01*
X4215Y9660D01*
X4171Y9584D01*
X4164Y9558D01*
X4112Y9461D01*
X4045Y9461D01*
X3935D01*
Y9235D01*
X3837D01*
Y9461D01*
X3659D01*
X3636Y9503D01*
X3445D01*
Y9255D01*
X3396D01*
Y9206D01*
X3156D01*
Y9065D01*
X3154D01*
Y8565D01*
X3154D01*
X3228Y8464D01*
Y8386D01*
X3258Y8313D01*
X3314Y8258D01*
X3386Y8227D01*
X3465D01*
X3538Y8258D01*
X3550Y8269D01*
X3622Y8252D01*
X3668Y8221D01*
Y7891D01*
X3733D01*
Y7518D01*
X3723Y7512D01*
X3643Y7432D01*
X3621Y7399D01*
X3613Y7360D01*
Y7035D01*
X3311D01*
Y7078D01*
X2966D01*
Y7128D01*
X2917D01*
Y7344D01*
X2622D01*
Y7319D01*
X2509Y7237D01*
X2418D01*
X2335Y7203D01*
X2270Y7139D01*
X2236Y7055D01*
Y6964D01*
X2270Y6880D01*
X2335Y6816D01*
X2418Y6781D01*
X2509D01*
X2620Y6700D01*
Y6201D01*
Y5807D01*
Y5413D01*
Y5036D01*
X2586Y4999D01*
X2509Y4954D01*
X2418D01*
X2335Y4919D01*
X2270Y4855D01*
X2236Y4771D01*
Y4681D01*
X2270Y4597D01*
X2335Y4533D01*
X2418Y4498D01*
X2509D01*
X2622Y4417D01*
Y4391D01*
X2917D01*
Y4608D01*
X3015D01*
Y4391D01*
X3311D01*
Y4578D01*
X3346Y4592D01*
X3463Y4512D01*
X3459Y3176D01*
X3459Y3176D01*
X3459Y3176D01*
X3463Y3156D01*
X3467Y3137D01*
X3467Y3137D01*
X3467Y3137D01*
X3478Y3120D01*
X3489Y3104D01*
X3489Y3104D01*
X3489Y3104D01*
X3683Y2910D01*
X3696Y2891D01*
X4141Y2446D01*
X4223Y2390D01*
X4321Y2371D01*
X5343D01*
X5441Y2390D01*
X5524Y2446D01*
X5565Y2508D01*
X5931Y2873D01*
X5986Y2956D01*
X6005Y3054D01*
Y4075D01*
X6100D01*
Y4170D01*
X6368D01*
X6726Y3812D01*
X6541Y3627D01*
X6869Y3299D01*
X6869Y3296D01*
X6882Y3277D01*
Y3227D01*
X6932D01*
X6952Y3214D01*
X6955Y3213D01*
X7282Y2886D01*
X7580Y3183D01*
X7680Y3227D01*
X7680D01*
Y3227D01*
X7682D01*
X7724Y3327D01*
X7722Y3329D01*
X7722D01*
X7722Y3329D01*
X7682Y3430D01*
Y4027D01*
X7232D01*
X6654Y4605D01*
X6571Y4660D01*
X6474Y4680D01*
X6100D01*
Y4775D01*
X5400D01*
Y4075D01*
X5496D01*
Y3159D01*
X5217Y2881D01*
X5038D01*
X5012Y2907D01*
X4959Y2999D01*
X4959Y2999D01*
X4962Y3005D01*
Y3012D01*
X4965Y3026D01*
X4980Y3056D01*
X5051Y3120D01*
X5067Y3126D01*
X5099Y3132D01*
X5106D01*
X5112Y3135D01*
X5145Y3142D01*
X5172Y3160D01*
X5178Y3163D01*
X5183Y3167D01*
X5211Y3186D01*
X5229Y3213D01*
X5234Y3218D01*
X5237Y3224D01*
X5255Y3252D01*
X5262Y3284D01*
X5264Y3291D01*
Y3297D01*
X5271Y3330D01*
X5264Y3362D01*
Y3369D01*
X5262Y3375D01*
X5255Y3408D01*
X5237Y3436D01*
X5234Y3442D01*
X5229Y3447D01*
X5211Y3474D01*
X5129Y3556D01*
X5200Y3627D01*
X4902Y3925D01*
X4859Y4025D01*
X4859Y4027D01*
X4859Y4027D01*
X4856Y4029D01*
X4800Y4119D01*
Y4169D01*
Y4775D01*
X4654D01*
Y5321D01*
X4639Y5399D01*
X4595Y5465D01*
X4587Y5473D01*
Y5506D01*
X4575Y5563D01*
X4543Y5612D01*
X4494Y5644D01*
X4437Y5656D01*
X4236D01*
X4143Y5752D01*
Y6558D01*
X6303D01*
X6401Y6577D01*
X6484Y6632D01*
X7675Y7824D01*
X7766Y7771D01*
X7778Y7760D01*
Y7686D01*
X7808Y7613D01*
X7864Y7558D01*
X7912Y7538D01*
X7921Y7534D01*
X7924Y7513D01*
X7924D01*
X7927Y7491D01*
Y7459D01*
X7921Y7416D01*
X7912Y7412D01*
X7864Y7392D01*
X7808Y7337D01*
X7778Y7264D01*
Y7186D01*
X7808Y7113D01*
X7864Y7058D01*
X7906Y7040D01*
X7911Y7038D01*
X7915Y6962D01*
X7907Y6918D01*
X7844Y6892D01*
X7788Y6837D01*
X7758Y6764D01*
Y6686D01*
X7788Y6613D01*
X7844Y6558D01*
X7898Y6535D01*
X7903Y6418D01*
X7898Y6413D01*
X7898Y6413D01*
X7898Y6413D01*
X7898Y6413D01*
X7877Y6404D01*
X7824Y6382D01*
X7768Y6327D01*
X7738Y6254D01*
Y6176D01*
X7768Y6103D01*
X7824Y6048D01*
X7863Y6031D01*
Y5908D01*
X7824Y5892D01*
X7768Y5837D01*
X7738Y5764D01*
Y5686D01*
X7768Y5613D01*
X7824Y5558D01*
X7896Y5527D01*
X7975D01*
X8048Y5558D01*
X8052Y5562D01*
X8504D01*
X8510Y5547D01*
X8520Y5432D01*
X8458Y5368D01*
X8034D01*
X7975Y5392D01*
X7896D01*
X7824Y5362D01*
X7768Y5307D01*
X7738Y5234D01*
Y5156D01*
X7768Y5083D01*
X7824Y5028D01*
X7863Y5011D01*
Y4888D01*
X7824Y4872D01*
X7768Y4817D01*
X7738Y4744D01*
Y4666D01*
X7768Y4593D01*
X7824Y4538D01*
X7896Y4507D01*
X7975D01*
X8048Y4538D01*
X8072Y4562D01*
X8509D01*
X8547Y4537D01*
X8553Y4514D01*
X8553Y4430D01*
X8547Y4406D01*
X8545Y4405D01*
X8682Y4330D01*
X9427D01*
Y4271D01*
X9503D01*
X9496Y4307D01*
X9448Y4378D01*
X9407Y4406D01*
X9400Y4430D01*
X9401Y4514D01*
X9407Y4537D01*
X9449Y4565D01*
X9497Y4637D01*
X9514Y4722D01*
X9497Y4807D01*
X9449Y4880D01*
X9408Y4907D01*
X9402Y4928D01*
Y5017D01*
X9408Y5038D01*
X9449Y5065D01*
X9497Y5137D01*
X9514Y5222D01*
X9497Y5307D01*
X9449Y5380D01*
X9408Y5407D01*
X9402Y5428D01*
Y5517D01*
X9408Y5538D01*
X9449Y5565D01*
X9497Y5637D01*
X9514Y5722D01*
X9497Y5807D01*
X9449Y5880D01*
X9408Y5907D01*
X9402Y5928D01*
Y6017D01*
X9408Y6038D01*
X9449Y6065D01*
X9497Y6137D01*
X9514Y6222D01*
X9497Y6307D01*
X9449Y6380D01*
X9408Y6407D01*
X9402Y6428D01*
Y6517D01*
X9408Y6538D01*
X9449Y6565D01*
X9497Y6637D01*
X9514Y6722D01*
X9497Y6807D01*
X9449Y6880D01*
X9408Y6907D01*
X9402Y6928D01*
Y7017D01*
X9408Y7038D01*
X9449Y7065D01*
X9497Y7137D01*
X9514Y7222D01*
X9497Y7307D01*
X9449Y7380D01*
X9408Y7407D01*
X9402Y7428D01*
Y7517D01*
X9408Y7538D01*
X9449Y7565D01*
X9497Y7637D01*
X9514Y7722D01*
X9508Y7751D01*
X9587Y7869D01*
X10256D01*
X10335Y7751D01*
X10329Y7722D01*
X10346Y7637D01*
X10394Y7565D01*
X10435Y7538D01*
X10441Y7517D01*
Y7428D01*
X10435Y7407D01*
X10394Y7380D01*
X10346Y7307D01*
X10329Y7222D01*
X10346Y7137D01*
X10394Y7065D01*
X10435Y7038D01*
X10441Y7017D01*
Y6928D01*
X10435Y6907D01*
X10394Y6880D01*
X10346Y6807D01*
X10329Y6722D01*
X10346Y6637D01*
X10394Y6565D01*
X10435Y6538D01*
X10441Y6517D01*
Y6428D01*
X10435Y6407D01*
X10394Y6380D01*
X10346Y6307D01*
X10329Y6222D01*
X10346Y6137D01*
X10394Y6065D01*
X10435Y6038D01*
X10441Y6017D01*
Y5928D01*
X10435Y5907D01*
X10394Y5880D01*
X10346Y5807D01*
X10329Y5722D01*
X10346Y5637D01*
X10394Y5565D01*
X10435Y5538D01*
X10441Y5517D01*
Y5428D01*
X10435Y5407D01*
X10394Y5380D01*
X10346Y5307D01*
X10329Y5222D01*
X10346Y5137D01*
X10394Y5065D01*
X10435Y5038D01*
X10441Y5017D01*
Y4928D01*
X10435Y4907D01*
X10394Y4880D01*
X10346Y4807D01*
X10329Y4722D01*
X10346Y4637D01*
X10394Y4565D01*
X10435Y4538D01*
X10441Y4517D01*
Y4428D01*
X10435Y4407D01*
X10394Y4380D01*
X10346Y4307D01*
X10329Y4222D01*
X10346Y4137D01*
X10394Y4065D01*
X10397Y4041D01*
X10295Y3939D01*
X10251Y3873D01*
X10235Y3795D01*
Y3110D01*
X10251Y3032D01*
X10295Y2966D01*
X10598Y2663D01*
X10664Y2619D01*
X10742Y2603D01*
X10920D01*
Y2572D01*
X11356D01*
Y2603D01*
X21553D01*
X21631Y2619D01*
X21697Y2663D01*
X22428Y3394D01*
X22428Y3394D01*
X22472Y3460D01*
X22488Y3538D01*
Y7293D01*
X22472Y7371D01*
X22428Y7437D01*
X22113Y7752D01*
X22047Y7797D01*
X21969Y7812D01*
X21808D01*
X21806Y7814D01*
X21721Y7830D01*
X21310D01*
X20324Y8816D01*
X20241Y8871D01*
X20144Y8891D01*
X18665D01*
X18616Y8901D01*
X12449D01*
X12351Y8881D01*
X12269Y8826D01*
X11822Y8379D01*
X7615D01*
X7537Y8363D01*
X7526Y8380D01*
X7515Y8396D01*
X7515Y8396D01*
X7515Y8396D01*
X7498Y8407D01*
X7482Y8418D01*
X7482Y8418D01*
X7482Y8418D01*
X7462Y8422D01*
X7443Y8426D01*
X7086Y8425D01*
X7041Y8534D01*
X7407Y8900D01*
X7451Y8966D01*
X7467Y9044D01*
Y9314D01*
X7460Y9347D01*
Y9353D01*
X7458Y9359D01*
X7451Y9392D01*
X7433Y9420D01*
X7430Y9426D01*
X7425Y9431D01*
X7407Y9458D01*
X7379Y9477D01*
X7375Y9481D01*
X7368Y9484D01*
X7341Y9502D01*
X7308Y9509D01*
X7302Y9511D01*
X7295D01*
X7263Y9518D01*
X7230Y9511D01*
X7224D01*
X7217Y9509D01*
X7185Y9502D01*
X7157Y9484D01*
X7151Y9481D01*
X7146Y9477D01*
X7119Y9458D01*
X7100Y9431D01*
X7095Y9426D01*
X7093Y9420D01*
X7074Y9392D01*
X7068Y9359D01*
X7065Y9353D01*
Y9347D01*
X7059Y9314D01*
Y9129D01*
X6706Y8776D01*
X6597Y8821D01*
Y9108D01*
X6608D01*
X6694Y9131D01*
X6770Y9175D01*
X6833Y9237D01*
X6877Y9314D01*
X6900Y9400D01*
Y9488D01*
X6877Y9574D01*
X6833Y9650D01*
X6770Y9713D01*
X6694Y9757D01*
X6608Y9780D01*
X6520D01*
X6434Y9757D01*
X6358Y9713D01*
X6295Y9650D01*
X6251Y9574D01*
X6228Y9488D01*
Y9400D01*
X6251Y9314D01*
X6291Y9244D01*
Y8938D01*
X6191Y8895D01*
Y8895D01*
X5439D01*
Y8529D01*
X5324Y8521D01*
Y8521D01*
X4868D01*
X4637Y8752D01*
Y9154D01*
X4691Y9185D01*
X4753Y9247D01*
X4798Y9324D01*
X4820Y9409D01*
Y9498D01*
X4798Y9584D01*
X4753Y9660D01*
X4691Y9723D01*
X4614Y9767D01*
X4529Y9790D01*
D02*
G37*
G36*
X3347Y9503D02*
X3156D01*
Y9304D01*
X3347D01*
Y9503D01*
D02*
G37*
G36*
X26306Y9422D02*
X26115D01*
Y9223D01*
X26306D01*
Y9422D01*
D02*
G37*
G36*
X5856Y9400D02*
X5572D01*
Y9116D01*
X5652Y9137D01*
X5728Y9181D01*
X5790Y9243D01*
X5834Y9320D01*
X5856Y9400D01*
D02*
G37*
G36*
X5473D02*
X5189D01*
X5211Y9320D01*
X5255Y9243D01*
X5317Y9181D01*
X5393Y9137D01*
X5473Y9116D01*
Y9400D01*
D02*
G37*
G36*
X30703Y10151D02*
X30556Y10137D01*
X30415Y10094D01*
X30284Y10024D01*
X30170Y9931D01*
X30077Y9817D01*
X30007Y9686D01*
X29964Y9545D01*
X29950Y9398D01*
X29964Y9251D01*
X30007Y9110D01*
X30077Y8980D01*
X30170Y8865D01*
X30284Y8772D01*
X30415Y8702D01*
X30556Y8659D01*
X30703Y8645D01*
X30850Y8659D01*
X30991Y8702D01*
X31121Y8772D01*
X31235Y8865D01*
X31329Y8980D01*
X31399Y9110D01*
X31442Y9251D01*
X31456Y9398D01*
X31442Y9545D01*
X31399Y9686D01*
X31329Y9817D01*
X31235Y9931D01*
X31121Y10024D01*
X30991Y10094D01*
X30850Y10137D01*
X30703Y10151D01*
D02*
G37*
G36*
X3089Y8291D02*
X2922D01*
Y8104D01*
X3089D01*
Y8291D01*
D02*
G37*
G36*
X1327D02*
X1160D01*
Y8104D01*
X1327D01*
Y8291D01*
D02*
G37*
G36*
X3089Y8006D02*
X2922D01*
Y7819D01*
X3089D01*
Y8006D01*
D02*
G37*
G36*
X1327D02*
X1160D01*
Y7819D01*
X1327D01*
Y8006D01*
D02*
G37*
G36*
X2485Y8678D02*
X2406D01*
X2334Y8648D01*
X2278Y8592D01*
X2248Y8520D01*
Y8441D01*
X2261Y8411D01*
X2261Y8293D01*
X2261D01*
Y7817D01*
X2697D01*
Y7819D01*
X2823D01*
Y8055D01*
Y8291D01*
X2697D01*
Y8293D01*
X2632D01*
Y8414D01*
X2643Y8441D01*
Y8520D01*
X2613Y8592D01*
X2557Y8648D01*
X2485Y8678D01*
D02*
G37*
G36*
X1849Y8694D02*
X1770D01*
X1698Y8664D01*
X1642Y8608D01*
X1612Y8535D01*
Y8457D01*
X1617Y8445D01*
Y8293D01*
X1552D01*
Y8291D01*
X1426D01*
Y8055D01*
Y7819D01*
X1552D01*
Y7817D01*
X1988D01*
Y8293D01*
X1988Y8293D01*
X1988Y8411D01*
X2007Y8457D01*
Y8535D01*
X1977Y8608D01*
X1921Y8664D01*
X1849Y8694D01*
D02*
G37*
G36*
X31614Y7709D02*
X31368D01*
Y7463D01*
X31614D01*
Y7709D01*
D02*
G37*
G36*
X31270D02*
X31024D01*
Y7463D01*
X31270D01*
Y7709D01*
D02*
G37*
G36*
X3311Y7344D02*
X3015D01*
Y7177D01*
X3311D01*
Y7344D01*
D02*
G37*
G36*
X30879Y7339D02*
X30688D01*
Y7141D01*
X30879D01*
Y7339D01*
D02*
G37*
G36*
X6633Y6317D02*
Y5963D01*
X6928D01*
Y6317D01*
X6633D01*
D02*
G37*
G36*
X6928Y5864D02*
X6633D01*
Y5510D01*
X6928D01*
Y5864D01*
D02*
G37*
G36*
X6123Y6319D02*
X6122Y6319D01*
X5431D01*
Y6117D01*
X5287D01*
X5209Y6102D01*
X5143Y6058D01*
X4997Y5912D01*
X4964D01*
X4907Y5900D01*
X4858Y5868D01*
X4826Y5819D01*
X4814Y5762D01*
Y5620D01*
X4826Y5563D01*
X4858Y5514D01*
X4878Y5501D01*
X4885Y5472D01*
Y5398D01*
X4878Y5369D01*
X4858Y5356D01*
X4826Y5307D01*
X4814Y5250D01*
Y5108D01*
X4826Y5051D01*
X4858Y5002D01*
X4907Y4969D01*
X4964Y4958D01*
X5165D01*
X5174Y4960D01*
X5293Y4957D01*
X5293Y4957D01*
X6083D01*
Y4957D01*
X6153Y5000D01*
X6232D01*
X6304Y5030D01*
X6360Y5086D01*
X6390Y5158D01*
Y5237D01*
X6360Y5310D01*
X6304Y5365D01*
X6284Y5392D01*
X6342Y5510D01*
X6357Y5510D01*
X6534D01*
Y5913D01*
Y6317D01*
X6240D01*
X6123Y6319D01*
D02*
G37*
G36*
X33337Y4399D02*
X32953D01*
Y4398D01*
X33337D01*
Y4399D01*
D02*
G37*
G36*
X33819D02*
X33435D01*
Y4398D01*
X33816D01*
Y4094D01*
X33819D01*
Y4399D01*
D02*
G37*
G36*
X9503Y4173D02*
X9427D01*
Y4052D01*
X9448Y4066D01*
X9496Y4138D01*
X9503Y4173D01*
D02*
G37*
G36*
X33819Y3996D02*
X33816D01*
Y3691D01*
X33819D01*
Y3996D01*
D02*
G37*
G36*
X6941Y1648D02*
X6909Y1641D01*
X6893D01*
X6878Y1635D01*
X6863Y1632D01*
X6851Y1624D01*
X6820Y1611D01*
X6765Y1556D01*
X6735Y1483D01*
Y1460D01*
X6714Y1423D01*
X6642Y1367D01*
X6637Y1365D01*
X6626Y1362D01*
X6597Y1356D01*
X6591D01*
X6584Y1353D01*
X6552Y1347D01*
X6524Y1328D01*
X6518Y1326D01*
X6513Y1321D01*
X6486Y1303D01*
X6467Y1275D01*
X6463Y1270D01*
X6460Y1264D01*
X6442Y1236D01*
X6435Y1204D01*
X6432Y1198D01*
Y1191D01*
X6426Y1158D01*
X6361Y1076D01*
X6326Y1058D01*
X4945D01*
X4859Y1144D01*
Y1203D01*
X4800D01*
X4459Y1544D01*
X4161Y1247D01*
X4061Y1203D01*
X4061D01*
Y1203D01*
X4058D01*
X4017Y1103D01*
X4019Y1101D01*
D01*
X4019Y1101D01*
X4058Y1000D01*
Y403D01*
X4655D01*
X4757Y363D01*
X4757Y363D01*
Y363D01*
X4758Y362D01*
X4859Y403D01*
Y405D01*
X4859D01*
Y405D01*
X4902Y505D01*
X4945Y548D01*
X6796D01*
X6839Y505D01*
X6882Y405D01*
Y405D01*
X6882D01*
Y403D01*
X6982Y362D01*
X6984Y363D01*
Y363D01*
X6984Y363D01*
X7086Y403D01*
X7682D01*
Y1000D01*
X7722Y1101D01*
X7722Y1101D01*
D01*
X7724Y1103D01*
X7682Y1203D01*
X7680D01*
Y1203D01*
X7680D01*
X7580Y1247D01*
X7282Y1544D01*
X7206Y1468D01*
X7086Y1588D01*
X7020Y1632D01*
X6941Y1648D01*
D02*
G37*
G36*
X11177Y2200D02*
X11003Y2183D01*
X10836Y2132D01*
X10682Y2050D01*
X10547Y1939D01*
X10436Y1804D01*
X10353Y1650D01*
X10303Y1482D01*
X10286Y1309D01*
X10303Y1135D01*
X10353Y967D01*
X10436Y813D01*
X10547Y678D01*
X10682Y567D01*
X10836Y485D01*
X11003Y434D01*
X11177Y417D01*
X11351Y434D01*
X11518Y485D01*
X11673Y567D01*
X11808Y678D01*
X11919Y813D01*
X12001Y967D01*
X12052Y1135D01*
X12069Y1309D01*
X12052Y1482D01*
X12001Y1650D01*
X11919Y1804D01*
X11808Y1939D01*
X11673Y2050D01*
X11518Y2132D01*
X11351Y2183D01*
X11177Y2200D01*
D02*
G37*
%LPD*%
G36*
X37095Y9991D02*
X36685Y9547D01*
Y9407D01*
X33966Y9397D01*
Y10761D01*
X34123Y10918D01*
X37095D01*
Y9991D01*
D02*
G37*
G36*
X34157Y6347D02*
X33733Y5922D01*
Y5182D01*
X33097Y5184D01*
X33097Y7164D01*
X34157D01*
Y6347D01*
D02*
G37*
G36*
X31006Y5562D02*
X31187D01*
Y4977D01*
X30816Y4607D01*
X30019D01*
Y3862D01*
X29900Y3826D01*
X29890Y3841D01*
X29730Y4002D01*
Y4956D01*
X29773Y4965D01*
X29846Y5013D01*
X29849Y5018D01*
X30259D01*
X30278Y5022D01*
X30289D01*
X30299Y5026D01*
X30318Y5030D01*
X30334Y5040D01*
X30344Y5044D01*
X30351Y5052D01*
X30367Y5063D01*
X30378Y5079D01*
X30386Y5086D01*
X30390Y5096D01*
X30396Y5106D01*
X30433Y5111D01*
X30520Y5107D01*
X30528Y5087D01*
X30569Y5046D01*
X30604Y5031D01*
Y5171D01*
X30653D01*
Y5183D01*
X30683D01*
X30737Y5206D01*
X30752Y5220D01*
X30792D01*
X30780Y5250D01*
X30802Y5303D01*
Y5362D01*
X30779Y5417D01*
X30754Y5442D01*
X30769Y5520D01*
X30790Y5561D01*
X30829D01*
Y5562D01*
X30908D01*
Y5802D01*
X31006D01*
Y5562D01*
D02*
G37*
G36*
X36190Y4474D02*
Y4471D01*
X34601D01*
Y5228D01*
X35493D01*
Y7156D01*
X36190D01*
Y4474D01*
D02*
G37*
G36*
X36601Y3971D02*
Y3089D01*
X35976D01*
Y4190D01*
X36383D01*
X36601Y3971D01*
D02*
G37*
G36*
X32532Y3355D02*
Y2573D01*
X32170Y2211D01*
X31615D01*
X31554Y2272D01*
X30775D01*
Y3373D01*
X32532Y3355D01*
D02*
G37*
G36*
X28744Y3794D02*
X28747Y3791D01*
X28819Y3761D01*
X28840D01*
X29000Y3601D01*
Y2480D01*
X28985Y2466D01*
X28955Y2393D01*
Y2315D01*
X28985Y2242D01*
X29041Y2187D01*
X29113Y2157D01*
X29192D01*
X29264Y2187D01*
X29320Y2242D01*
X29350Y2315D01*
Y2374D01*
X29352Y2395D01*
X29439Y2488D01*
X29551D01*
Y2736D01*
X29600D01*
Y2785D01*
X29841D01*
Y2864D01*
X29842D01*
Y2910D01*
X30005D01*
Y2708D01*
X30300D01*
Y2659D01*
X30350D01*
Y2364D01*
X30596D01*
X30671Y2280D01*
X30673Y2276D01*
Y2272D01*
X30680Y2233D01*
X30680Y2233D01*
X30703Y2200D01*
X30711Y2192D01*
X30721Y2182D01*
X30723Y2066D01*
X30723D01*
Y1955D01*
X31550D01*
X31661Y2066D01*
X32005D01*
X32116Y2096D01*
X32117Y2084D01*
X32117D01*
Y2109D01*
X32170D01*
X32209Y2116D01*
X32242Y2139D01*
X32242Y2139D01*
X32605Y2501D01*
X32627Y2534D01*
X32634Y2573D01*
Y2604D01*
X32749Y2656D01*
X32826Y2612D01*
X32911Y2589D01*
X33000D01*
X33086Y2612D01*
X33133Y2639D01*
X33318D01*
Y2193D01*
X33000D01*
Y2036D01*
X32750Y1785D01*
X32690Y1801D01*
X32601D01*
X32516Y1778D01*
X32439Y1734D01*
X32377Y1671D01*
X32332Y1595D01*
X32310Y1509D01*
Y1421D01*
X32219Y1321D01*
X31628D01*
Y1322D01*
X30723D01*
Y1321D01*
X28686D01*
X27879Y2128D01*
X27885Y2177D01*
X27921Y2253D01*
X27979Y2269D01*
X28056Y2313D01*
X28118Y2376D01*
X28162Y2453D01*
X28185Y2538D01*
Y2627D01*
X28162Y2712D01*
X28118Y2789D01*
X28056Y2851D01*
X28041Y2860D01*
X28040Y2908D01*
X28155Y2996D01*
X28156Y2996D01*
X28243D01*
X28329Y3019D01*
X28406Y3063D01*
X28468Y3126D01*
X28512Y3203D01*
X28535Y3288D01*
Y3377D01*
X28512Y3462D01*
X28468Y3539D01*
X28452Y3555D01*
X28455Y3617D01*
X28514Y3719D01*
X28593D01*
X28665Y3749D01*
X28721Y3804D01*
X28744Y3794D01*
D02*
G37*
G36*
X35332Y2451D02*
X36058D01*
Y1697D01*
X36816D01*
Y1097D01*
X35385D01*
Y1830D01*
X35170Y2044D01*
X34748D01*
X34535Y2257D01*
Y2679D01*
X34364Y2748D01*
X34190D01*
X34183Y2755D01*
Y2935D01*
X35332D01*
Y2451D01*
D02*
G37*
%LPC*%
G36*
X30792Y5122D02*
X30702D01*
Y5031D01*
X30736Y5046D01*
X30778Y5087D01*
X30792Y5122D01*
D02*
G37*
G36*
X29841Y2686D02*
X29650D01*
Y2488D01*
X29841D01*
Y2686D01*
D02*
G37*
G36*
X30251Y2610D02*
X30005D01*
Y2364D01*
X30251D01*
Y2610D01*
D02*
G37*
%LPD*%
G36*
X6198Y7066D02*
X4790D01*
Y7590D01*
X5093Y7905D01*
X5542Y7964D01*
X6676D01*
Y8167D01*
X6831Y8322D01*
X7443Y8324D01*
X6198Y7066D01*
D02*
G37*
G36*
X4041Y7331D02*
Y3117D01*
X4147Y3010D01*
X4166Y2991D01*
X4147Y2972D01*
X3956Y2781D01*
X3561Y3176D01*
X3566Y4713D01*
X3471Y4828D01*
X3254D01*
Y5024D01*
X3497D01*
X3715Y5242D01*
X3715Y7360D01*
X3795Y7439D01*
X3932D01*
X4041Y7331D01*
D02*
G37*
D10*
X4197Y3888D02*
X7544D01*
Y542D02*
Y3888D01*
X4197Y542D02*
X7544D01*
X4197D02*
Y3888D01*
X26015Y640D02*
G03*
X26015Y640I-295J0D01*
G01*
X33251Y2925D02*
G03*
X33251Y2925I-295J0D01*
G01*
X5818Y9449D02*
G03*
X5818Y9449I-295J0D01*
G01*
X6859Y9444D02*
G03*
X6859Y9444I-295J0D01*
G01*
X4780Y9454D02*
G03*
X4780Y9454I-295J0D01*
G01*
X28144Y2582D02*
G03*
X28144Y2582I-295J0D01*
G01*
X28494Y3332D02*
G03*
X28494Y3332I-295J0D01*
G01*
X32941Y1465D02*
G03*
X32941Y1465I-295J0D01*
G01*
X23988Y649D02*
G03*
X23988Y649I-295J0D01*
G01*
X4542Y7346D02*
Y7563D01*
X4434Y7455D02*
X4651D01*
X35147Y4818D02*
X35541D01*
X35344Y4621D02*
Y5015D01*
X19835Y6135D02*
X20051D01*
X19943Y6027D02*
Y6243D01*
X5983Y5913D02*
X6377D01*
X6180Y5717D02*
Y6110D01*
X14134Y3066D02*
X14528D01*
X14331Y2869D02*
Y3263D01*
X23154Y1127D02*
X27249D01*
Y2229D01*
X23154D02*
X27249D01*
X23154Y1127D02*
Y2229D01*
X27562Y6272D02*
X27956D01*
X27759Y6075D02*
Y6469D01*
X1573Y7947D02*
Y8163D01*
X1465Y8055D02*
X1681D01*
X2676Y7947D02*
Y8163D01*
X2567Y8055D02*
X2784D01*
X19965Y5027D02*
Y5243D01*
X19857Y5135D02*
X20074D01*
X20426Y4012D02*
Y4228D01*
X20317Y4120D02*
X20534D01*
X18047Y2987D02*
X18264D01*
X18155Y2879D02*
Y3095D01*
X15908Y3001D02*
X16125D01*
X16017Y2893D02*
Y3109D01*
X13173Y2978D02*
X13390D01*
X13281Y2870D02*
Y3087D01*
X11029Y2946D02*
X11246D01*
X11138Y2838D02*
Y3054D01*
X19218Y2866D02*
Y3260D01*
X19021Y3063D02*
X19414D01*
X17093Y2863D02*
Y3257D01*
X16897Y3060D02*
X17290D01*
X12228Y2865D02*
Y3259D01*
X12032Y3062D02*
X12425D01*
X11904Y5137D02*
Y5353D01*
X11796Y5245D02*
X12012D01*
X11909Y4612D02*
Y4829D01*
X11801Y4720D02*
X12017D01*
X22351Y5661D02*
Y6055D01*
X22154Y5858D02*
X22548D01*
X20874Y7925D02*
X23827D01*
X20874Y3791D02*
X23827D01*
X20874D02*
Y7925D01*
X23827Y3791D02*
Y7925D01*
X9922Y5775D02*
Y6169D01*
X9725Y5972D02*
X10119D01*
X8445Y3905D02*
X11398D01*
X8445Y8039D02*
X11398D01*
Y3905D02*
Y8039D01*
X8445Y3905D02*
Y8039D01*
X29492Y2925D02*
X29709D01*
X29600Y2816D02*
Y3033D01*
X30300Y2738D02*
Y3131D01*
X30104Y2935D02*
X30497D01*
X31876Y2037D02*
Y2253D01*
X31767Y2145D02*
X31984D01*
X30979Y2125D02*
X31373D01*
X31176Y1928D02*
Y2322D01*
X33278Y1975D02*
X33514D01*
X33396Y1857D02*
Y2093D01*
X36983Y2452D02*
Y2688D01*
X36865Y2570D02*
X37101D01*
X33546Y2487D02*
Y2703D01*
X33437Y2595D02*
X33654D01*
X34007Y2845D02*
X34224D01*
X34116Y2737D02*
Y2953D01*
X34870Y1754D02*
Y2148D01*
X34673Y1951D02*
X35067D01*
X35576Y2786D02*
Y3002D01*
X35467Y2894D02*
X35684D01*
X33189Y4745D02*
X33583D01*
X33386Y4548D02*
Y4942D01*
X33536Y10418D02*
Y10812D01*
X33339Y10615D02*
X33733D01*
X37001Y5712D02*
Y5948D01*
X36883Y5830D02*
X37119D01*
X36956Y8617D02*
Y8853D01*
X36838Y8735D02*
X37074D01*
X42871Y8652D02*
Y8888D01*
X42753Y8770D02*
X42989D01*
X42849Y2426D02*
Y2662D01*
X42731Y2544D02*
X42967D01*
X42735Y5675D02*
X42972D01*
X42853Y5557D02*
Y5793D01*
X48690Y5642D02*
Y5878D01*
X48572Y5760D02*
X48809D01*
X48728Y8837D02*
Y9073D01*
X48610Y8955D02*
X48846D01*
X48606Y2457D02*
Y2693D01*
X48488Y2575D02*
X48724D01*
X54878Y2685D02*
X55114D01*
X54996Y2567D02*
Y2803D01*
X54835Y5815D02*
X55072D01*
X54953Y5697D02*
Y5933D01*
X54893Y8847D02*
Y9083D01*
X54775Y8965D02*
X55012D01*
X33791Y9923D02*
X34007D01*
X33899Y9815D02*
Y10032D01*
X34509Y7905D02*
X34903D01*
X34706Y7708D02*
Y8102D01*
X26066Y8877D02*
Y9093D01*
X25957Y8985D02*
X26174D01*
X11823Y6713D02*
X12040D01*
X11932Y6605D02*
Y6822D01*
X11832Y7213D02*
X12049D01*
X11940Y7105D02*
Y7322D01*
X11810Y5715D02*
X12026D01*
X11918Y5607D02*
Y5823D01*
X11812Y6203D02*
X12029D01*
X11921Y6094D02*
Y6311D01*
X11748Y7734D02*
X11964D01*
X11856Y7625D02*
Y7842D01*
X30259Y5252D02*
X30653D01*
X30456Y5055D02*
Y5448D01*
X19847Y6625D02*
X20063D01*
X19955Y6517D02*
Y6733D01*
X19845Y5665D02*
X20062D01*
X19953Y5557D02*
Y5773D01*
X5570Y5175D02*
X5806D01*
X5688Y5057D02*
Y5293D01*
X3886Y8930D02*
Y9146D01*
X3777Y9038D02*
X3994D01*
X30769Y6144D02*
Y6361D01*
X30661Y6252D02*
X30877D01*
X3778Y8265D02*
X3994D01*
X3886Y8157D02*
Y8373D01*
X19859Y7149D02*
X20076D01*
X19968Y7040D02*
Y7257D01*
X30531Y6902D02*
X30747D01*
X30639Y6794D02*
Y7011D01*
X6326Y8027D02*
X6542D01*
X6434Y7918D02*
Y8135D01*
X3396Y8927D02*
Y9143D01*
X3287Y9035D02*
X3504D01*
X31319Y6941D02*
Y7335D01*
X31122Y7138D02*
X31516D01*
X19877Y4750D02*
X20094D01*
X19985Y4642D02*
Y4858D01*
X25417Y8986D02*
X25634D01*
X25526Y8878D02*
Y9094D01*
X30768Y5694D02*
Y5911D01*
X30660Y5802D02*
X30876D01*
X5100Y4228D02*
Y4622D01*
X4904Y4425D02*
X5297D01*
D11*
X30576Y2385D02*
Y3485D01*
X30025Y2385D02*
X30576D01*
X30025D02*
Y3485D01*
X30576D01*
X31044Y6588D02*
Y7688D01*
X31595D01*
Y6588D02*
Y7688D01*
X31044Y6588D02*
X31595D01*
X32811Y3839D02*
X33961D01*
Y5650D01*
X32811D02*
X33961D01*
X32811Y3839D02*
Y5650D01*
D12*
X4306Y7022D02*
X4779D01*
X4306Y7888D02*
X4779D01*
X4306Y7022D02*
Y7888D01*
X4779Y7022D02*
Y7888D01*
X36388Y3480D02*
Y6157D01*
X34301Y3480D02*
Y6157D01*
X36388D01*
X34301Y3480D02*
X36388D01*
X19648Y5977D02*
Y6292D01*
X20238Y5977D02*
Y6292D01*
X19648D02*
X20238D01*
X19648Y5977D02*
X20238D01*
X5334Y5402D02*
Y6425D01*
X7027Y5402D02*
Y6425D01*
X5334D02*
X7027D01*
X5334Y5402D02*
X7027D01*
X13465Y2436D02*
Y3696D01*
X15197Y2436D02*
Y3696D01*
X13465D02*
X15197D01*
X13465Y2436D02*
X15197D01*
X30003Y4028D02*
Y8516D01*
X25515Y4028D02*
Y8516D01*
Y4028D02*
X30003D01*
X25515Y8516D02*
X30003D01*
X1160Y7838D02*
X1987D01*
X1160Y8271D02*
X1987D01*
Y7838D02*
Y8271D01*
X1160Y7838D02*
Y8271D01*
X2262Y8271D02*
X3089D01*
X2262Y7838D02*
X3089D01*
X2262D02*
Y8271D01*
X3089Y7838D02*
Y8271D01*
X19623Y4958D02*
X20307D01*
X19623Y5312D02*
X20307D01*
Y4958D02*
Y5312D01*
X19623Y4958D02*
Y5312D01*
X20084Y3943D02*
X20768D01*
X20084Y4297D02*
X20768D01*
Y3943D02*
Y4297D01*
X20084Y3943D02*
Y4297D01*
X18333Y2645D02*
Y3329D01*
X17978Y2645D02*
Y3329D01*
X18333D01*
X17978Y2645D02*
X18333D01*
X16194Y2659D02*
Y3343D01*
X15840Y2659D02*
Y3343D01*
X16194D01*
X15840Y2659D02*
X16194D01*
X13459Y2637D02*
Y3320D01*
X13104Y2637D02*
Y3320D01*
X13459D01*
X13104Y2637D02*
X13459D01*
X11315Y2604D02*
Y3288D01*
X10961Y2604D02*
Y3288D01*
X11315D01*
X10961Y2604D02*
X11315D01*
X18351Y2433D02*
X20084D01*
X18351Y3693D02*
X20084D01*
Y2433D02*
Y3693D01*
X18351Y2433D02*
Y3693D01*
X16227Y2430D02*
X17960D01*
X16227Y3690D02*
X17960D01*
Y2430D02*
Y3690D01*
X16227Y2430D02*
Y3690D01*
X11362Y2432D02*
X13094D01*
X11362Y3692D02*
X13094D01*
Y2432D02*
Y3692D01*
X11362Y2432D02*
Y3692D01*
X11562Y5422D02*
X12246D01*
X11562Y5068D02*
X12246D01*
X11562D02*
Y5422D01*
X12246Y5068D02*
Y5422D01*
X11567Y4897D02*
X12251D01*
X11567Y4543D02*
X12251D01*
X11567D02*
Y4897D01*
X12251Y4543D02*
Y4897D01*
X31201Y4113D02*
X31595D01*
X31398Y3916D02*
Y4310D01*
X32776Y3444D02*
Y4782D01*
X30020D02*
X32776D01*
X30020Y3444D02*
Y4782D01*
Y3444D02*
X32776D01*
X29364Y2492D02*
Y3358D01*
X29837Y2492D02*
Y3358D01*
X29364Y2492D02*
X29837D01*
X29364Y3358D02*
X29837D01*
X29887Y3604D02*
X30714D01*
X29887Y2265D02*
X30714D01*
Y3604D01*
X29887Y2265D02*
Y3604D01*
X31640Y2578D02*
X32112D01*
X31640Y1712D02*
X32112D01*
Y2578D01*
X31640Y1712D02*
Y2578D01*
X30723Y1219D02*
Y3030D01*
X31628Y1219D02*
Y3030D01*
X30723Y1219D02*
X31628D01*
X30723Y3030D02*
X31628D01*
X33750Y1798D02*
Y2152D01*
X33041Y1798D02*
Y2152D01*
Y1798D02*
X33750D01*
X33041Y2152D02*
X33750D01*
X36688Y2412D02*
X37279D01*
X36688Y2727D02*
X37279D01*
Y2412D02*
Y2727D01*
X36688Y2412D02*
Y2727D01*
X33329Y2182D02*
X33762D01*
X33329Y3008D02*
X33762D01*
X33329Y2182D02*
Y3008D01*
X33762Y2182D02*
Y3008D01*
X33820Y2687D02*
Y3002D01*
X34411Y2687D02*
Y3002D01*
X33820D02*
X34411D01*
X33820Y2687D02*
X34411D01*
X34496Y1203D02*
X35244D01*
X34496Y2699D02*
X35244D01*
X34496Y1203D02*
Y2699D01*
X35244Y1203D02*
Y2699D01*
X35340Y2461D02*
X35812D01*
X35340Y3327D02*
X35812D01*
X35340Y2461D02*
Y3327D01*
X35812Y2461D02*
Y3327D01*
X32630Y11068D02*
X34441D01*
X32630Y10162D02*
X34441D01*
X32630D02*
Y11068D01*
X34441Y10162D02*
Y11068D01*
X36706Y5672D02*
X37296D01*
X36706Y5987D02*
X37296D01*
Y5672D02*
Y5987D01*
X36706Y5672D02*
Y5987D01*
X36660Y8577D02*
X37251D01*
X36660Y8892D02*
X37251D01*
Y8577D02*
Y8892D01*
X36660Y8577D02*
Y8892D01*
X42576Y8612D02*
X43166D01*
X42576Y8927D02*
X43166D01*
Y8612D02*
Y8927D01*
X42576Y8612D02*
Y8927D01*
X42553Y2387D02*
X43144D01*
X42553Y2702D02*
X43144D01*
Y2387D02*
Y2702D01*
X42553Y2387D02*
Y2702D01*
X42558Y5517D02*
Y5832D01*
X43149Y5517D02*
Y5832D01*
X42558D02*
X43149D01*
X42558Y5517D02*
X43149D01*
X48395Y5602D02*
X48986D01*
X48395Y5917D02*
X48986D01*
Y5602D02*
Y5917D01*
X48395Y5602D02*
Y5917D01*
X48433Y8797D02*
X49023D01*
X48433Y9112D02*
X49023D01*
Y8797D02*
Y9112D01*
X48433Y8797D02*
Y9112D01*
X48310Y2417D02*
X48901D01*
X48310Y2732D02*
X48901D01*
Y2417D02*
Y2732D01*
X48310Y2417D02*
Y2732D01*
X54700Y2527D02*
Y2842D01*
X55291Y2527D02*
Y2842D01*
X54700D02*
X55291D01*
X54700Y2527D02*
X55291D01*
X54658Y5657D02*
Y5972D01*
X55249Y5657D02*
Y5972D01*
X54658D02*
X55249D01*
X54658Y5657D02*
X55249D01*
X54598Y8807D02*
X55189D01*
X54598Y9122D02*
X55189D01*
Y8807D02*
Y9122D01*
X54598Y8807D02*
Y9122D01*
X34332Y9687D02*
Y10160D01*
X33466Y9687D02*
Y10160D01*
Y9687D02*
X34332D01*
X33466Y10160D02*
X34332D01*
X25830Y9418D02*
X26302D01*
X25830Y8552D02*
X26302D01*
Y9418D01*
X25830Y8552D02*
Y9418D01*
X12227Y6556D02*
Y6871D01*
X11636Y6556D02*
Y6871D01*
Y6556D02*
X12227D01*
X11636Y6871D02*
X12227D01*
X12236Y7056D02*
Y7371D01*
X11645Y7056D02*
Y7371D01*
Y7056D02*
X12236D01*
X11645Y7371D02*
X12236D01*
X12213Y5557D02*
Y5872D01*
X11623Y5557D02*
Y5872D01*
Y5557D02*
X12213D01*
X11623Y5872D02*
X12213D01*
X12216Y6045D02*
Y6360D01*
X11625Y6045D02*
Y6360D01*
Y6045D02*
X12216D01*
X11625Y6360D02*
X12216D01*
X12151Y7576D02*
Y7891D01*
X11561Y7576D02*
Y7891D01*
Y7576D02*
X12151D01*
X11561Y7891D02*
X12151D01*
X30860Y4986D02*
Y5517D01*
X30052Y4986D02*
Y5517D01*
Y4986D02*
X30860D01*
X30052Y5517D02*
X30860D01*
X19660Y6467D02*
Y6782D01*
X20250Y6467D02*
Y6782D01*
X19660D02*
X20250D01*
X19660Y6467D02*
X20250D01*
X19658Y5507D02*
Y5822D01*
X20249Y5507D02*
Y5822D01*
X19658D02*
X20249D01*
X19658Y5507D02*
X20249D01*
X6042Y4998D02*
Y5352D01*
X5333Y4998D02*
Y5352D01*
Y4998D02*
X6042D01*
X5333Y5352D02*
X6042D01*
X3669Y8625D02*
X4102D01*
X3669Y9451D02*
X4102D01*
X3669Y8625D02*
Y9451D01*
X4102Y8625D02*
Y9451D01*
X30427Y6429D02*
X31111D01*
X30427Y6075D02*
X31111D01*
X30427D02*
Y6429D01*
X31111Y6075D02*
Y6429D01*
X3709Y7923D02*
Y8607D01*
X4063Y7923D02*
Y8607D01*
X3709Y7923D02*
X4063D01*
X3709Y8607D02*
X4063D01*
X19672Y6991D02*
Y7306D01*
X20263Y6991D02*
Y7306D01*
X19672D02*
X20263D01*
X19672Y6991D02*
X20263D01*
X30875Y6469D02*
Y7335D01*
X30403Y6469D02*
Y7335D01*
X30875D01*
X30403Y6469D02*
X30875D01*
X6670Y7594D02*
Y8460D01*
X6198Y7594D02*
Y8460D01*
X6670D01*
X6198Y7594D02*
X6670D01*
X3160Y8602D02*
X3632D01*
X3160Y9468D02*
X3632D01*
X3160Y8602D02*
Y9468D01*
X3632Y8602D02*
Y9468D01*
X30906Y6469D02*
X31733D01*
X30906Y7807D02*
X31733D01*
X30906Y6469D02*
Y7807D01*
X31733Y6469D02*
Y7807D01*
X19690Y4593D02*
Y4907D01*
X20281Y4593D02*
Y4907D01*
X19690D02*
X20281D01*
X19690Y4593D02*
X20281D01*
X25762Y8553D02*
Y9419D01*
X25290Y8553D02*
Y9419D01*
X25762D01*
X25290Y8553D02*
X25762D01*
X30335Y5566D02*
X31201D01*
X30335Y6039D02*
X31201D01*
Y5566D02*
Y6039D01*
X30335Y5566D02*
Y6039D01*
X4156Y3952D02*
X6045D01*
X4156Y4897D02*
X6045D01*
Y3952D02*
Y4897D01*
X4156Y3952D02*
Y4897D01*
X1902Y5868D02*
X2099D01*
X2001Y5769D02*
Y5966D01*
D13*
X23586Y5135D02*
X24656D01*
X7010Y3355D02*
X7282Y3627D01*
X28859Y3959D02*
X29153Y3665D01*
Y2354D02*
Y3665D01*
X29564Y5745D02*
Y5814D01*
X3876Y6813D02*
Y6840D01*
X29423Y5171D02*
X30259D01*
X4484Y8689D02*
X4949Y8224D01*
X4484Y8689D02*
Y9454D01*
X6444Y9324D02*
X6564Y9444D01*
X3876Y7339D02*
X3886Y7349D01*
Y8090D01*
X18638Y3162D02*
X18794Y3319D01*
X18156Y3162D02*
X18638D01*
X16531Y3176D02*
X16670Y3316D01*
X16017Y3176D02*
X16531D01*
X13787Y3322D02*
X13907D01*
X13619Y3154D02*
X13787Y3322D01*
X13282Y3154D02*
X13619D01*
X19116Y3641D02*
Y3825D01*
X18794Y3319D02*
X19116Y3641D01*
X19116Y4256D02*
X19352Y4492D01*
X19116Y3758D02*
Y4256D01*
X13115Y3381D02*
Y3757D01*
Y3381D02*
X13279Y3218D01*
X6932Y1444D02*
X6941D01*
X6985Y803D02*
X7282D01*
X6982D02*
X6985D01*
X4459Y3627D02*
X4758D01*
X4459Y3350D02*
Y3627D01*
X4758D02*
X4770D01*
X25892Y3377D02*
Y4128D01*
Y3377D02*
X26800Y2468D01*
X25788Y4608D02*
X26025D01*
X25769Y4589D02*
X25788Y4608D01*
X25564Y4589D02*
X25769D01*
X25544Y4608D02*
X25564Y4589D01*
X23296Y4608D02*
X25544D01*
X26430Y4836D02*
X26657Y4609D01*
X25666Y4836D02*
X26430D01*
X26025Y4608D02*
X26497Y4136D01*
X26024Y4411D02*
X26439Y3996D01*
X24472Y4411D02*
X26024D01*
X6444Y8382D02*
Y9324D01*
X12984Y5233D02*
X13116Y5101D01*
Y3758D02*
Y5101D01*
X19878Y4492D02*
X20250Y4120D01*
X19352Y4492D02*
X19878D01*
X20613Y4108D02*
X21406D01*
X20167Y5108D02*
X21406D01*
X17116Y4172D02*
X18079Y5135D01*
X16674Y3316D02*
X17116Y3758D01*
X18079Y5135D02*
X19790D01*
X17116Y3758D02*
Y4172D01*
X23705Y642D02*
Y1678D01*
X25067Y3040D02*
Y3846D01*
X23705Y1678D02*
X25067Y3040D01*
X27287Y4121D02*
Y4609D01*
X27162Y3996D02*
X27287Y4121D01*
X26972Y4271D02*
Y4609D01*
X26837Y4136D02*
X26972Y4271D01*
X26439Y3996D02*
X27162D01*
X24196Y4135D02*
X24472Y4411D01*
X26497Y4136D02*
X26837D01*
X33822Y6724D02*
X34706D01*
X27602Y3250D02*
Y4609D01*
X33156Y1975D02*
X33228D01*
X32646Y1465D02*
X33156Y1975D01*
X27396Y3044D02*
X27602Y3250D01*
X27396Y2395D02*
Y3044D01*
Y2395D02*
X28623Y1168D01*
X32349D01*
X32646Y1465D01*
X2479Y8055D02*
Y8480D01*
X2966Y6360D02*
X3493D01*
X23696Y6745D02*
X26096D01*
X23586Y6635D02*
X23696Y6745D01*
X23586Y4135D02*
X24196D01*
X25321Y5800D02*
X26096D01*
X24656Y5135D02*
X25321Y5800D01*
X25353Y6115D02*
X26096D01*
X24873Y5635D02*
X25353Y6115D01*
X4459Y803D02*
X4758D01*
X4459D02*
Y1103D01*
X35076Y3265D02*
X35086Y3786D01*
X25393Y1990D02*
X25705Y1678D01*
X25391Y4091D02*
X25393Y1990D01*
X11142Y3193D02*
X11210Y3261D01*
X11800D01*
X12084Y3545D01*
Y4720D01*
X12091Y5233D02*
X12984D01*
X25720Y640D02*
Y1663D01*
X31077Y2706D02*
X31173D01*
X31047Y2736D02*
X31077Y2706D01*
X27602Y7936D02*
Y8625D01*
X27917Y7936D02*
Y8635D01*
X30204Y3114D02*
X30300Y3210D01*
X3337Y5179D02*
X3510Y5351D01*
X2966Y5179D02*
X3337D01*
X1770Y8457D02*
X1810Y8496D01*
X1770Y8055D02*
Y8457D01*
X3426Y8425D02*
Y8785D01*
X3396Y8815D02*
X3426Y8785D01*
X3886Y8440D02*
Y8841D01*
X4450Y4425D02*
X4459Y4417D01*
X30267Y6115D02*
X30579Y5802D01*
X29423Y6115D02*
X30267D01*
X35097Y6724D02*
X35397D01*
X34706D02*
X35097D01*
X10869Y4720D02*
X11734D01*
X10889Y5245D02*
X11729D01*
X29564Y5814D02*
X30094D01*
X29423Y5170D02*
Y5171D01*
X28547Y4609D02*
X28554Y4602D01*
Y3916D02*
Y4602D01*
X55131Y2675D02*
X55146Y2690D01*
X30343Y6430D02*
X30626Y6713D01*
X30639D01*
X6170Y5175D02*
X6192Y5198D01*
X5855Y5175D02*
X6170D01*
X27806Y2626D02*
X27849Y2582D01*
X27806Y3765D02*
X27917Y3876D01*
X27806Y2626D02*
Y3765D01*
X28232Y3332D02*
Y4609D01*
X28861Y8589D02*
X28864Y8616D01*
X28231Y8613D02*
X28232Y8553D01*
X28861Y7936D02*
Y8589D01*
X28547Y7936D02*
Y8606D01*
X28232Y7936D02*
Y8553D01*
X27287Y8596D02*
X27296Y8605D01*
X27287Y7936D02*
Y8596D01*
X26972Y7936D02*
X26986Y7950D01*
Y8595D01*
X29423Y7375D02*
X29430Y7382D01*
X30149D01*
X30137Y7060D02*
X30149Y7072D01*
X29423Y7060D02*
X30137D01*
X29423Y6745D02*
X29430Y6752D01*
X30149D01*
X7936Y4705D02*
X7946Y4715D01*
X8675D01*
X7936Y5195D02*
X7956Y5215D01*
X8675D01*
X7936Y5725D02*
X7946Y5715D01*
X8675D01*
X7936Y6215D02*
X8675D01*
X7956Y6725D02*
X7966Y6715D01*
X8675D01*
X8665Y7225D02*
X8675Y7215D01*
X7976Y7225D02*
X8665D01*
X7976Y7725D02*
X7986Y7715D01*
X8675D01*
X23586Y7107D02*
X26049D01*
X26096Y7060D01*
X23586Y7107D02*
Y7135D01*
X26049Y6383D02*
X26096Y6430D01*
X25338Y6383D02*
X26049D01*
X25090Y6135D02*
X25338Y6383D01*
X23586Y6135D02*
X25090D01*
X23586Y5635D02*
X24873D01*
X27240Y4562D02*
X27287Y4609D01*
X26091Y5175D02*
X26096Y5170D01*
X25386Y5175D02*
X26091D01*
X25376Y5485D02*
X26096D01*
X33496Y2789D02*
X33892D01*
X33559Y2385D02*
X33563Y2381D01*
X33546Y2398D02*
X33559Y2385D01*
X33563Y1975D02*
Y2381D01*
X33559Y2385D02*
X33954D01*
X33499Y2792D02*
X33912Y3205D01*
X33496Y2789D02*
X33499Y2792D01*
X33546D01*
X33089D02*
X33499D01*
X32956Y2925D02*
X33089Y2792D01*
X27917Y3876D02*
Y4609D01*
X29423Y5485D02*
X30107D01*
X30259Y5332D01*
X26065Y8797D02*
X26066Y8796D01*
X31319Y6252D02*
X31339Y6272D01*
X31319Y6292D02*
X31339Y6272D01*
X31170Y6713D02*
X31319Y6862D01*
X29423Y6430D02*
X30343D01*
X30579Y6238D02*
X30594Y6252D01*
X3426Y8425D02*
X3441Y8440D01*
X3396Y8815D02*
X3432Y8851D01*
X3876D01*
X3886Y8841D01*
X5516Y5179D02*
X5520Y5175D01*
X5065Y5179D02*
X5516D01*
X34586Y3485D02*
Y3786D01*
X34306Y3205D02*
X34586Y3485D01*
X35586Y3115D02*
Y3786D01*
X33892Y2789D02*
X33948Y2845D01*
X37111Y2575D02*
X37116Y2570D01*
X33912Y3205D02*
X34306D01*
X42983Y2545D02*
X42984Y2544D01*
X43019Y8770D02*
X43021Y8767D01*
X48753Y2575D02*
X48754Y2574D01*
X48803Y5725D02*
X48838Y5760D01*
X48876Y8955D02*
X48901Y8930D01*
X43001Y5675D02*
X43006Y5670D01*
X37111Y5835D02*
X37116Y5830D01*
X37103Y8735D02*
X37128Y8760D01*
X48336Y2575D02*
X48458D01*
X50747Y9520D02*
X50910D01*
X22887Y11584D02*
X33911D01*
Y2135D02*
Y11584D01*
X22887Y2135D02*
X33911D01*
X22887D02*
Y11584D01*
D14*
X32772Y3695D02*
X34000D01*
Y5795D01*
X32772D02*
X34000D01*
X32772Y3695D02*
Y5795D01*
D15*
X33033Y6192D02*
X36379D01*
X33033Y9618D02*
X36379D01*
X33033Y6192D02*
Y9618D01*
X36379Y6192D02*
Y9618D01*
D16*
X30900Y9398D02*
G03*
X30900Y9398I-197J0D01*
G01*
X11374Y1309D02*
G03*
X11374Y1309I-197J0D01*
G01*
D17*
X34316Y2385D02*
D03*
X33916D02*
D03*
D18*
X4542Y7266D02*
D03*
Y7644D02*
D03*
X29600Y2736D02*
D03*
Y3114D02*
D03*
X31876Y2334D02*
D03*
Y1956D02*
D03*
X35576Y2705D02*
D03*
Y3083D02*
D03*
X26066Y9174D02*
D03*
Y8796D02*
D03*
X30639Y7091D02*
D03*
Y6713D02*
D03*
X6434Y8216D02*
D03*
Y7838D02*
D03*
X3396Y8815D02*
D03*
Y9255D02*
D03*
X25526Y9175D02*
D03*
Y8797D02*
D03*
D19*
X36094Y5783D02*
D03*
X35594D02*
D03*
X35094D02*
D03*
X34594D02*
D03*
X36094Y3854D02*
D03*
X35594D02*
D03*
X35094D02*
D03*
X34594D02*
D03*
D20*
X33228Y1975D02*
D03*
X33563D02*
D03*
X5855Y5175D02*
D03*
X5520D02*
D03*
D21*
X27602Y4609D02*
D03*
X28861Y7936D02*
D03*
X28547D02*
D03*
X28232D02*
D03*
X27917D02*
D03*
X27602D02*
D03*
X27287D02*
D03*
X26972D02*
D03*
X26657D02*
D03*
Y4609D02*
D03*
X26972D02*
D03*
X27287D02*
D03*
X27917D02*
D03*
X28232D02*
D03*
X28547D02*
D03*
X28861D02*
D03*
D22*
X2479Y8055D02*
D03*
X1770D02*
D03*
D23*
X2966Y6360D02*
D03*
Y6163D02*
D03*
Y6557D02*
D03*
Y5179D02*
D03*
Y5572D02*
D03*
Y5376D02*
D03*
Y5769D02*
D03*
Y5966D02*
D03*
D24*
X19795Y6135D02*
D03*
X20091D02*
D03*
X12079Y6713D02*
D03*
X11784D02*
D03*
X12088Y7213D02*
D03*
X11793D02*
D03*
X12066Y5715D02*
D03*
X11770D02*
D03*
X12068Y6203D02*
D03*
X11773D02*
D03*
X12003Y7734D02*
D03*
X11708D02*
D03*
X19808Y6625D02*
D03*
X20103D02*
D03*
X19806Y5665D02*
D03*
X20101D02*
D03*
X19820Y7149D02*
D03*
X20115D02*
D03*
X19838Y4750D02*
D03*
X20133D02*
D03*
D25*
X5777Y5913D02*
D03*
X6584D02*
D03*
D26*
X13907Y3322D02*
D03*
Y2810D02*
D03*
X14754Y3066D02*
D03*
X19641Y3063D02*
D03*
X18794Y2807D02*
D03*
Y3319D02*
D03*
X17517Y3060D02*
D03*
X16670Y2804D02*
D03*
Y3316D02*
D03*
X12652Y3062D02*
D03*
X11805Y2806D02*
D03*
Y3318D02*
D03*
D27*
X29423Y5170D02*
D03*
Y5485D02*
D03*
Y5800D02*
D03*
Y6115D02*
D03*
Y6430D02*
D03*
Y6745D02*
D03*
Y7060D02*
D03*
Y7375D02*
D03*
X26096D02*
D03*
Y7060D02*
D03*
Y6745D02*
D03*
Y6430D02*
D03*
Y6115D02*
D03*
Y5800D02*
D03*
Y5485D02*
D03*
Y5170D02*
D03*
D28*
X1376Y8055D02*
D03*
X2873D02*
D03*
D29*
X19790Y5135D02*
D03*
X20140D02*
D03*
X20250Y4120D02*
D03*
X20601D02*
D03*
X12079Y5245D02*
D03*
X11729D02*
D03*
X12084Y4720D02*
D03*
X11734D02*
D03*
X30944Y6252D02*
D03*
X30594D02*
D03*
D30*
X18156Y2812D02*
D03*
Y3162D02*
D03*
X16017Y2826D02*
D03*
Y3176D02*
D03*
X13282Y2803D02*
D03*
Y3154D02*
D03*
X11138Y2771D02*
D03*
Y3121D02*
D03*
X3886Y8440D02*
D03*
Y8090D02*
D03*
D31*
X21406Y7608D02*
D03*
Y7108D02*
D03*
Y6608D02*
D03*
Y6108D02*
D03*
Y5608D02*
D03*
Y5108D02*
D03*
Y4608D02*
D03*
Y4108D02*
D03*
X23296Y7608D02*
D03*
Y7108D02*
D03*
Y6608D02*
D03*
Y6108D02*
D03*
Y5608D02*
D03*
Y5108D02*
D03*
Y4608D02*
D03*
Y4108D02*
D03*
X10867Y4222D02*
D03*
Y4722D02*
D03*
Y5222D02*
D03*
Y5722D02*
D03*
Y6222D02*
D03*
Y6722D02*
D03*
Y7222D02*
D03*
Y7722D02*
D03*
X8977Y4222D02*
D03*
Y4722D02*
D03*
Y5222D02*
D03*
Y5722D02*
D03*
Y6222D02*
D03*
Y6722D02*
D03*
Y7222D02*
D03*
Y7722D02*
D03*
D32*
X30611Y4113D02*
D03*
X32186D02*
D03*
D33*
X30300Y3210D02*
D03*
Y2659D02*
D03*
X31319Y6862D02*
D03*
Y7413D02*
D03*
D34*
X31176Y1643D02*
D03*
Y2607D02*
D03*
D35*
X37131Y2570D02*
D03*
X36836D02*
D03*
X37149Y5830D02*
D03*
X36853D02*
D03*
X37103Y8735D02*
D03*
X36808D02*
D03*
X43019Y8770D02*
D03*
X42723D02*
D03*
X42996Y2544D02*
D03*
X42701D02*
D03*
X42706Y5675D02*
D03*
X43001D02*
D03*
X48838Y5760D02*
D03*
X48543D02*
D03*
X48876Y8955D02*
D03*
X48580D02*
D03*
X48753Y2575D02*
D03*
X48458D02*
D03*
X54848Y2685D02*
D03*
X55143D02*
D03*
X54806Y5815D02*
D03*
X55101D02*
D03*
X55041Y8965D02*
D03*
X54746D02*
D03*
D36*
X33546Y2398D02*
D03*
Y2792D02*
D03*
X3886Y8841D02*
D03*
Y9235D02*
D03*
D37*
X33958Y2845D02*
D03*
X34273D02*
D03*
D38*
X34870Y1429D02*
D03*
Y2472D02*
D03*
D39*
X37934Y3160D02*
D03*
X39017D02*
D03*
X37934Y2570D02*
D03*
X39017D02*
D03*
X38987Y9330D02*
D03*
X37904D02*
D03*
Y8740D02*
D03*
X38987D02*
D03*
X44928Y3135D02*
D03*
X43846D02*
D03*
Y2544D02*
D03*
X44928D02*
D03*
X44867Y5670D02*
D03*
X43784D02*
D03*
X44867Y6260D02*
D03*
X43784D02*
D03*
X44867Y9360D02*
D03*
X43784D02*
D03*
Y8770D02*
D03*
X44867D02*
D03*
X39037Y6420D02*
D03*
Y5830D02*
D03*
X37954D02*
D03*
Y6420D02*
D03*
X55594Y9540D02*
D03*
X56677D02*
D03*
X55594Y8950D02*
D03*
X56677D02*
D03*
X50708Y3155D02*
D03*
X49626D02*
D03*
Y2564D02*
D03*
X50708D02*
D03*
X56797Y3270D02*
D03*
X55714D02*
D03*
Y2680D02*
D03*
X56797D02*
D03*
X50727Y6320D02*
D03*
Y5730D02*
D03*
X49644D02*
D03*
Y6320D02*
D03*
X50747Y9520D02*
D03*
X49664D02*
D03*
Y8930D02*
D03*
X50747D02*
D03*
X56797Y6410D02*
D03*
Y5820D02*
D03*
X55714D02*
D03*
Y6410D02*
D03*
D40*
X33386Y5445D02*
D03*
Y4045D02*
D03*
D41*
X33053Y10615D02*
D03*
X34018D02*
D03*
D42*
X34088Y9923D02*
D03*
X33710D02*
D03*
X30957Y5802D02*
D03*
X30579D02*
D03*
D43*
X34706Y6724D02*
D03*
Y9086D02*
D03*
D44*
X4758Y803D02*
D03*
X4459Y1103D02*
D03*
X6982Y3627D02*
D03*
X7282Y3327D02*
D03*
D45*
X4459Y803D02*
D03*
X7282Y3627D02*
D03*
D46*
Y1103D02*
D03*
X6982Y803D02*
D03*
X4459Y3327D02*
D03*
X4758Y3627D02*
D03*
D47*
X7282Y803D02*
D03*
X4459Y3627D02*
D03*
D48*
X30653Y5171D02*
D03*
X30259D02*
D03*
X30653Y5332D02*
D03*
X30259D02*
D03*
D49*
X4336Y5435D02*
D03*
X5065Y5691D02*
D03*
Y5179D02*
D03*
D50*
X5750Y4425D02*
D03*
X4450D02*
D03*
D51*
X5815Y7850D02*
D03*
Y8598D02*
D03*
X4949Y8224D02*
D03*
D52*
X2966Y6813D02*
D03*
Y4923D02*
D03*
Y4608D02*
D03*
Y7128D02*
D03*
D94*
X32646Y1465D02*
D03*
X25720Y640D02*
D03*
X32956Y2925D02*
D03*
X5523Y9449D02*
D03*
X6564Y9444D02*
D03*
X4484Y9454D02*
D03*
X27849Y2582D02*
D03*
X28199Y3332D02*
D03*
X23692Y649D02*
D03*
D95*
X15537Y3776D02*
X15616D01*
X15426Y3886D02*
Y3965D01*
Y3886D02*
X15537Y3776D01*
X16670Y2807D02*
X18794D01*
X15329D02*
X16670D01*
X10742D02*
X15329D01*
X3848Y6813D02*
X3876Y6840D01*
X25371Y8797D02*
X25526D01*
X25078Y9091D02*
X25371Y8797D01*
X21360Y9091D02*
X25078D01*
X6434Y8216D02*
X7263Y9044D01*
Y9314D01*
X4180Y7644D02*
X4542D01*
X3886Y7349D02*
X4180Y7644D01*
X3876Y6840D02*
Y7339D01*
X4542Y7644D02*
X4949Y8050D01*
Y8224D01*
X6051Y8598D02*
X6434Y8216D01*
X18128Y5665D02*
X19806D01*
X16616Y4152D02*
X18128Y5665D01*
X16616Y3965D02*
Y4152D01*
X4450Y4425D02*
Y5321D01*
X4336Y5435D02*
X4450Y5321D01*
X6630Y1158D02*
X6985Y803D01*
X6941Y1444D02*
X7282Y1103D01*
X4459Y3627D02*
Y4417D01*
Y3350D02*
X4764Y3044D01*
X4770Y3627D02*
X5067Y3330D01*
X10439Y3110D02*
X10742Y2807D01*
X10439Y3110D02*
Y3795D01*
X10867Y4222D01*
X32783Y5083D02*
Y5649D01*
X32192Y4491D02*
X32783Y5083D01*
X21269Y4745D02*
X21406Y4608D01*
X20239Y4745D02*
X21269D01*
X19219Y4768D02*
X19853D01*
X18616Y4164D02*
X19219Y4768D01*
X20601Y4120D02*
X20613Y4108D01*
X20140Y5135D02*
X20167Y5108D01*
X20131Y5635D02*
X21145D01*
X20101Y5665D02*
X20131Y5635D01*
X18616Y3965D02*
Y4164D01*
X16670Y3316D02*
X16674D01*
X13825Y3965D02*
X14739Y3051D01*
X12647Y3062D02*
Y3934D01*
X15616Y3094D02*
Y3776D01*
X15329Y2807D02*
X15616Y3094D01*
X19616Y7353D02*
Y7965D01*
Y7353D02*
X19820Y7149D01*
X18446Y6135D02*
X19795D01*
X16616Y7965D02*
X18446Y6135D01*
X20115Y7135D02*
X21145D01*
X5287Y5913D02*
X5777D01*
X5065Y5691D02*
X5287Y5913D01*
X54099Y2685D02*
X54848D01*
X47896Y6337D02*
X48508Y5725D01*
X47896Y9607D02*
X48578Y8925D01*
X36816Y2575D02*
Y5822D01*
X36808Y5830D02*
X36816Y5822D01*
X53656Y6965D02*
X54806Y5815D01*
X54123Y8965D02*
X54746D01*
X18794Y2807D02*
X21553D01*
X22284Y3538D01*
X26813Y7205D02*
X27076D01*
X17616Y3159D02*
Y3965D01*
X19616D02*
X19641Y3940D01*
Y3063D02*
Y3940D01*
X17517Y3060D02*
X17616Y3159D01*
X13616Y3965D02*
X13825D01*
X12616D02*
X12647Y3934D01*
X32192Y4113D02*
Y4491D01*
X29600Y3114D02*
X30204D01*
X29526Y3917D02*
X29746Y3697D01*
Y3259D02*
Y3697D01*
X29600Y3114D02*
X29746Y3259D01*
X30300Y3210D02*
X30611Y4113D01*
X12088Y7213D02*
X13322D01*
X11126Y7205D02*
X11793D01*
X11116Y7715D02*
X11708D01*
X12003Y7734D02*
X12312D01*
X12079Y6713D02*
X13364D01*
X11116Y6715D02*
X11784D01*
X12068Y6203D02*
X13853D01*
X11116Y6215D02*
X11773D01*
X12066Y5715D02*
X13491D01*
X18976Y6605D02*
X19808D01*
X17616Y7965D02*
X18976Y6605D01*
X20131D02*
X20161Y6635D01*
X21145D01*
X10867Y4722D02*
X10869Y4720D01*
X22284Y3538D02*
Y7293D01*
X21969Y7608D02*
X22284Y7293D01*
X21406Y7608D02*
X21969D01*
X12079Y5245D02*
X12091Y5233D01*
X14616Y3965D02*
Y4590D01*
X13491Y5715D02*
X14616Y4590D01*
X10867Y5222D02*
X10889Y5245D01*
X13616Y3814D02*
Y3965D01*
X17616D02*
X17644Y3936D01*
X29423Y5170D02*
X29526Y5066D01*
Y3917D02*
Y5066D01*
X30611Y4113D02*
X31390Y4893D01*
Y6221D01*
X31339Y6272D02*
X31390Y6221D01*
X55146Y2690D02*
X55714Y2680D01*
X55101Y5820D02*
X55714D01*
X55041Y8965D02*
X55579D01*
X30639Y6713D02*
X31170D01*
X26066Y7405D02*
Y8796D01*
X19616Y3965D02*
X19759Y4108D01*
X14508Y3857D02*
X14616Y3965D01*
X25526Y8797D02*
X26065D01*
X30944Y6252D02*
X31319D01*
Y6292D02*
Y6862D01*
X30579Y5802D02*
Y6238D01*
X20091Y6135D02*
X21145D01*
X11116Y5715D02*
X11770D01*
X13853Y6203D02*
X15616Y7965D01*
X13322Y7213D02*
X13616Y7507D01*
Y7965D01*
X13364Y6713D02*
X14616Y7965D01*
X11116Y7215D02*
X11126Y7205D01*
X12312Y7734D02*
X12543Y7965D01*
X12616D01*
X37131Y2570D02*
X37934D01*
X37149Y5830D02*
X37954D01*
X37138Y8740D02*
X37904D01*
X42056Y3177D02*
X42688Y2545D01*
X42996Y2544D02*
X43846D01*
X42056Y6325D02*
X42706Y5675D01*
X43019Y5670D02*
X43784D01*
X42056Y9425D02*
X42706Y8775D01*
X43019Y8770D02*
X43784D01*
X48784Y2564D02*
X49626D01*
X48848Y5730D02*
X49644D01*
X48901Y8930D02*
X49664D01*
X47896Y3015D02*
X48336Y2575D01*
D96*
X7282Y3627D02*
Y3627D01*
X7132Y3777D02*
X7282Y3627D01*
X3876Y3071D02*
Y4923D01*
Y6813D02*
X6303D01*
X3876Y4923D02*
Y6813D01*
X12449Y8646D02*
X18616D01*
X11927Y8124D02*
X12449Y8646D01*
X7615Y8124D02*
X11927D01*
X20144Y8636D02*
X21145Y7635D01*
X18616Y8636D02*
X20144D01*
X18616Y7965D02*
Y8636D01*
X6303Y6813D02*
X7615Y8124D01*
X5343Y2647D02*
X5750Y3054D01*
X4321Y2626D02*
X5343D01*
X3876Y3071D02*
X4321Y2626D01*
X34877Y6944D02*
X35097Y6724D01*
X5750Y3054D02*
Y4425D01*
X6474D02*
X7122Y3777D01*
X5750Y4425D02*
X6474D01*
X7122Y3777D02*
X7132D01*
X7282Y3627D02*
X7305Y3604D01*
X42056Y9425D02*
Y9655D01*
X53656Y9432D02*
X54123Y8965D01*
X44644Y1383D02*
X44657Y1396D01*
X34028Y10625D02*
X34088D01*
X34018Y10615D02*
X34028Y10625D01*
X4758Y803D02*
X6982D01*
X39017Y3160D02*
X39230D01*
X39646Y2745D01*
X38987Y9330D02*
X39200D01*
X39037Y6420D02*
X39200D01*
X50886Y3155D02*
X51286Y2755D01*
X50900Y6320D02*
X51286Y5935D01*
X50910Y9520D02*
X51286Y9145D01*
X56787Y9550D02*
X56970D01*
X45080Y6260D02*
X45496Y5845D01*
X39200Y6420D02*
X39646Y5975D01*
X39200Y9330D02*
X39646Y8885D01*
X45096Y3135D02*
X45496Y2735D01*
X44928Y3135D02*
X45096D01*
X45080Y9360D02*
X45496Y8945D01*
X50708Y3155D02*
X50886D01*
X50727Y6320D02*
X50900D01*
X56797Y3270D02*
X57000D01*
X56797Y6410D02*
X56980D01*
X44867Y6260D02*
X45080D01*
X44867Y9360D02*
X45080D01*
X57000Y3270D02*
X57376Y2895D01*
X56980Y6410D02*
X57376Y6015D01*
D97*
X3876Y4923D02*
X3897D01*
X2946D02*
X3876D01*
X2946Y6813D02*
X3848D01*
D98*
X35947Y1396D02*
X38707D01*
X41086Y10625D02*
X42056Y9655D01*
X41086Y10625D02*
X47436D01*
X53086D01*
X36245D02*
X41086D01*
X53086D02*
X53656Y10055D01*
X50557Y1396D02*
X56367D01*
X44657D02*
X50557D01*
X38707D02*
X44657D01*
X34088Y10625D02*
X36245D01*
X47436D02*
X47896Y10165D01*
D99*
X38707Y1396D02*
X39646Y2335D01*
X53656Y3128D02*
X54099Y2685D01*
X53656Y3128D02*
Y6965D01*
Y9432D01*
X50557Y1396D02*
X51286Y2125D01*
X56367Y1396D02*
X57376Y2405D01*
X44657Y1396D02*
X45496Y2235D01*
X53656Y9432D02*
Y10055D01*
X39646Y2335D02*
Y2745D01*
X45496Y2235D02*
Y2735D01*
X47896Y9607D02*
Y10165D01*
X57376Y2405D02*
Y2895D01*
X45496Y5845D02*
Y8945D01*
Y2735D02*
Y5845D01*
X47896Y6337D02*
Y9607D01*
Y3015D02*
Y6337D01*
X51286Y2755D02*
Y5935D01*
Y9145D01*
Y2125D02*
Y2755D01*
X57376Y2895D02*
Y6015D01*
Y9145D01*
X39646Y2745D02*
Y5975D01*
Y8885D01*
X42056Y3177D02*
Y6325D01*
Y9425D01*
X56970Y9550D02*
X57376Y9145D01*
D100*
X36808Y5830D02*
Y8735D01*
D101*
Y10061D01*
D102*
X3892Y3419D02*
D03*
X3696Y3266D02*
D03*
X6630Y1158D02*
D03*
X6932Y1444D02*
D03*
X5067Y3330D02*
D03*
X4764Y3044D02*
D03*
X32783Y5649D02*
D03*
X25892Y4128D02*
D03*
X36153Y3308D02*
D03*
X3493Y6360D02*
D03*
X2445Y8480D02*
D03*
X35076Y3265D02*
D03*
X25067Y3846D02*
D03*
X25391Y4091D02*
D03*
X26800Y2468D02*
D03*
X32375Y2904D02*
D03*
X32373Y2660D02*
D03*
X29153Y2354D02*
D03*
X1810Y8496D02*
D03*
X3510Y5351D02*
D03*
X28859Y3959D02*
D03*
X21360Y9091D02*
D03*
X6192Y5198D02*
D03*
X30094Y5814D02*
D03*
X27607Y8616D02*
D03*
X28543Y8611D02*
D03*
X28864Y8616D02*
D03*
X27911Y8624D02*
D03*
X28231Y8613D02*
D03*
X27296Y8605D02*
D03*
X26986Y8595D02*
D03*
X7976Y7725D02*
D03*
X7956Y6725D02*
D03*
X7976Y7225D02*
D03*
X7936Y5725D02*
D03*
Y6215D02*
D03*
Y4705D02*
D03*
Y5195D02*
D03*
X25376Y5485D02*
D03*
X25386Y5175D02*
D03*
X25666Y4836D02*
D03*
X30929Y3215D02*
D03*
X31173Y3213D02*
D03*
X36433Y3282D02*
D03*
X7263Y9314D02*
D03*
X31339Y6272D02*
D03*
X3426Y8425D02*
D03*
X30149Y6752D02*
D03*
Y7072D02*
D03*
Y7382D02*
D03*
X28554Y3916D02*
D03*
D103*
X23705Y1678D02*
D03*
D104*
X24705D02*
D03*
X25705D02*
D03*
X26705D02*
D03*
D105*
X12616Y3965D02*
D03*
X13616D02*
D03*
X14616D02*
D03*
X15616D02*
D03*
X16616D02*
D03*
X17616D02*
D03*
X18616D02*
D03*
X19616D02*
D03*
Y7965D02*
D03*
X18616D02*
D03*
X17616D02*
D03*
X16616D02*
D03*
X12616D02*
D03*
X13616D02*
D03*
X14616D02*
D03*
X15616D02*
D03*
X11246Y10335D02*
D03*
X13006D02*
D03*
X14856D02*
D03*
X16616D02*
D03*
X18536Y10345D02*
D03*
X20296D02*
D03*
D106*
X52449Y7622D02*
D03*
X40892Y3187D02*
D03*
X57866Y1186D02*
D03*
Y10635D02*
D03*
X1960Y1186D02*
D03*
Y10635D02*
D03*
D107*
X1086Y4165D02*
D03*
Y7570D02*
D03*
D108*
X2661D02*
D03*
Y4165D02*
D03*
D109*
X10746Y9385D02*
D03*
X13506D02*
D03*
X14356D02*
D03*
X17116D02*
D03*
X18036Y9395D02*
D03*
X20796D02*
D03*
D110*
X7153Y5894D02*
D03*
X7387Y5534D02*
D03*
X34864Y5774D02*
D03*
X31973Y8160D02*
D03*
X6200Y7373D02*
D03*
X5026Y7359D02*
D03*
X7929Y1330D02*
D03*
X8333Y1327D02*
D03*
X8731D02*
D03*
X9144Y1330D02*
D03*
X9535Y1336D02*
D03*
X9983Y1348D02*
D03*
X4993Y6329D02*
D03*
X5286Y3820D02*
D03*
X8313Y3567D02*
D03*
X8941Y3569D02*
D03*
X9591Y3555D02*
D03*
X26430Y7941D02*
D03*
X26432Y8382D02*
D03*
X33390Y4592D02*
D03*
X33782Y4603D02*
D03*
X40126Y2195D02*
D03*
X38663Y804D02*
D03*
X37963D02*
D03*
X34145Y4696D02*
D03*
X34130Y5244D02*
D03*
X34149Y5758D02*
D03*
X20493Y1326D02*
D03*
X20897Y1323D02*
D03*
X21296D02*
D03*
X21709Y1326D02*
D03*
X22099Y1332D02*
D03*
X18452Y1313D02*
D03*
X18856Y1310D02*
D03*
X19255D02*
D03*
X19667Y1313D02*
D03*
X20058Y1319D02*
D03*
X16394Y1331D02*
D03*
X16798Y1328D02*
D03*
X17196D02*
D03*
X17609Y1331D02*
D03*
X18000Y1337D02*
D03*
X14308Y1335D02*
D03*
X14712Y1331D02*
D03*
X15111D02*
D03*
X15524Y1335D02*
D03*
X15914Y1341D02*
D03*
X13860Y1323D02*
D03*
X13469Y1317D02*
D03*
X13057Y1314D02*
D03*
X12658D02*
D03*
X12254Y1317D02*
D03*
X2885Y8763D02*
D03*
X2897Y9715D02*
D03*
X34514Y11292D02*
D03*
X33881Y11326D02*
D03*
X35852Y11254D02*
D03*
X35194Y11274D02*
D03*
X36292Y2032D02*
D03*
X36283Y2620D02*
D03*
X40144Y6233D02*
D03*
Y7533D02*
D03*
Y6873D02*
D03*
X41454Y8323D02*
D03*
Y6983D02*
D03*
Y7683D02*
D03*
X51868Y2269D02*
D03*
X51878Y4329D02*
D03*
X51868Y3569D02*
D03*
Y2909D02*
D03*
X53178Y4359D02*
D03*
Y3019D02*
D03*
Y3719D02*
D03*
X53168Y2299D02*
D03*
X53083Y11237D02*
D03*
X47553Y11247D02*
D03*
X41303Y11237D02*
D03*
X36463Y11257D02*
D03*
X50273Y11237D02*
D03*
X51693Y11227D02*
D03*
X46133D02*
D03*
X39843Y11247D02*
D03*
X40603Y11237D02*
D03*
X29156Y4785D02*
D03*
X32292Y9915D02*
D03*
X32295Y11345D02*
D03*
X31758Y5577D02*
D03*
X32186Y5229D02*
D03*
X31818Y4857D02*
D03*
X31385Y4105D02*
D03*
X33002Y4602D02*
D03*
X34157Y4099D02*
D03*
X8291Y3991D02*
D03*
X24996Y7674D02*
D03*
X24568Y8156D02*
D03*
X23918Y8171D02*
D03*
X23289Y8169D02*
D03*
X30903Y7813D02*
D03*
X3882Y9723D02*
D03*
X2897Y9203D02*
D03*
X3411Y9723D02*
D03*
X5580Y7370D02*
D03*
X32377Y1969D02*
D03*
X31917Y1466D02*
D03*
X30293Y2193D02*
D03*
X29602Y2196D02*
D03*
X29613Y1464D02*
D03*
X35920Y780D02*
D03*
X35292Y775D02*
D03*
X34750Y793D02*
D03*
X34131Y1920D02*
D03*
X33032Y11368D02*
D03*
X33045Y9907D02*
D03*
X32274Y10611D02*
D03*
X31337Y8150D02*
D03*
X31058Y5266D02*
D03*
X30945Y4899D02*
D03*
X27805Y7204D02*
D03*
X6707Y2574D02*
D03*
X6142Y6437D02*
D03*
X4361Y6324D02*
D03*
X30594Y4747D02*
D03*
X41551Y6281D02*
D03*
X41528Y4298D02*
D03*
X40129Y4322D02*
D03*
Y4968D02*
D03*
X34113Y1354D02*
D03*
X34120Y828D02*
D03*
X37332Y4250D02*
D03*
X37314Y3180D02*
D03*
X37320Y3710D02*
D03*
X37338Y4830D02*
D03*
X37344Y5375D02*
D03*
X37372Y6418D02*
D03*
X37380Y7016D02*
D03*
Y7673D02*
D03*
X37369Y8285D02*
D03*
X27076Y7205D02*
D03*
X28496Y7195D02*
D03*
X27036Y5385D02*
D03*
X27757D02*
D03*
X28463Y5397D02*
D03*
X53166Y5795D02*
D03*
Y5095D02*
D03*
X53176Y8555D02*
D03*
X53166Y6435D02*
D03*
X52540Y9902D02*
D03*
X53166Y9245D02*
D03*
X51856Y8455D02*
D03*
X51866Y9875D02*
D03*
Y9175D02*
D03*
X51856Y4985D02*
D03*
Y5645D02*
D03*
X51866Y6405D02*
D03*
X41520Y4970D02*
D03*
X41522Y5607D02*
D03*
X41446Y9175D02*
D03*
X40136Y8385D02*
D03*
X40146Y9805D02*
D03*
Y9105D02*
D03*
X41456Y2225D02*
D03*
X40136Y5575D02*
D03*
X46036Y2335D02*
D03*
Y2995D02*
D03*
X46046Y4415D02*
D03*
Y3715D02*
D03*
X46056Y6475D02*
D03*
Y7175D02*
D03*
X46046Y5715D02*
D03*
Y5055D02*
D03*
X47366Y3065D02*
D03*
Y2365D02*
D03*
X46056Y9245D02*
D03*
Y9945D02*
D03*
X46046Y8525D02*
D03*
Y7865D02*
D03*
X47356Y9315D02*
D03*
X46699Y9946D02*
D03*
X47356Y6505D02*
D03*
Y7165D02*
D03*
X47366Y8625D02*
D03*
Y7925D02*
D03*
X47356Y5165D02*
D03*
Y5865D02*
D03*
X47346Y4445D02*
D03*
Y3785D02*
D03*
X36583Y814D02*
D03*
X37243D02*
D03*
X40723Y794D02*
D03*
X41423D02*
D03*
X39963Y804D02*
D03*
X39303D02*
D03*
X44833Y794D02*
D03*
X45493D02*
D03*
X46953Y784D02*
D03*
X46253D02*
D03*
X43493Y794D02*
D03*
X44193D02*
D03*
X42773Y804D02*
D03*
X42113D02*
D03*
X53203Y794D02*
D03*
X53863D02*
D03*
X55283Y784D02*
D03*
X54583D02*
D03*
X56583D02*
D03*
X55923D02*
D03*
X50393Y794D02*
D03*
X51053D02*
D03*
X52513Y784D02*
D03*
X51813D02*
D03*
X49053Y794D02*
D03*
X49753D02*
D03*
X48333Y804D02*
D03*
X47673D02*
D03*
X48213Y11247D02*
D03*
X49633Y11237D02*
D03*
X48933D02*
D03*
X52393Y11227D02*
D03*
X50933Y11237D02*
D03*
X55803Y11227D02*
D03*
X56463D02*
D03*
X54463D02*
D03*
X55163D02*
D03*
X53743Y11237D02*
D03*
X41993Y11247D02*
D03*
X42653D02*
D03*
X44073Y11237D02*
D03*
X43373D02*
D03*
X46833Y11227D02*
D03*
X45373Y11237D02*
D03*
X44713D02*
D03*
X39183Y11247D02*
D03*
X37843D02*
D03*
X38543D02*
D03*
X37123Y11257D02*
D03*
M02*
